<svg width="1500" height="1500" viewBox="0 0 1500 1500" fill="none" xmlns="http://www.w3.org/2000/svg">
<path d="M1373 950.391C1373 895.085 1328.17 763.847 1272.86 763.847C1217.56 763.847 1172.73 895.085 1172.73 950.391C1172.75 976.956 1183.31 1002.43 1202.08 1021.2C1220.86 1039.98 1246.32 1050.53 1272.86 1050.53C1299.41 1050.53 1324.87 1039.98 1343.65 1021.2C1362.42 1002.43 1372.98 976.956 1373 950.391H1373Z" fill="#99FF12"/>
<path d="M1272.86 1172.29C1272.56 1172.29 1272.27 1172.17 1272.05 1171.96C1271.84 1171.74 1271.72 1171.45 1271.72 1171.15V937.219C1271.72 936.915 1271.84 936.624 1272.05 936.409C1272.27 936.194 1272.56 936.073 1272.86 936.073C1273.17 936.073 1273.46 936.194 1273.67 936.409C1273.89 936.624 1274.01 936.915 1274.01 937.219V1171.15C1274.01 1171.45 1273.89 1171.74 1273.67 1171.96C1273.46 1172.17 1273.17 1172.29 1272.86 1172.29Z" fill="#FFB8B8"/>
<path d="M1272.86 980.925C1272.7 980.925 1272.54 980.89 1272.39 980.822C1272.24 980.754 1272.11 980.654 1272 980.53L1214.41 914.067C1214.21 913.837 1214.11 913.538 1214.13 913.235C1214.15 912.932 1214.3 912.651 1214.52 912.452C1214.75 912.253 1215.05 912.153 1215.36 912.174C1215.66 912.195 1215.94 912.336 1216.14 912.565L1273.73 979.028C1273.87 979.194 1273.97 979.398 1274 979.615C1274.03 979.833 1274 980.054 1273.91 980.254C1273.81 980.454 1273.67 980.624 1273.48 980.742C1273.3 980.861 1273.08 980.925 1272.86 980.925Z" fill="#FFB8B8"/>
<path d="M1272.86 1019.28C1272.64 1019.28 1272.42 1019.21 1272.23 1019.09C1272.04 1018.96 1271.89 1018.78 1271.81 1018.57C1271.72 1018.36 1271.7 1018.13 1271.74 1017.91C1271.79 1017.69 1271.89 1017.49 1272.05 1017.33L1304.78 984.577C1304.99 984.364 1305.28 984.244 1305.59 984.244C1305.89 984.245 1306.18 984.365 1306.4 984.58C1306.61 984.794 1306.73 985.085 1306.73 985.388C1306.73 985.692 1306.61 985.983 1306.4 986.198L1273.67 1018.95C1273.57 1019.05 1273.44 1019.14 1273.3 1019.19C1273.16 1019.25 1273.01 1019.28 1272.86 1019.28Z" fill="#FFB8B8"/>
<path d="M268.822 1047.34C268.822 1016.19 243.576 942.288 212.433 942.288C181.291 942.288 156.045 1016.19 156.045 1047.34C156.053 1062.3 161.998 1076.64 172.572 1087.22C183.146 1097.79 197.484 1103.73 212.433 1103.73C227.383 1103.73 241.721 1097.79 252.295 1087.22C262.869 1076.64 268.814 1062.3 268.822 1047.34H268.822Z" fill="#99FF12"/>
<path d="M212.433 1172.29C212.262 1172.29 212.098 1172.22 211.977 1172.1C211.857 1171.98 211.789 1171.82 211.789 1171.65V1039.92C211.789 1039.75 211.856 1039.58 211.977 1039.46C212.098 1039.34 212.262 1039.27 212.433 1039.27C212.604 1039.27 212.768 1039.34 212.889 1039.46C213.01 1039.58 213.078 1039.75 213.078 1039.92V1171.65C213.078 1171.82 213.01 1171.98 212.889 1172.1C212.768 1172.22 212.604 1172.29 212.433 1172.29Z" fill="#FFB8B8"/>
<path d="M212.434 1064.53C212.341 1064.53 212.25 1064.51 212.166 1064.47C212.082 1064.43 212.007 1064.38 211.946 1064.31L179.516 1026.88C179.405 1026.75 179.349 1026.58 179.362 1026.41C179.374 1026.24 179.453 1026.08 179.582 1025.97C179.711 1025.86 179.879 1025.8 180.049 1025.82C180.219 1025.83 180.378 1025.91 180.49 1026.03L212.921 1063.46C213.002 1063.55 213.054 1063.67 213.072 1063.79C213.089 1063.91 213.071 1064.04 213.02 1064.15C212.969 1064.26 212.886 1064.36 212.782 1064.43C212.678 1064.49 212.557 1064.53 212.434 1064.53V1064.53Z" fill="#FFB8B8"/>
<path d="M212.433 1086.13C212.306 1086.13 212.181 1086.09 212.075 1086.02C211.969 1085.95 211.887 1085.85 211.838 1085.73C211.789 1085.61 211.776 1085.48 211.801 1085.36C211.826 1085.23 211.887 1085.12 211.977 1085.03L230.405 1066.59C230.526 1066.46 230.69 1066.4 230.861 1066.4C231.032 1066.4 231.196 1066.46 231.317 1066.59C231.438 1066.71 231.506 1066.87 231.506 1067.04C231.506 1067.21 231.438 1067.38 231.317 1067.5L212.889 1085.94C212.829 1086 212.758 1086.05 212.68 1086.08C212.602 1086.11 212.518 1086.13 212.433 1086.13Z" fill="#FFB8B8"/>
<path d="M151.359 1171.44C151.359 1165.19 153.839 1159.2 158.254 1154.78C162.669 1150.36 168.656 1147.88 174.9 1147.88C181.143 1147.88 187.131 1150.36 191.546 1154.78C195.96 1159.2 198.441 1165.19 198.441 1171.44" fill="#99FF12"/>
<path d="M174.9 1171.44C174.731 1171.44 174.569 1171.37 174.45 1171.25C174.331 1171.13 174.264 1170.97 174.264 1170.8V1158.38C174.264 1158.22 174.331 1158.05 174.45 1157.93C174.569 1157.82 174.731 1157.75 174.9 1157.75C175.069 1157.75 175.23 1157.82 175.35 1157.93C175.469 1158.05 175.536 1158.22 175.536 1158.38V1170.8C175.536 1170.97 175.469 1171.13 175.35 1171.25C175.23 1171.37 175.069 1171.44 174.9 1171.44Z" fill="#FFB8B8"/>
<path d="M174.9 1167.17C174.748 1167.17 174.601 1167.12 174.485 1167.02L166.851 1160.46C166.787 1160.41 166.735 1160.34 166.697 1160.26C166.659 1160.19 166.636 1160.11 166.629 1160.02C166.623 1159.94 166.633 1159.86 166.659 1159.78C166.685 1159.7 166.726 1159.62 166.781 1159.56C166.835 1159.5 166.902 1159.44 166.977 1159.41C167.051 1159.37 167.133 1159.35 167.216 1159.34C167.3 1159.33 167.384 1159.34 167.463 1159.37C167.543 1159.4 167.616 1159.44 167.679 1159.49L175.314 1166.05C175.413 1166.14 175.483 1166.25 175.516 1166.37C175.548 1166.5 175.542 1166.63 175.496 1166.76C175.451 1166.88 175.37 1166.98 175.263 1167.06C175.156 1167.13 175.03 1167.17 174.9 1167.17H174.9Z" fill="#FFB8B8"/>
<path d="M223.89 1171.44C223.89 1165.19 226.37 1159.2 230.785 1154.78C235.2 1150.36 241.188 1147.88 247.431 1147.88C253.674 1147.88 259.662 1150.36 264.077 1154.78C268.492 1159.2 270.972 1165.19 270.972 1171.44" fill="#99FF12"/>
<path d="M247.431 1171.44C247.262 1171.44 247.1 1171.37 246.981 1171.25C246.862 1171.13 246.795 1170.97 246.795 1170.8V1158.38C246.795 1158.22 246.862 1158.05 246.981 1157.93C247.1 1157.82 247.262 1157.75 247.431 1157.75C247.6 1157.75 247.762 1157.82 247.881 1157.93C248 1158.05 248.067 1158.22 248.067 1158.38V1170.8C248.067 1170.97 248 1171.13 247.881 1171.25C247.762 1171.37 247.6 1171.44 247.431 1171.44Z" fill="#FFB8B8"/>
<path d="M247.431 1167.17C247.279 1167.17 247.132 1167.12 247.017 1167.02L239.382 1160.46C239.254 1160.35 239.175 1160.19 239.162 1160.02C239.149 1159.86 239.203 1159.69 239.313 1159.56C239.423 1159.43 239.58 1159.35 239.748 1159.34C239.916 1159.33 240.083 1159.38 240.211 1159.49L247.845 1166.05C247.944 1166.14 248.014 1166.25 248.047 1166.37C248.08 1166.5 248.073 1166.63 248.028 1166.76C247.982 1166.88 247.901 1166.98 247.794 1167.06C247.688 1167.13 247.561 1167.17 247.431 1167.17Z" fill="#FFB8B8"/>
<path d="M660.431 1077.83C516.662 1077.83 399.698 960.784 399.698 816.912C399.698 673.04 516.662 555.991 660.431 555.991C804.2 555.991 921.164 673.04 921.164 816.912C921.164 960.784 804.2 1077.83 660.431 1077.83ZM660.431 559.493C518.592 559.493 403.198 674.971 403.198 816.912C403.198 958.853 518.592 1074.33 660.431 1074.33C802.27 1074.33 917.664 958.853 917.664 816.912C917.664 674.971 802.27 559.493 660.431 559.493Z" fill="#FFB8B8"/>
<path d="M660.431 797.649C659.967 797.649 659.522 797.465 659.194 797.136C658.866 796.808 658.681 796.363 658.681 795.898V557.742C658.681 557.277 658.866 556.832 659.194 556.504C659.522 556.175 659.967 555.991 660.431 555.991C660.895 555.991 661.34 556.175 661.668 556.504C661.997 556.832 662.181 557.277 662.181 557.742V795.898C662.181 796.363 661.997 796.808 661.668 797.136C661.34 797.465 660.895 797.649 660.431 797.649Z" fill="#FFB8B8"/>
<path d="M919.414 818.663H681.43C680.966 818.663 680.521 818.479 680.192 818.15C679.864 817.822 679.68 817.376 679.68 816.912C679.68 816.447 679.864 816.002 680.192 815.674C680.521 815.345 680.966 815.161 681.43 815.161H919.414C919.878 815.161 920.323 815.345 920.652 815.674C920.98 816.002 921.164 816.447 921.164 816.912C921.164 817.376 920.98 817.822 920.652 818.15C920.323 818.479 919.878 818.663 919.414 818.663Z" fill="#FFB8B8"/>
<path d="M639.433 818.663H401.561C401.097 818.663 400.652 818.479 400.323 818.15C399.995 817.822 399.811 817.376 399.811 816.912C399.811 816.447 399.995 816.002 400.323 815.674C400.652 815.345 401.097 815.161 401.561 815.161H639.433C639.897 815.161 640.342 815.345 640.67 815.674C640.998 816.002 641.182 816.447 641.182 816.912C641.182 817.376 640.998 817.822 640.67 818.15C640.342 818.479 639.897 818.663 639.433 818.663Z" fill="#FFB8B8"/>
<path d="M660.431 1077.83C659.967 1077.83 659.522 1077.65 659.194 1077.32C658.866 1076.99 658.681 1076.55 658.681 1076.08V837.926C658.681 837.461 658.866 837.016 659.194 836.687C659.522 836.359 659.967 836.175 660.431 836.175C660.895 836.175 661.34 836.359 661.668 836.687C661.997 837.016 662.181 837.461 662.181 837.926V1076.08C662.181 1076.55 661.997 1076.99 661.668 1077.32C661.34 1077.65 660.895 1077.83 660.431 1077.83Z" fill="#FFB8B8"/>
<path d="M675.86 804.433C675.514 804.433 675.175 804.33 674.888 804.138C674.6 803.946 674.376 803.672 674.243 803.352C674.111 803.032 674.076 802.68 674.144 802.341C674.211 802.001 674.378 801.689 674.623 801.444L842.163 633.783C842.325 633.62 842.518 633.491 842.73 633.403C842.943 633.315 843.17 633.27 843.4 633.27C843.63 633.27 843.857 633.315 844.069 633.403C844.282 633.491 844.475 633.62 844.637 633.783C844.8 633.945 844.928 634.138 845.016 634.351C845.104 634.563 845.149 634.791 845.149 635.021C845.149 635.251 845.104 635.478 845.016 635.691C844.928 635.903 844.8 636.096 844.637 636.259L677.097 803.92C676.935 804.083 676.742 804.212 676.53 804.3C676.317 804.388 676.09 804.434 675.86 804.433Z" fill="#FFB8B8"/>
<path d="M645.003 804.433C644.773 804.434 644.546 804.388 644.333 804.3C644.121 804.212 643.928 804.083 643.766 803.92L476.225 636.259C475.897 635.931 475.713 635.485 475.713 635.021C475.713 634.556 475.897 634.111 476.225 633.783C476.554 633.454 476.999 633.27 477.463 633.27C477.927 633.27 478.372 633.454 478.7 633.783L646.24 801.444C646.485 801.689 646.652 802.001 646.719 802.341C646.787 802.68 646.752 803.032 646.619 803.352C646.487 803.672 646.263 803.946 645.975 804.138C645.688 804.33 645.349 804.433 645.003 804.433L645.003 804.433Z" fill="#FFB8B8"/>
<path d="M843.4 1000.55C843.17 1000.55 842.942 1000.51 842.73 1000.42C842.518 1000.33 842.325 1000.2 842.163 1000.04L674.623 832.38C674.294 832.051 674.11 831.606 674.11 831.142C674.11 830.677 674.294 830.232 674.623 829.904C674.951 829.575 675.396 829.391 675.86 829.391C676.324 829.391 676.769 829.575 677.097 829.904L844.637 997.565C844.882 997.81 845.048 998.122 845.116 998.462C845.183 998.801 845.149 999.153 845.016 999.473C844.884 999.793 844.66 1000.07 844.372 1000.26C844.084 1000.45 843.746 1000.55 843.4 1000.55L843.4 1000.55Z" fill="#FFB8B8"/>
<path d="M477.463 1000.55C477.117 1000.55 476.778 1000.45 476.491 1000.26C476.203 1000.07 475.979 999.793 475.846 999.473C475.714 999.153 475.679 998.801 475.747 998.462C475.814 998.122 475.981 997.81 476.225 997.565L643.766 829.904C643.928 829.741 644.121 829.612 644.334 829.524C644.546 829.436 644.773 829.391 645.003 829.391C645.233 829.391 645.46 829.436 645.673 829.524C645.885 829.612 646.078 829.741 646.24 829.904C646.403 830.066 646.532 830.259 646.62 830.472C646.708 830.684 646.753 830.912 646.753 831.142C646.753 831.372 646.708 831.599 646.62 831.812C646.532 832.024 646.403 832.217 646.24 832.38L478.7 1000.04C478.538 1000.2 478.345 1000.33 478.132 1000.42C477.92 1000.51 477.692 1000.55 477.463 1000.55Z" fill="#FFB8B8"/>
<path d="M660.431 996.405C624.957 996.405 590.278 985.878 560.782 966.155C531.286 946.432 508.297 918.399 494.721 885.601C481.146 852.803 477.593 816.713 484.514 781.895C491.435 747.077 508.518 715.094 533.602 689.992C558.687 664.889 590.646 647.794 625.439 640.868C660.232 633.942 696.296 637.497 729.071 651.082C761.845 664.668 789.858 687.674 809.566 717.191C829.275 746.709 839.795 781.412 839.795 816.912C839.741 864.5 820.826 910.123 787.201 943.773C753.575 977.423 707.985 996.351 660.431 996.405ZM660.431 640.922C625.649 640.922 591.647 651.243 562.727 670.581C533.806 689.919 511.265 717.405 497.954 749.563C484.644 781.721 481.161 817.107 487.947 851.246C494.733 885.385 511.482 916.743 536.077 941.356C560.672 965.969 592.008 982.73 626.122 989.521C660.236 996.312 695.596 992.826 727.731 979.506C759.866 966.186 787.332 943.629 806.656 914.687C825.98 885.746 836.295 851.72 836.295 816.912C836.242 770.253 817.697 725.519 784.727 692.526C751.758 659.533 707.057 640.974 660.431 640.922Z" fill="#FFB8B8"/>
<path d="M660.431 837.926C672.029 837.926 681.43 828.518 681.43 816.912C681.43 805.306 672.029 795.898 660.431 795.898C648.834 795.898 639.433 805.306 639.433 816.912C639.433 828.518 648.834 837.926 660.431 837.926Z" fill="#3F3D56"/>
<path d="M579.137 1171.86L560.688 1172.4L650.732 808.69L667.47 813.8L579.137 1171.86Z" fill="#3F3D56"/>
<path d="M741.726 1171.86L760.175 1172.4L670.131 808.69L653.394 813.8L741.726 1171.86Z" fill="#3F3D56"/>
<path d="M688.429 610.276H630.683V641.797H688.429V610.276Z" fill="#FFB8B8"/>
<path d="M656.932 617.281H634.183V641.797H656.932V617.281Z" fill="white"/>
<path d="M684.93 617.281H662.181V641.797H684.93V617.281Z" fill="white"/>
<path d="M659.556 675.944C650.742 675.934 642.291 672.426 636.058 666.188C629.825 659.951 626.319 651.494 626.309 642.672V641.797C626.311 639.708 627.141 637.705 628.618 636.227C630.094 634.75 632.095 633.919 634.183 633.917H684.93C687.017 633.919 689.019 634.75 690.495 636.227C691.971 637.705 692.802 639.708 692.804 641.797V642.672C692.794 651.494 689.288 659.951 683.055 666.188C676.822 672.426 668.371 675.934 659.556 675.944Z" fill="#FFB8B8"/>
<path d="M686.266 618.157H632.846C632.1 618.157 631.367 617.966 630.716 617.603C630.064 617.239 629.517 616.715 629.125 616.08C628.733 615.445 628.509 614.721 628.476 613.975C628.442 613.23 628.6 612.488 628.933 611.821L639.433 590.807C639.794 590.078 640.352 589.465 641.043 589.037C641.735 588.609 642.533 588.384 643.346 588.387H675.767C676.58 588.384 677.378 588.609 678.069 589.037C678.761 589.465 679.319 590.078 679.68 590.807L690.179 611.821C690.513 612.488 690.67 613.23 690.637 613.975C690.604 614.721 690.38 615.445 689.988 616.08C689.596 616.715 689.048 617.239 688.397 617.603C687.746 617.966 687.012 618.157 686.266 618.157Z" fill="#99FF12"/>
<path d="M844.169 680.322H786.423V711.843H844.169V680.322Z" fill="#FFB8B8"/>
<path d="M812.671 687.327H789.923V711.843H812.671V687.327Z" fill="white"/>
<path d="M840.67 687.327H817.921V711.843H840.67V687.327Z" fill="white"/>
<path d="M815.296 745.99C806.481 745.98 798.03 742.472 791.797 736.234C785.564 729.997 782.058 721.54 782.048 712.719V711.843C782.051 709.754 782.881 707.751 784.357 706.274C785.834 704.796 787.835 703.965 789.923 703.963H840.67C842.757 703.965 844.759 704.796 846.235 706.274C847.711 707.751 848.542 709.754 848.544 711.843V712.719C848.534 721.54 845.028 729.997 838.795 736.234C832.562 742.472 824.111 745.98 815.296 745.99Z" fill="#FFB8B8"/>
<path d="M799.085 660.184C798.598 660.182 798.119 660.318 797.704 660.574C797.289 660.831 796.955 661.199 796.738 661.636L786.239 682.65C786.038 683.05 785.944 683.495 785.964 683.943C785.984 684.39 786.118 684.825 786.353 685.206C786.588 685.587 786.917 685.901 787.308 686.119C787.699 686.337 788.139 686.451 788.586 686.451H842.006C842.454 686.451 842.894 686.337 843.285 686.119C843.675 685.901 844.004 685.587 844.239 685.206C844.474 684.825 844.609 684.39 844.629 683.943C844.649 683.495 844.554 683.05 844.354 682.65L833.855 661.636C833.638 661.199 833.303 660.831 832.888 660.574C832.473 660.318 831.995 660.182 831.507 660.184H799.085Z" fill="#99FF12"/>
<path d="M905.415 837.926H847.669V869.446H905.415V837.926Z" fill="#FFB8B8"/>
<path d="M873.917 844.93H851.169V869.446H873.917V844.93Z" fill="white"/>
<path d="M901.916 844.93H879.167V869.446H901.916V844.93Z" fill="white"/>
<path d="M876.542 903.594C867.727 903.584 859.277 900.075 853.044 893.838C846.811 887.6 843.304 879.143 843.294 870.322V869.446C843.297 867.357 844.127 865.354 845.603 863.877C847.08 862.4 849.081 861.569 851.169 861.566H901.916C904.003 861.569 906.005 862.4 907.481 863.877C908.957 865.354 909.788 867.357 909.79 869.446V870.322C909.78 879.143 906.274 887.6 900.041 893.838C893.808 900.075 885.357 903.584 876.542 903.594Z" fill="#FFB8B8"/>
<path d="M903.252 845.806H849.832C849.086 845.806 848.353 845.615 847.702 845.252C847.05 844.888 846.503 844.364 846.111 843.73C845.718 843.095 845.495 842.37 845.462 841.625C845.428 840.879 845.586 840.137 845.919 839.47L856.419 818.456C856.78 817.727 857.338 817.114 858.029 816.686C858.721 816.259 859.518 816.033 860.331 816.036H892.753C893.566 816.033 894.364 816.259 895.055 816.686C895.747 817.114 896.305 817.727 896.666 818.456L907.165 839.47C907.499 840.137 907.656 840.879 907.623 841.625C907.589 842.37 907.366 843.095 906.974 843.73C906.582 844.364 906.034 844.888 905.383 845.252C904.732 845.615 903.998 845.806 903.252 845.806Z" fill="#99FF12"/>
<path d="M840.67 985.022H782.923V1016.54H840.67V985.022Z" fill="#FFB8B8"/>
<path d="M809.172 992.027H786.423V1016.54H809.172V992.027Z" fill="white"/>
<path d="M837.17 992.027H814.421V1016.54H837.17V992.027Z" fill="white"/>
<path d="M811.796 1050.69C802.982 1050.68 794.531 1047.17 788.298 1040.93C782.065 1034.7 778.559 1026.24 778.549 1017.42V1016.54C778.551 1014.45 779.381 1012.45 780.858 1010.97C782.334 1009.5 784.335 1008.67 786.423 1008.66H837.17C839.257 1008.67 841.259 1009.5 842.735 1010.97C844.211 1012.45 845.042 1014.45 845.044 1016.54V1017.42C845.034 1026.24 841.528 1034.7 835.295 1040.93C829.062 1047.17 820.611 1050.68 811.796 1050.69Z" fill="#FFB8B8"/>
<path d="M838.507 992.902H785.086C784.341 992.902 783.607 992.712 782.956 992.348C782.304 991.985 781.757 991.461 781.365 990.826C780.973 990.191 780.749 989.467 780.716 988.721C780.682 987.976 780.84 987.234 781.173 986.566L791.673 965.553C792.034 964.824 792.592 964.211 793.284 963.783C793.975 963.355 794.773 963.13 795.586 963.133H828.007C828.82 963.13 829.618 963.355 830.309 963.783C831.001 964.211 831.559 964.824 831.92 965.553L842.42 986.566C842.753 987.234 842.911 987.976 842.877 988.721C842.844 989.467 842.62 990.191 842.228 990.826C841.836 991.461 841.289 991.985 840.637 992.348C839.986 992.712 839.252 992.902 838.507 992.902Z" fill="#99FF12"/>
<path d="M476.693 711.843H534.44V680.322H476.693V711.843Z" fill="#FFB8B8"/>
<path d="M508.191 711.843H530.94V687.327H508.191V711.843Z" fill="white"/>
<path d="M480.193 711.843H502.942V687.327H480.193V711.843Z" fill="white"/>
<path d="M505.566 745.99C496.752 745.98 488.301 742.472 482.068 736.234C475.835 729.997 472.329 721.54 472.319 712.719V711.843C472.321 709.754 473.151 707.751 474.628 706.274C476.104 704.796 478.105 703.965 480.193 703.963H530.94C533.027 703.965 535.029 704.796 536.505 706.274C537.981 707.751 538.812 709.754 538.814 711.843V712.719C538.804 721.54 535.298 729.997 529.065 736.234C522.832 742.472 514.381 745.98 505.566 745.99Z" fill="#FFB8B8"/>
<path d="M532.276 688.202H478.856C478.111 688.202 477.377 688.012 476.726 687.648C476.074 687.285 475.527 686.761 475.135 686.126C474.743 685.491 474.519 684.767 474.486 684.021C474.452 683.276 474.61 682.534 474.943 681.866L485.443 660.853C485.804 660.124 486.362 659.511 487.053 659.083C487.745 658.655 488.543 658.43 489.356 658.433H521.777C522.59 658.43 523.388 658.655 524.079 659.083C524.771 659.511 525.329 660.124 525.69 660.853L536.189 681.866C536.523 682.534 536.68 683.276 536.647 684.021C536.614 684.767 536.39 685.491 535.998 686.126C535.606 686.761 535.058 687.285 534.407 687.648C533.756 688.012 533.022 688.202 532.276 688.202Z" fill="#99FF12"/>
<path d="M415.447 869.446H473.194V837.926H415.447V869.446Z" fill="#FFB8B8"/>
<path d="M446.945 869.446H469.694V844.93H446.945V869.446Z" fill="white"/>
<path d="M418.947 869.446H441.696V844.93H418.947V869.446Z" fill="white"/>
<path d="M444.32 903.594C435.506 903.584 427.055 900.075 420.822 893.838C414.589 887.6 411.083 879.143 411.073 870.322V869.446C411.075 867.357 411.905 865.354 413.382 863.877C414.858 862.4 416.859 861.569 418.947 861.566H469.694C471.781 861.569 473.783 862.4 475.259 863.877C476.735 865.354 477.566 867.357 477.568 869.446V870.322C477.558 879.143 474.052 887.6 467.819 893.838C461.586 900.075 453.135 903.584 444.32 903.594Z" fill="#FFB8B8"/>
<path d="M471.03 845.806H417.61C416.865 845.806 416.131 845.615 415.48 845.252C414.828 844.888 414.281 844.364 413.889 843.73C413.497 843.095 413.273 842.37 413.24 841.625C413.206 840.879 413.364 840.137 413.697 839.47L424.197 818.456C424.558 817.727 425.116 817.114 425.807 816.686C426.499 816.259 427.297 816.033 428.11 816.036H460.531C461.344 816.033 462.142 816.259 462.833 816.686C463.525 817.114 464.083 817.727 464.444 818.456L474.943 839.47C475.277 840.137 475.434 840.879 475.401 841.625C475.368 842.37 475.144 843.095 474.752 843.73C474.36 844.364 473.812 844.888 473.161 845.252C472.51 845.615 471.776 845.806 471.03 845.806Z" fill="#99FF12"/>
<path d="M480.193 1016.54H537.939V985.022H480.193V1016.54Z" fill="#FFB8B8"/>
<path d="M511.691 1016.54H534.44V992.027H511.691V1016.54Z" fill="white"/>
<path d="M483.693 1016.54H506.441V992.027H483.693V1016.54Z" fill="white"/>
<path d="M509.066 1050.69C500.251 1050.68 491.8 1047.17 485.567 1040.93C479.334 1034.7 475.828 1026.24 475.818 1017.42V1016.54C475.821 1014.45 476.651 1012.45 478.127 1010.97C479.604 1009.5 481.605 1008.67 483.693 1008.66H534.44C536.527 1008.67 538.529 1009.5 540.005 1010.97C541.481 1012.45 542.312 1014.45 542.314 1016.54V1017.42C542.304 1026.24 538.798 1034.7 532.565 1040.93C526.332 1047.17 517.881 1050.68 509.066 1050.69Z" fill="#FFB8B8"/>
<path d="M535.776 992.902H482.356C481.61 992.902 480.877 992.712 480.226 992.348C479.574 991.985 479.026 991.461 478.634 990.826C478.242 990.191 478.019 989.467 477.985 988.721C477.952 987.976 478.11 987.234 478.443 986.566L488.942 965.553C489.304 964.824 489.862 964.211 490.553 963.783C491.245 963.355 492.042 963.13 492.855 963.133H525.277C526.09 963.13 526.888 963.355 527.579 963.783C528.271 964.211 528.829 964.824 529.19 965.553L539.689 986.566C540.023 987.234 540.18 987.976 540.147 988.721C540.113 989.467 539.89 990.191 539.498 990.826C539.106 991.461 538.558 991.985 537.907 992.348C537.255 992.712 536.522 992.902 535.776 992.902Z" fill="#99FF12"/>
<path d="M688.429 1051.57H630.683V1083.09H688.429V1051.57Z" fill="#FFB8B8"/>
<path d="M656.932 1058.57H634.183V1083.09H656.932V1058.57Z" fill="white"/>
<path d="M684.93 1058.57H662.181V1083.09H684.93V1058.57Z" fill="white"/>
<path d="M634.183 1076.96C632.559 1076.96 631.003 1077.61 629.854 1078.75C628.706 1079.9 628.06 1081.46 628.058 1083.09V1083.96C628.058 1092.32 631.377 1100.34 637.284 1106.25C643.191 1112.16 651.203 1115.48 659.556 1115.48C667.91 1115.48 675.922 1112.16 681.829 1106.25C687.736 1100.34 691.054 1092.32 691.054 1083.96V1083.09C691.052 1081.46 690.407 1079.9 689.258 1078.75C688.11 1077.61 686.554 1076.96 684.93 1076.96H634.183Z" fill="#FFB8B8"/>
<path d="M643.346 1031.43C642.858 1031.43 642.379 1031.56 641.964 1031.82C641.549 1032.07 641.215 1032.44 640.998 1032.88L630.499 1053.89C630.298 1054.29 630.204 1054.74 630.224 1055.19C630.244 1055.63 630.378 1056.07 630.613 1056.45C630.848 1056.83 631.177 1057.14 631.568 1057.36C631.959 1057.58 632.399 1057.7 632.846 1057.69H686.266C686.714 1057.7 687.154 1057.58 687.545 1057.36C687.936 1057.14 688.264 1056.83 688.499 1056.45C688.735 1056.07 688.869 1055.63 688.889 1055.19C688.909 1054.74 688.814 1054.29 688.614 1053.89L678.115 1032.88C677.898 1032.44 677.563 1032.07 677.148 1031.82C676.733 1031.56 676.255 1031.43 675.767 1031.43H643.346Z" fill="#99FF12"/>
<path d="M1052.77 1119.86C1053.23 1119.86 1053.68 1119.68 1054.01 1119.35C1054.34 1119.02 1054.52 1118.57 1054.52 1118.11C1054.52 1117.65 1054.34 1117.2 1054.01 1116.87C1053.68 1116.54 1053.23 1116.36 1052.77 1116.36H1036.15V1109.35H1052.77C1053.23 1109.35 1053.68 1109.17 1054.01 1108.84C1054.34 1108.51 1054.52 1108.07 1054.52 1107.6C1054.52 1107.14 1054.34 1106.69 1054.01 1106.36C1053.68 1106.04 1053.23 1105.85 1052.77 1105.85H911.03C910.566 1105.85 910.121 1106.04 909.793 1106.36C909.465 1106.69 909.28 1107.14 909.28 1107.6C909.28 1108.07 909.465 1108.51 909.793 1108.84C910.121 1109.17 910.566 1109.35 911.03 1109.35H927.654V1116.36H911.03C910.566 1116.36 910.121 1116.54 909.793 1116.87C909.465 1117.2 909.28 1117.65 909.28 1118.11C909.28 1118.57 909.465 1119.02 909.793 1119.35C910.121 1119.68 910.566 1119.86 911.03 1119.86H927.654V1126.87H911.03C910.566 1126.87 910.121 1127.05 909.793 1127.38C909.465 1127.71 909.28 1128.15 909.28 1128.62C909.28 1129.08 909.465 1129.53 909.793 1129.85C910.121 1130.18 910.566 1130.37 911.03 1130.37H927.654V1137.37H912.78C911.852 1137.37 910.962 1137.74 910.305 1138.4C909.649 1139.05 909.28 1139.95 909.28 1140.87C909.28 1141.8 909.649 1142.69 910.305 1143.35C910.962 1144.01 911.852 1144.38 912.78 1144.38H926.94C926.836 1144.66 926.782 1144.95 926.779 1145.25V1169.77C926.779 1170.47 927.056 1171.13 927.548 1171.63C928.04 1172.12 928.708 1172.4 929.404 1172.4C930.1 1172.4 930.768 1172.12 931.26 1171.63C931.752 1171.13 932.029 1170.47 932.029 1169.77V1145.25C932.026 1144.95 931.971 1144.66 931.868 1144.38H1031.93C1031.83 1144.66 1031.78 1144.95 1031.77 1145.25V1169.77C1031.77 1170.47 1032.05 1171.13 1032.54 1171.63C1033.03 1172.12 1033.7 1172.4 1034.4 1172.4C1035.09 1172.4 1035.76 1172.12 1036.25 1171.63C1036.75 1171.13 1037.02 1170.47 1037.02 1169.77V1145.25C1037.02 1144.95 1036.96 1144.66 1036.86 1144.38H1051.02C1051.95 1144.38 1052.84 1144.01 1053.5 1143.35C1054.15 1142.69 1054.52 1141.8 1054.52 1140.87C1054.52 1139.95 1054.15 1139.05 1053.5 1138.4C1052.84 1137.74 1051.95 1137.37 1051.02 1137.37H1036.15V1130.37H1052.77C1053.23 1130.37 1053.68 1130.18 1054.01 1129.85C1054.34 1129.53 1054.52 1129.08 1054.52 1128.62C1054.52 1128.15 1054.34 1127.71 1054.01 1127.38C1053.68 1127.05 1053.23 1126.87 1052.77 1126.87H1036.15V1119.86H1052.77ZM931.154 1109.35H1032.65V1116.36H931.154V1109.35ZM1032.65 1137.37H931.154V1130.37H1032.65V1137.37ZM1032.65 1126.87H931.154V1119.86H1032.65V1126.87Z" fill="#3F3D56"/>
<path d="M457.81 1119.86C458.274 1119.86 458.719 1119.68 459.047 1119.35C459.375 1119.02 459.559 1118.57 459.559 1118.11C459.559 1117.65 459.375 1117.2 459.047 1116.87C458.719 1116.54 458.274 1116.36 457.81 1116.36H441.186V1109.35H457.81C458.274 1109.35 458.719 1109.17 459.047 1108.84C459.375 1108.51 459.559 1108.07 459.559 1107.6C459.559 1107.14 459.375 1106.69 459.047 1106.36C458.719 1106.04 458.274 1105.85 457.81 1105.85H316.069C315.605 1105.85 315.16 1106.04 314.831 1106.36C314.503 1106.69 314.319 1107.14 314.319 1107.6C314.319 1108.07 314.503 1108.51 314.831 1108.84C315.16 1109.17 315.605 1109.35 316.069 1109.35H332.693V1116.36H316.069C315.605 1116.36 315.16 1116.54 314.831 1116.87C314.503 1117.2 314.319 1117.65 314.319 1118.11C314.319 1118.57 314.503 1119.02 314.831 1119.35C315.16 1119.68 315.605 1119.86 316.069 1119.86H332.693V1126.87H316.069C315.605 1126.87 315.16 1127.05 314.831 1127.38C314.503 1127.71 314.319 1128.15 314.319 1128.62C314.319 1129.08 314.503 1129.53 314.831 1129.85C315.16 1130.18 315.605 1130.37 316.069 1130.37H332.693V1137.37H317.819C316.891 1137.37 316 1137.74 315.344 1138.4C314.688 1139.05 314.319 1139.95 314.319 1140.87C314.319 1141.8 314.688 1142.69 315.344 1143.35C316 1144.01 316.891 1144.38 317.819 1144.38H331.978C331.875 1144.66 331.821 1144.95 331.818 1145.25V1169.77C331.818 1170.47 332.094 1171.13 332.587 1171.63C333.079 1172.12 333.747 1172.4 334.443 1172.4C335.139 1172.4 335.806 1172.12 336.299 1171.63C336.791 1171.13 337.068 1170.47 337.068 1169.77V1145.25C337.064 1144.95 337.01 1144.66 336.907 1144.38H436.972C436.868 1144.66 436.814 1144.95 436.811 1145.25V1169.77C436.811 1170.47 437.088 1171.13 437.58 1171.63C438.072 1172.12 438.74 1172.4 439.436 1172.4C440.132 1172.4 440.8 1172.12 441.292 1171.63C441.784 1171.13 442.061 1170.47 442.061 1169.77V1145.25C442.058 1144.95 442.003 1144.66 441.9 1144.38H456.06C456.988 1144.38 457.878 1144.01 458.534 1143.35C459.191 1142.69 459.56 1141.8 459.56 1140.87C459.56 1139.95 459.191 1139.05 458.534 1138.4C457.878 1137.74 456.988 1137.37 456.06 1137.37H441.186V1130.37H457.81C458.274 1130.37 458.719 1130.18 459.047 1129.85C459.375 1129.53 459.56 1129.08 459.56 1128.62C459.56 1128.15 459.375 1127.71 459.047 1127.38C458.719 1127.05 458.274 1126.87 457.81 1126.87H441.186V1119.86H457.81ZM336.193 1109.35H437.686V1116.36H336.193V1109.35ZM437.686 1137.37H336.193V1130.37H437.686V1137.37ZM437.686 1126.87H336.193V1119.86H437.686V1126.87Z" fill="#3F3D56"/>
<path d="M1009.02 1110.23H1003.77C1003.08 1110.23 1002.41 1109.95 1001.92 1109.46C1001.43 1108.97 1001.15 1108.3 1001.15 1107.6V1102.35C1001.15 1101.65 1001.43 1100.99 1001.92 1100.49C1002.41 1100 1003.08 1099.72 1003.77 1099.72H1009.02C1009.72 1099.72 1010.39 1100 1010.88 1100.49C1011.37 1100.99 1011.65 1101.65 1011.65 1102.35V1107.6C1011.65 1108.3 1011.37 1108.97 1010.88 1109.46C1010.39 1109.95 1009.72 1110.23 1009.02 1110.23Z" fill="#FFB8B8"/>
<path d="M1006.5 1104.44C1006.4 1104.44 1006.3 1104.43 1006.2 1104.42C1005.97 1104.38 1005.76 1104.29 1005.56 1104.17C1005.37 1104.05 1005.2 1103.89 1005.07 1103.7C1004.93 1103.51 1004.84 1103.3 1004.79 1103.08C1004.74 1102.85 1004.73 1102.62 1004.77 1102.39L1022.08 1001.62C1022.16 1001.16 1022.41 1000.76 1022.79 1000.49C1023.17 1000.22 1023.64 1000.12 1024.1 1000.2C1024.55 1000.27 1024.96 1000.53 1025.23 1000.91C1025.5 1001.29 1025.6 1001.76 1025.53 1002.21L1008.22 1102.99C1008.15 1103.39 1007.94 1103.76 1007.62 1104.03C1007.31 1104.29 1006.91 1104.44 1006.5 1104.44Z" fill="#FFB8B8"/>
<path d="M1006.49 1104.44C1006.08 1104.44 1005.68 1104.29 1005.37 1104.03C1005.05 1103.76 1004.84 1103.39 1004.77 1102.99L987.465 1002.21C987.387 1001.76 987.493 1001.29 987.761 1000.91C988.029 1000.53 988.436 1000.27 988.894 1000.19C989.351 1000.11 989.821 1000.22 990.2 1000.49C990.579 1000.76 990.836 1001.16 990.915 1001.62L1008.22 1102.39C1008.26 1102.62 1008.25 1102.85 1008.2 1103.08C1008.15 1103.3 1008.06 1103.51 1007.92 1103.7C1007.79 1103.89 1007.62 1104.05 1007.43 1104.17C1007.23 1104.29 1007.02 1104.38 1006.79 1104.42C1006.69 1104.43 1006.59 1104.44 1006.49 1104.44Z" fill="#FFB8B8"/>
<path d="M1043.75 984.371C1045.44 972.412 1039.06 961.623 1029.5 960.272C1019.93 958.921 1010.82 967.521 1009.13 979.48C1007.71 989.566 1012.04 998.796 1019.16 1002.26L1018.75 1005.13L1027.41 1006.36L1027.81 1003.48C1035.62 1002.13 1042.33 994.457 1043.75 984.371Z" fill="#FF6584"/>
<path d="M1003.56 978.929C1001.49 967.031 992.101 958.729 982.589 960.387C973.077 962.045 967.045 973.035 969.116 984.933C970.863 994.968 977.819 1002.42 985.66 1003.52L986.158 1006.38L994.769 1004.88L994.272 1002.02C1001.28 998.329 1005.31 988.964 1003.56 978.929Z" fill="#FFB8B8"/>
<path d="M1006.4 1102.35C1005.93 1102.35 1005.49 1102.16 1005.16 1101.84C1004.83 1101.51 1004.65 1101.06 1004.65 1100.6V997.004C1004.65 996.54 1004.83 996.094 1005.16 995.766C1005.49 995.437 1005.93 995.253 1006.4 995.253C1006.86 995.253 1007.31 995.437 1007.64 995.766C1007.96 996.094 1008.15 996.54 1008.15 997.004V1100.6C1008.15 1101.06 1007.96 1101.51 1007.64 1101.84C1007.31 1102.16 1006.86 1102.35 1006.4 1102.35Z" fill="#FFB8B8"/>
<path d="M1022.8 977.105C1022.8 965.028 1014.97 955.237 1005.31 955.237C995.659 955.237 987.833 965.028 987.833 977.105C987.833 987.292 993.408 995.826 1000.94 998.257V1001.16H1009.69V998.257C1017.22 995.826 1022.8 987.291 1022.8 977.105Z" fill="#99FF12"/>
<path d="M1370.27 1175.09H129.084C128.531 1175.09 128.001 1174.87 127.61 1174.48C127.22 1174.09 127 1173.55 127 1173C127 1172.45 127.22 1171.92 127.61 1171.53C128.001 1171.14 128.531 1170.92 129.084 1170.92H1370.27C1370.82 1170.92 1371.35 1171.14 1371.74 1171.53C1372.13 1171.92 1372.35 1172.45 1372.35 1173C1372.35 1173.55 1372.13 1174.09 1371.74 1174.48C1371.35 1174.87 1370.82 1175.09 1370.27 1175.09Z" fill="#FFB8B8"/>
<path d="M1095.52 1171.36L1091.54 1171.36L1089.64 1155.99H1095.52V1171.36Z" fill="#FFB8B8"/>
<path d="M1088.13 1170.22H1096.37V1175.05H1083.86V1174.49C1083.86 1173.93 1083.97 1173.37 1084.19 1172.85C1084.4 1172.34 1084.71 1171.86 1085.11 1171.47C1085.51 1171.07 1085.98 1170.76 1086.49 1170.54C1087.01 1170.33 1087.57 1170.22 1088.13 1170.22Z" fill="#2F2E41"/>
<path d="M1124.4 1166.84L1120.78 1168.5L1112.68 1155.31L1118.02 1152.87L1124.4 1166.84Z" fill="#FFB8B8"/>
<path d="M1117.2 1168.88L1124.7 1165.45L1126.71 1169.85L1115.33 1175.05L1115.09 1174.54C1114.86 1174.03 1114.73 1173.48 1114.71 1172.92C1114.69 1172.36 1114.78 1171.8 1114.98 1171.27C1115.17 1170.75 1115.47 1170.27 1115.85 1169.86C1116.23 1169.45 1116.69 1169.11 1117.2 1168.88Z" fill="#2F2E41"/>
<path d="M1095.26 1167.31H1091.46C1091.09 1167.3 1090.74 1167.16 1090.47 1166.91C1090.2 1166.66 1090.03 1166.32 1090 1165.95L1087.93 1110.54C1087.92 1110.32 1087.95 1110.11 1088.02 1109.91C1088.1 1109.71 1088.22 1109.53 1088.37 1109.38C1088.52 1109.24 1088.7 1109.12 1088.9 1109.05C1089.1 1108.98 1089.32 1108.96 1089.53 1108.98L1111.52 1111.31C1111.88 1111.35 1112.21 1111.51 1112.45 1111.78C1112.69 1112.04 1112.83 1112.38 1112.84 1112.74L1113.3 1137.18C1113.3 1137.32 1113.33 1137.45 1113.38 1137.57L1122.4 1160.98C1122.47 1161.16 1122.5 1161.35 1122.49 1161.55C1122.49 1161.74 1122.44 1161.93 1122.36 1162.11C1122.28 1162.29 1122.17 1162.44 1122.03 1162.58C1121.89 1162.71 1121.72 1162.81 1121.54 1162.88L1117.69 1164.3C1117.35 1164.42 1116.98 1164.42 1116.65 1164.29C1116.32 1164.16 1116.04 1163.91 1115.88 1163.6L1104.8 1142.03C1104.74 1141.92 1104.7 1141.79 1104.67 1141.66L1102.78 1132.53C1102.72 1132.27 1102.57 1132.03 1102.36 1131.87C1102.15 1131.7 1101.88 1131.62 1101.61 1131.63C1101.34 1131.64 1101.09 1131.75 1100.89 1131.93C1100.69 1132.12 1100.56 1132.37 1100.53 1132.64L1096.72 1166.01C1096.67 1166.37 1096.5 1166.7 1096.24 1166.93C1095.97 1167.17 1095.62 1167.31 1095.26 1167.31Z" fill="#2F2E41"/>
<path d="M1097.16 1067.21C1101.56 1067.21 1105.13 1063.64 1105.13 1059.23C1105.13 1054.82 1101.56 1051.25 1097.16 1051.25C1092.75 1051.25 1089.18 1054.82 1089.18 1059.23C1089.18 1063.64 1092.75 1067.21 1097.16 1067.21Z" fill="#FFB8B8"/>
<path d="M1102.65 1115.59C1097.51 1115.53 1092.48 1114.09 1088.08 1111.43C1087.85 1111.29 1087.67 1111.09 1087.55 1110.85C1087.43 1110.61 1087.37 1110.35 1087.39 1110.08L1089.33 1082.34C1089.46 1080.47 1090.02 1078.66 1090.97 1077.04C1091.92 1075.42 1093.24 1074.05 1094.81 1073.04C1096.32 1072.04 1098.03 1071.41 1099.83 1071.19C1101.62 1070.98 1103.44 1071.19 1105.13 1071.8C1105.88 1072.06 1106.59 1072.43 1107.23 1072.89C1109.3 1074.37 1110.92 1076.38 1111.92 1078.71C1112.92 1081.04 1113.27 1083.61 1112.91 1086.12C1111.49 1096.91 1113.1 1111.47 1113.29 1113.09L1113.3 1113.21L1113.2 1113.26C1109.89 1114.8 1106.3 1115.59 1102.65 1115.59Z" fill="#99FF12"/>
<path d="M1112.81 1119.56C1113.19 1119.27 1113.5 1118.9 1113.73 1118.48C1113.95 1118.06 1114.08 1117.59 1114.1 1117.11C1114.13 1116.64 1114.05 1116.16 1113.87 1115.72C1113.69 1115.28 1113.42 1114.88 1113.07 1114.55L1117.74 1103.93L1111.8 1104.94L1108.27 1114.87C1107.76 1115.49 1107.5 1116.28 1107.54 1117.09C1107.57 1117.89 1107.9 1118.65 1108.46 1119.23C1109.02 1119.81 1109.77 1120.16 1110.57 1120.22C1111.37 1120.28 1112.17 1120.04 1112.81 1119.56Z" fill="#FFB8B8"/>
<path d="M1113.25 1112.99C1113.05 1112.99 1112.85 1112.95 1112.67 1112.87C1112.48 1112.79 1112.31 1112.67 1112.18 1112.52L1110.43 1110.61C1110.26 1110.43 1110.15 1110.2 1110.09 1109.96C1110.03 1109.71 1110.04 1109.45 1110.11 1109.21L1114.1 1095.68L1108.03 1082.91C1107.76 1082.35 1107.69 1081.71 1107.84 1081.11C1107.97 1080.58 1108.26 1080.1 1108.67 1079.73C1109.07 1079.37 1109.58 1079.14 1110.12 1079.07C1110.66 1079 1111.21 1079.1 1111.7 1079.35C1112.18 1079.6 1112.58 1079.99 1112.84 1080.47L1121.05 1093.81C1121.37 1094.33 1121.56 1094.92 1121.6 1095.53C1121.64 1096.13 1121.53 1096.74 1121.28 1097.3L1114.59 1112.13C1114.49 1112.35 1114.34 1112.55 1114.14 1112.69C1113.95 1112.84 1113.73 1112.94 1113.49 1112.97C1113.41 1112.99 1113.33 1112.99 1113.25 1112.99Z" fill="#99FF12"/>
<path d="M1103.73 1066.27C1102.9 1066.41 1102.22 1065.26 1102.12 1064.45C1102.12 1063.64 1102.2 1062.84 1102.34 1062.06C1102.39 1061.64 1102.3 1061.21 1102.08 1060.85C1101.87 1060.48 1101.55 1060.2 1101.16 1060.03C1100.28 1059.78 1099.47 1060.49 1098.57 1060.4C1097.33 1060.28 1096.7 1058.82 1096.55 1057.64C1096.4 1056.45 1096.28 1055.05 1095.19 1054.38C1094.12 1053.71 1092.78 1054.19 1091.54 1054.22C1090.48 1054.2 1089.46 1053.85 1088.61 1053.22C1087.76 1052.58 1087.14 1051.69 1086.83 1050.68C1087.08 1050.75 1087.35 1050.74 1087.6 1050.64C1087.84 1050.54 1088.05 1050.37 1088.18 1050.14C1088.29 1049.89 1088.31 1049.62 1088.24 1049.36C1088.18 1049.11 1088.03 1048.88 1087.82 1048.71L1090.19 1049.88C1090.13 1049.71 1090.11 1049.54 1090.12 1049.36C1090.13 1049.19 1090.17 1049.02 1090.25 1048.86C1090.33 1048.71 1090.44 1048.57 1090.58 1048.46C1090.71 1048.35 1090.87 1048.26 1091.03 1048.21C1091.76 1048.02 1092.51 1048.02 1093.24 1048.19C1096.96 1048.77 1101.26 1048.48 1103.73 1051.32C1105.59 1053.62 1106.62 1056.48 1106.65 1059.44C1106.06 1061.86 1105.07 1064.17 1103.73 1066.27Z" fill="#2F2E41"/>
<path d="M1061.45 1079.87C1061.86 1079.63 1062.32 1079.49 1062.8 1079.45C1063.27 1079.41 1063.75 1079.48 1064.2 1079.65C1064.65 1079.81 1065.05 1080.07 1065.39 1080.41C1065.72 1080.76 1065.98 1081.16 1066.14 1081.61L1077.74 1081.53L1074.46 1086.59L1063.94 1085.89C1063.17 1086.11 1062.34 1086.04 1061.62 1085.69C1060.9 1085.34 1060.33 1084.73 1060.02 1083.99C1059.71 1083.25 1059.69 1082.42 1059.95 1081.66C1060.21 1080.9 1060.75 1080.26 1061.45 1079.87Z" fill="#FFB8B8"/>
<path d="M1067.48 1085.38C1067.44 1085.19 1067.44 1084.98 1067.48 1084.78C1067.53 1084.59 1067.61 1084.4 1067.73 1084.23L1069.24 1082.14C1069.38 1081.93 1069.58 1081.77 1069.81 1081.66C1070.04 1081.56 1070.29 1081.51 1070.54 1081.53L1084.11 1080.96L1095.85 1074.13C1096.34 1073.75 1096.95 1073.56 1097.57 1073.58C1098.12 1073.6 1098.65 1073.78 1099.08 1074.11C1099.52 1074.43 1099.85 1074.88 1100.03 1075.4C1100.21 1075.91 1100.23 1076.47 1100.08 1077C1099.94 1077.52 1099.63 1077.99 1099.22 1078.34L1087.84 1089.12C1087.4 1089.53 1086.86 1089.84 1086.27 1090C1085.69 1090.16 1085.07 1090.18 1084.48 1090.05L1068.6 1086.52C1068.36 1086.46 1068.14 1086.35 1067.96 1086.19C1067.78 1086.04 1067.63 1085.84 1067.55 1085.61C1067.52 1085.54 1067.5 1085.46 1067.48 1085.38Z" fill="#99FF12"/>
<path d="M867.994 1164.81C868.159 1164.35 868.22 1163.86 868.173 1163.37C868.126 1162.88 867.972 1162.4 867.722 1161.98C867.473 1161.56 867.133 1161.19 866.728 1160.91C866.323 1160.64 865.862 1160.45 865.377 1160.37L863.362 1148.59L858.83 1152.83L861.439 1163.37C861.358 1164.2 861.582 1165.02 862.068 1165.69C862.554 1166.36 863.269 1166.83 864.077 1167.01C864.885 1167.18 865.73 1167.06 866.452 1166.65C867.174 1166.25 867.723 1165.6 867.994 1164.81Z" fill="#FFB8B8"/>
<path d="M864.984 1159.18L860.535 1160.34C860.324 1160.4 860.099 1160.37 859.909 1160.26C859.719 1160.15 859.58 1159.97 859.519 1159.76L851.525 1131.42L849.11 1124.19C848.878 1123.49 848.825 1122.75 848.957 1122.03C849.089 1121.3 849.401 1120.63 849.865 1120.06C850.329 1119.49 850.929 1119.04 851.61 1118.77C852.291 1118.5 853.03 1118.4 853.759 1118.49C854.602 1118.59 855.398 1118.93 856.047 1119.48C856.696 1120.03 857.17 1120.76 857.411 1121.57L863.798 1143.18L865.602 1158.27C865.621 1158.44 865.59 1158.61 865.511 1158.76C865.433 1158.9 865.311 1159.03 865.162 1159.11C865.106 1159.14 865.046 1159.16 864.984 1159.18Z" fill="#99FF12"/>
<path d="M848.727 1113.7C853.261 1113.7 856.936 1110.03 856.936 1105.49C856.936 1100.95 853.261 1097.27 848.727 1097.27C844.192 1097.27 840.517 1100.95 840.517 1105.49C840.517 1110.03 844.192 1113.7 848.727 1113.7Z" fill="#FFB8B8"/>
<path d="M824.553 1217.88L820.625 1216.71L823.264 1200.99L829.061 1202.72L824.553 1217.88Z" fill="#FFB8B8"/>
<path d="M824.422 1221.99L811.757 1218.22L811.805 1218.06C811.998 1217.41 812.316 1216.81 812.742 1216.28C813.167 1215.76 813.692 1215.32 814.286 1215C814.88 1214.68 815.531 1214.48 816.203 1214.41C816.875 1214.34 817.554 1214.4 818.201 1214.59H818.202L825.937 1216.9L824.422 1221.99Z" fill="#2F2E41"/>
<path d="M867.587 1217.68L863.489 1217.68L861.539 1201.86L865.581 1201.86L867.587 1217.68Z" fill="#FFB8B8"/>
<path d="M868.631 1221.66L855.418 1221.66V1221.49C855.418 1220.81 855.551 1220.14 855.809 1219.52C856.068 1218.89 856.447 1218.33 856.924 1217.85C857.402 1217.37 857.969 1216.99 858.593 1216.73C859.217 1216.47 859.885 1216.34 860.561 1216.34H860.561L868.632 1216.34L868.631 1221.66Z" fill="#2F2E41"/>
<path d="M826.064 1213.23H821.95C821.729 1213.23 821.511 1213.18 821.312 1213.09C821.112 1213 820.935 1212.86 820.794 1212.69C820.653 1212.52 820.551 1212.32 820.495 1212.11C820.439 1211.89 820.431 1211.67 820.47 1211.45C817.847 1210.29 831.975 1142.48 835.313 1143.8L835.422 1143.64L852.232 1145.01C859.761 1160.09 864.527 1185.04 868.986 1211.09C869.041 1211.31 869.047 1211.53 869.004 1211.75C868.961 1211.97 868.87 1212.18 868.738 1212.36C868.605 1212.54 868.434 1212.68 868.238 1212.79C868.041 1212.9 867.824 1212.96 867.601 1212.97L862.978 1213.19C862.665 1213.21 862.355 1213.12 862.091 1212.96C861.828 1212.79 861.624 1212.54 861.508 1212.25L843.796 1167.93C843.761 1167.84 843.696 1167.75 843.61 1167.7C843.524 1167.64 843.422 1167.61 843.319 1167.62C843.216 1167.62 843.117 1167.65 843.034 1167.71C842.951 1167.77 842.889 1167.86 842.857 1167.96L827.485 1212.22C827.383 1212.52 827.191 1212.77 826.936 1212.95C826.681 1213.13 826.377 1213.23 826.064 1213.23Z" fill="#FFB8B8"/>
<path d="M852.584 1146.34L852.455 1146.33L834.558 1144.98L837.698 1125C838.042 1122.77 839.098 1120.71 840.708 1119.13C842.318 1117.55 844.395 1116.53 846.63 1116.23C846.767 1116.21 846.906 1116.19 847.045 1116.17C848.801 1115.94 850.587 1116.17 852.231 1116.82C853.875 1117.48 855.322 1118.55 856.433 1119.93C857.571 1121.32 858.334 1122.98 858.647 1124.74C858.961 1126.51 858.815 1128.33 858.223 1130.02L852.584 1146.34Z" fill="#99FF12"/>
<path d="M864.669 1114.89C859.023 1117.47 851.364 1117.01 842.607 1114.89C843.819 1111.57 844.763 1108.36 843.692 1106C843.259 1105.11 843.015 1104.14 842.975 1103.16C842.934 1102.17 843.098 1101.18 843.457 1100.26C844.296 1098.25 845.711 1096.54 847.522 1095.33C849.334 1094.12 851.461 1093.48 853.638 1093.48C856.563 1093.48 859.369 1094.64 861.438 1096.71C863.506 1098.78 864.668 1101.59 864.668 1104.52L864.669 1114.89Z" fill="#2F2E41"/>
<path d="M846.56 1094.23H852.635V1102.87H837.927C837.927 1101.73 838.151 1100.61 838.584 1099.56C839.018 1098.51 839.654 1097.56 840.456 1096.76C841.257 1095.96 842.209 1095.32 843.256 1094.89C844.304 1094.45 845.426 1094.23 846.56 1094.23Z" fill="#2F2E41"/>
<path d="M834.172 1166.67C834.534 1166.34 834.819 1165.93 835.007 1165.48C835.194 1165.02 835.28 1164.53 835.258 1164.04C835.236 1163.55 835.106 1163.07 834.879 1162.63C834.651 1162.2 834.331 1161.82 833.94 1161.52L837.677 1150.17L831.686 1151.79L829.056 1162.32C828.598 1163.01 828.41 1163.85 828.525 1164.67C828.641 1165.49 829.053 1166.24 829.684 1166.77C830.314 1167.31 831.12 1167.59 831.947 1167.57C832.774 1167.56 833.566 1167.24 834.172 1166.67Z" fill="#FFB8B8"/>
<path d="M834.152 1160.28L829.675 1159.23C829.463 1159.17 829.278 1159.04 829.161 1158.86C829.045 1158.67 829.004 1158.45 829.05 1158.24L835.261 1129.45L836.513 1121.93C836.634 1121.2 836.936 1120.52 837.391 1119.95C837.846 1119.37 838.439 1118.92 839.115 1118.63C839.792 1118.35 840.529 1118.24 841.259 1118.31C841.99 1118.39 842.688 1118.65 843.291 1119.07C843.989 1119.56 844.529 1120.23 844.845 1121.02C845.162 1121.81 845.24 1122.68 845.071 1123.51L840.595 1145.59L835.123 1159.77C835.061 1159.92 834.954 1160.06 834.815 1160.16C834.675 1160.25 834.511 1160.3 834.342 1160.3C834.278 1160.3 834.214 1160.29 834.152 1160.28Z" fill="#99FF12"/>
<path d="M972.508 1097.72C972.335 1097.76 972.166 1097.82 972.002 1097.89L958.551 1089.21L958.737 1085.32L952.912 1084.27L951.915 1091.12C951.835 1091.67 951.936 1092.24 952.203 1092.73C952.47 1093.22 952.89 1093.61 953.398 1093.84L969.964 1101.41C970.046 1102.09 970.334 1102.74 970.79 1103.25C971.246 1103.77 971.848 1104.13 972.516 1104.3C973.184 1104.46 973.887 1104.42 974.53 1104.17C975.173 1103.93 975.727 1103.5 976.117 1102.93C976.507 1102.36 976.716 1101.69 976.715 1101C976.714 1100.31 976.504 1099.64 976.112 1099.07C975.72 1098.51 975.165 1098.08 974.522 1097.83C973.878 1097.59 973.175 1097.55 972.508 1097.72H972.508Z" fill="#FFB8B8"/>
<path d="M958.003 1088.97L950.789 1087.63C950.584 1087.6 950.389 1087.51 950.219 1087.39C950.048 1087.27 949.905 1087.12 949.799 1086.94C949.694 1086.76 949.629 1086.56 949.608 1086.35C949.587 1086.14 949.611 1085.93 949.679 1085.73L952.046 1078.81C952.243 1077.76 952.85 1076.83 953.733 1076.22C954.616 1075.62 955.703 1075.39 956.754 1075.59C957.806 1075.78 958.735 1076.39 959.339 1077.28C959.943 1078.16 960.172 1079.25 959.975 1080.3L959.718 1087.59C959.71 1087.8 959.658 1088 959.564 1088.19C959.471 1088.38 959.338 1088.54 959.175 1088.67C959.013 1088.8 958.824 1088.9 958.621 1088.95C958.419 1089 958.208 1089 958.003 1088.97Z" fill="#3F3D56"/>
<path d="M983.086 1070.18C983.046 1070.36 983.02 1070.54 983.008 1070.71L969.144 1078.72L965.774 1076.78L962.182 1081.48L967.814 1085.5C968.269 1085.83 968.817 1085.99 969.375 1085.98C969.934 1085.97 970.473 1085.77 970.912 1085.43L985.208 1074.14C985.853 1074.38 986.556 1074.41 987.223 1074.24C987.889 1074.07 988.488 1073.7 988.94 1073.19C989.391 1072.67 989.674 1072.02 989.751 1071.34C989.828 1070.65 989.694 1069.96 989.369 1069.35C989.043 1068.75 988.541 1068.26 987.928 1067.94C987.316 1067.63 986.623 1067.51 985.941 1067.6C985.259 1067.69 984.62 1067.98 984.11 1068.45C983.6 1068.91 983.243 1069.51 983.086 1070.19L983.086 1070.18Z" fill="#FFB8B8"/>
<path d="M968.681 1079.1L964.2 1084.91C964.072 1085.07 963.91 1085.21 963.726 1085.31C963.541 1085.41 963.338 1085.46 963.129 1085.47C962.921 1085.48 962.712 1085.45 962.518 1085.37C962.324 1085.3 962.149 1085.18 962.004 1085.03L956.931 1079.76C956.086 1079.1 955.536 1078.14 955.402 1077.07C955.269 1076.01 955.562 1074.94 956.218 1074.09C956.874 1073.25 957.839 1072.7 958.9 1072.57C959.962 1072.43 961.033 1072.73 961.878 1073.38L968.24 1076.94C968.422 1077.04 968.58 1077.18 968.703 1077.35C968.826 1077.52 968.912 1077.71 968.954 1077.92C968.995 1078.12 968.993 1078.33 968.946 1078.54C968.898 1078.74 968.808 1078.93 968.681 1079.1V1079.1Z" fill="#FFB8B8"/>
<path d="M950.331 1065.22C954.709 1065.22 958.258 1061.67 958.258 1057.29C958.258 1052.91 954.709 1049.36 950.331 1049.36C945.953 1049.36 942.404 1052.91 942.404 1057.29C942.404 1061.67 945.953 1065.22 950.331 1065.22Z" fill="#FFB8B8"/>
<path d="M957.814 1170.87H961.771L963.652 1155.6H957.813L957.814 1170.87Z" fill="#FFB8B8"/>
<path d="M956.804 1169.58L964.597 1169.58H964.597C965.249 1169.58 965.895 1169.71 966.497 1169.96C967.1 1170.21 967.647 1170.57 968.108 1171.03C968.57 1171.5 968.935 1172.04 969.185 1172.65C969.434 1173.25 969.563 1173.9 969.563 1174.55V1174.71L956.804 1174.71L956.804 1169.58Z" fill="#2F2E41"/>
<path d="M944.258 1170.87H948.214L950.097 1155.6H944.258V1170.87Z" fill="#FFB8B8"/>
<path d="M943.249 1169.58L951.041 1169.58H951.041C951.693 1169.58 952.339 1169.71 952.942 1169.96C953.544 1170.21 954.092 1170.57 954.553 1171.03C955.014 1171.5 955.38 1172.04 955.629 1172.65C955.879 1173.25 956.007 1173.9 956.007 1174.55V1174.71L943.249 1174.71L943.249 1169.58Z" fill="#2F2E41"/>
<path d="M956.626 1165.07L952.59 1133.83C952.588 1133.78 952.57 1133.74 952.539 1133.72C952.509 1133.69 952.468 1133.67 952.427 1133.67C952.406 1133.67 952.385 1133.68 952.366 1133.68C952.346 1133.69 952.329 1133.7 952.314 1133.72C952.299 1133.73 952.287 1133.75 952.279 1133.77C952.272 1133.79 952.268 1133.81 952.268 1133.83L951.108 1164.63C951.095 1165 950.936 1165.36 950.665 1165.62C950.394 1165.88 950.033 1166.03 949.657 1166.02H944.864C944.484 1166.03 944.119 1165.88 943.847 1165.61C943.575 1165.35 943.419 1164.99 943.412 1164.61L942.168 1113.3L963.616 1113.51L964.152 1164.99C964.147 1165.19 964.099 1165.39 964.011 1165.58C963.924 1165.76 963.798 1165.93 963.642 1166.06C963.49 1166.19 963.312 1166.29 963.12 1166.35C962.928 1166.4 962.725 1166.42 962.526 1166.39L957.878 1166.41C957.549 1166.36 957.245 1166.2 957.017 1165.96C956.789 1165.72 956.651 1165.41 956.626 1165.07Z" fill="#2F2E41"/>
<path d="M941.85 1114.7C941.61 1114.61 941.399 1114.45 941.238 1114.25C941.077 1114.05 940.972 1113.81 940.934 1113.56L940.719 1085.36C939.772 1079.08 938.65 1072.93 944.136 1069.75L944.619 1068.3C944.672 1068.14 944.771 1068 944.904 1067.9C945.037 1067.81 945.197 1067.75 945.362 1067.74L955.768 1067.45C955.93 1067.44 956.09 1067.49 956.226 1067.57C956.363 1067.66 956.47 1067.79 956.533 1067.94L957.307 1069.74L957.582 1069.9C960.196 1071.39 962.313 1073.62 963.668 1076.31C965.022 1079 965.554 1082.03 965.198 1085.02L964.603 1090.05L964.18 1113.54C964.175 1113.8 964.101 1114.05 963.968 1114.27C963.834 1114.49 963.644 1114.67 963.418 1114.79C960.475 1116.33 957.193 1117.09 953.877 1117.02C949.764 1116.94 945.696 1116.16 941.85 1114.7Z" fill="#FFB8B8"/>
<path d="M950.073 1065.52C948.88 1065.54 947.695 1065.31 946.596 1064.85C945.496 1064.38 944.508 1063.69 943.696 1062.82C942.883 1061.94 942.265 1060.9 941.881 1059.77C941.497 1058.64 941.357 1057.44 941.47 1056.26C941.583 1055.07 941.945 1053.91 942.534 1052.88C943.123 1051.84 943.925 1050.94 944.887 1050.23C945.849 1049.52 946.95 1049.03 948.117 1048.78C949.284 1048.53 950.49 1048.53 951.657 1048.78C953.374 1047.65 955.405 1047.09 957.459 1047.19C958.48 1047.25 959.465 1047.59 960.309 1048.17C961.154 1048.74 961.828 1049.54 962.259 1050.47C962.642 1051.42 962.655 1052.47 962.295 1053.43C961.934 1054.39 961.227 1055.17 960.313 1055.63C959.051 1055.99 957.715 1056.01 956.443 1055.68C955.166 1055.36 953.816 1055.48 952.616 1056.02C951.492 1056.69 950.986 1058.48 951.993 1059.31C952.527 1059.77 952.908 1060.38 953.086 1061.07C953.264 1061.75 953.23 1062.47 952.989 1063.13C952.752 1063.75 952.359 1064.29 951.847 1064.71C951.336 1065.13 950.724 1065.41 950.073 1065.52Z" fill="#2F2E41"/>
<path d="M490.39 1217.53H494.247L496.081 1202.65H490.388L490.39 1217.53Z" fill="#FFB8B8"/>
<path d="M488.689 1221.99L488.689 1215.55L497 1215.55C498.474 1215.55 499.886 1216.14 500.928 1217.18C501.97 1218.23 502.556 1219.64 502.558 1221.11V1221.99L488.689 1221.99Z" fill="#2F2E41"/>
<path d="M469.605 1217.53H473.46L475.294 1202.65H469.603L469.605 1217.53Z" fill="#FFB8B8"/>
<path d="M467.903 1221.99L467.903 1215.55L476.215 1215.55C477.688 1215.55 479.101 1216.14 480.143 1217.18C481.185 1218.23 481.771 1219.64 481.773 1221.11V1221.99L467.903 1221.99Z" fill="#2F2E41"/>
<path d="M480.898 1111.72C485.473 1111.72 489.183 1108 489.183 1103.43C489.183 1098.85 485.473 1095.14 480.898 1095.14C476.322 1095.14 472.613 1098.85 472.613 1103.43C472.613 1108 476.322 1111.72 480.898 1111.72Z" fill="#FFB8B8"/>
<path d="M509.226 1157.49C509.168 1157.04 509.011 1156.6 508.764 1156.2C508.518 1155.81 508.188 1155.48 507.799 1155.23C507.41 1154.98 506.971 1154.82 506.513 1154.75C506.055 1154.69 505.589 1154.73 505.147 1154.87L500.517 1149.31L496.458 1151.31L503.107 1159.06C503.387 1159.79 503.924 1160.38 504.616 1160.74C505.308 1161.1 506.106 1161.19 506.861 1161C507.615 1160.8 508.272 1160.34 508.708 1159.7C509.144 1159.05 509.329 1158.27 509.226 1157.49Z" fill="#FFB8B8"/>
<path d="M469.378 1163.11C469.576 1162.69 469.679 1162.24 469.681 1161.77C469.682 1161.31 469.583 1160.85 469.389 1160.43C469.195 1160.01 468.911 1159.64 468.558 1159.34C468.205 1159.04 467.79 1158.83 467.344 1158.71L466.414 1151.53L461.921 1151.04L463.376 1161.15C463.222 1161.91 463.354 1162.7 463.747 1163.38C464.139 1164.05 464.765 1164.56 465.504 1164.8C466.244 1165.04 467.047 1165 467.761 1164.69C468.475 1164.38 469.051 1163.82 469.378 1163.11H469.378Z" fill="#FFB8B8"/>
<path d="M473.974 1119.09C473.534 1118.52 472.952 1118.08 472.287 1117.81C471.622 1117.54 470.898 1117.45 470.189 1117.55C469.479 1117.65 468.808 1117.94 468.243 1118.38C467.679 1118.82 467.242 1119.41 466.975 1120.07L460.184 1137.03C459.49 1138.77 459.269 1140.65 459.543 1142.5L461.755 1157.41C461.784 1157.6 461.853 1157.78 461.959 1157.94C462.066 1158.11 462.206 1158.25 462.37 1158.35C462.534 1158.45 462.719 1158.52 462.912 1158.55C463.104 1158.57 463.3 1158.55 463.486 1158.5L466.4 1157.6C466.702 1157.51 466.961 1157.31 467.134 1157.05C467.306 1156.78 467.381 1156.47 467.344 1156.15C466.315 1147.38 467.675 1138.49 471.278 1130.42L474.479 1123.26C474.781 1122.58 474.894 1121.84 474.805 1121.1C474.716 1120.37 474.429 1119.67 473.974 1119.09Z" fill="#FFB8B8"/>
<path d="M478.881 1111.72C477.634 1111.74 476.395 1111.51 475.247 1111.02C474.098 1110.53 473.065 1109.81 472.216 1108.9C471.367 1107.98 470.721 1106.9 470.32 1105.72C469.919 1104.53 469.772 1103.28 469.89 1102.04C470.008 1100.8 470.387 1099.59 471.002 1098.51C471.618 1097.42 472.456 1096.48 473.461 1095.74C474.467 1095 475.617 1094.49 476.837 1094.22C478.056 1093.96 479.317 1093.96 480.537 1094.22C482.332 1093.04 484.454 1092.46 486.6 1092.56C487.667 1092.63 488.697 1092.98 489.579 1093.59C490.462 1094.19 491.166 1095.02 491.617 1095.99C492.018 1096.98 492.031 1098.09 491.654 1099.08C491.278 1100.08 490.538 1100.91 489.584 1101.38C488.265 1101.76 486.868 1101.78 485.538 1101.44C484.204 1101.1 482.793 1101.22 481.539 1101.79C480.364 1102.49 479.835 1104.36 480.888 1105.23C481.446 1105.71 481.844 1106.35 482.03 1107.07C482.216 1107.78 482.181 1108.53 481.928 1109.22C481.681 1109.87 481.27 1110.44 480.736 1110.88C480.201 1111.31 479.562 1111.6 478.881 1111.72Z" fill="#2F2E41"/>
<path d="M468.602 1157.17L467.132 1212.98C467.127 1213.16 467.161 1213.35 467.231 1213.52C467.301 1213.69 467.406 1213.85 467.539 1213.98C467.672 1214.11 467.83 1214.21 468.004 1214.28C468.178 1214.34 468.364 1214.37 468.55 1214.36L473.391 1214.12C473.7 1214.1 473.994 1213.98 474.224 1213.77C474.454 1213.56 474.606 1213.28 474.655 1212.98L480.413 1176.73C480.438 1176.57 480.515 1176.43 480.633 1176.33C480.751 1176.22 480.901 1176.16 481.058 1176.16C481.215 1176.16 481.369 1176.21 481.493 1176.3C481.617 1176.4 481.703 1176.53 481.738 1176.69L489.532 1211.59C489.574 1211.78 489.654 1211.95 489.769 1212.1C489.884 1212.26 490.029 1212.38 490.196 1212.48C490.364 1212.57 490.549 1212.63 490.739 1212.64C490.929 1212.66 491.121 1212.63 491.301 1212.57L496.105 1212.27C496.383 1212.17 496.621 1211.99 496.783 1211.74C496.944 1211.49 497.02 1211.2 496.999 1210.91L492.805 1156.64L468.602 1157.17Z" fill="#FFB8B8"/>
<path d="M466.243 1130.66C466.038 1128.65 466.235 1126.61 466.824 1124.68C467.413 1122.74 468.382 1120.95 469.674 1119.39C470.966 1117.83 472.554 1116.55 474.347 1115.62C476.14 1114.68 478.101 1114.12 480.116 1113.95C483.765 1113.69 489.43 1113.6 491.297 1118.38C496.923 1132.8 487.075 1132.45 490.468 1144.94C493.861 1157.44 496.857 1158.15 492.202 1159.05C487.546 1159.96 466.611 1165.28 467.471 1156.49C467.999 1151.08 467.052 1139.1 466.243 1130.66Z" fill="#FFB8B8"/>
<path d="M490.301 1116.92C489.632 1116.66 488.907 1116.58 488.199 1116.69C487.49 1116.8 486.824 1117.1 486.266 1117.55C485.709 1118 485.28 1118.59 485.024 1119.26C484.767 1119.93 484.692 1120.66 484.805 1121.37L487.449 1137.9C487.901 1140.73 489.096 1143.39 490.912 1145.6L499.499 1156.07C499.623 1156.22 499.777 1156.35 499.952 1156.43C500.126 1156.52 500.317 1156.56 500.511 1156.57C500.706 1156.57 500.899 1156.53 501.077 1156.46C501.255 1156.38 501.415 1156.26 501.545 1156.12L503.585 1153.85C503.796 1153.62 503.918 1153.32 503.93 1153C503.943 1152.69 503.844 1152.38 503.651 1152.13L503.05 1151.35C498.054 1144.86 494.902 1137.14 493.928 1129.01L492.877 1120.24C492.788 1119.5 492.502 1118.8 492.048 1118.22C491.595 1117.63 490.991 1117.18 490.301 1116.92Z" fill="#FFB8B8"/>
<path d="M509.621 1161.34C510.046 1161.13 510.42 1160.82 510.716 1160.45C511.011 1160.08 511.222 1159.65 511.333 1159.19C511.444 1158.72 511.452 1158.24 511.357 1157.78C511.262 1157.31 511.066 1156.87 510.783 1156.49L513.212 1132.72H507.962L506.031 1155.93C505.422 1156.45 505.024 1157.17 504.912 1157.96C504.801 1158.76 504.983 1159.56 505.426 1160.23C505.868 1160.9 506.54 1161.38 507.313 1161.58C508.086 1161.79 508.907 1161.7 509.621 1161.34V1161.34Z" fill="#FFB8B8"/>
<path d="M514.442 1119.6C518.544 1119.6 521.87 1116.27 521.87 1112.17C521.87 1108.06 518.544 1104.73 514.442 1104.73C510.339 1104.73 507.014 1108.06 507.014 1112.17C507.014 1116.27 510.339 1119.6 514.442 1119.6Z" fill="#FFB8B8"/>
<path d="M515.84 1146.56C515.543 1146.56 515.254 1146.46 515.017 1146.28C514.781 1146.1 514.61 1145.85 514.531 1145.56C513.284 1141.82 511.745 1138.19 509.929 1134.69C509.374 1133.55 509.067 1132.3 509.028 1131.03C508.988 1129.76 509.217 1128.5 509.7 1127.33C510.182 1126.15 510.908 1125.09 511.828 1124.22C512.749 1123.34 513.843 1122.67 515.04 1122.25C516.175 1121.85 517.378 1121.68 518.579 1121.76C519.78 1121.83 520.954 1122.14 522.032 1122.68C523.11 1123.21 524.07 1123.96 524.854 1124.87C525.639 1125.78 526.233 1126.84 526.601 1127.99C527.996 1132.81 528.566 1137.84 528.287 1142.85C528.271 1143.15 528.158 1143.43 527.965 1143.66C527.772 1143.89 527.509 1144.04 527.218 1144.11L516.132 1146.53C516.036 1146.55 515.938 1146.56 515.84 1146.56Z" fill="#99FF12"/>
<path d="M526.576 1217.15H530.284L532.048 1202.84H526.574L526.576 1217.15Z" fill="#FFB8B8"/>
<path d="M538.309 1221.47H524.906L524.906 1215.21H532.933C533.639 1215.21 534.339 1215.35 534.991 1215.62C535.643 1215.89 536.236 1216.29 536.735 1216.79C537.234 1217.29 537.63 1217.88 537.9 1218.54C538.17 1219.19 538.309 1219.89 538.309 1220.59L538.309 1221.47Z" fill="#2F2E41"/>
<path d="M489.499 1212.34L492.749 1214.13L501.185 1202.44L496.39 1199.8L489.499 1212.34Z" fill="#FFB8B8"/>
<path d="M497.702 1221.78L485.957 1215.32L488.969 1209.84L496.002 1213.71C497.252 1214.4 498.177 1215.55 498.575 1216.92C498.973 1218.29 498.811 1219.77 498.124 1221.02L497.702 1221.78Z" fill="#2F2E41"/>
<path d="M526.402 1209.21C526.072 1209.21 525.753 1209.08 525.505 1208.87C525.257 1208.65 525.097 1208.35 525.054 1208.02L520.417 1172.26C520.397 1172.1 520.327 1171.96 520.217 1171.84C520.108 1171.72 519.965 1171.64 519.808 1171.62C519.652 1171.59 519.49 1171.61 519.346 1171.67C519.201 1171.74 519.082 1171.85 519.005 1171.99L499.68 1207.08C499.521 1207.37 499.264 1207.59 498.956 1207.7C498.649 1207.81 498.311 1207.81 498.004 1207.7L493.792 1206.09C493.622 1206.02 493.467 1205.93 493.336 1205.8C493.205 1205.68 493.1 1205.53 493.028 1205.36C492.956 1205.19 492.918 1205.01 492.915 1204.83C492.913 1204.65 492.947 1204.47 493.016 1204.3L506.403 1171.39C506.436 1171.31 506.459 1171.22 506.471 1171.13C508.284 1157.09 512.897 1149.95 514.268 1148.09C514.368 1147.96 514.434 1147.8 514.46 1147.63C514.486 1147.46 514.472 1147.29 514.418 1147.13L514.23 1146.57C514.154 1146.34 514.139 1146.1 514.185 1145.87C514.231 1145.64 514.337 1145.42 514.492 1145.24C519.431 1139.61 528.039 1142.68 528.126 1142.72L528.169 1142.73L528.196 1142.77C537.849 1156.02 534.28 1199.05 533.466 1207.54C533.436 1207.86 533.294 1208.15 533.065 1208.38C532.836 1208.6 532.535 1208.74 532.216 1208.76L526.508 1209.2C526.473 1209.2 526.437 1209.21 526.402 1209.21Z" fill="#FFB8B8"/>
<path d="M543.319 1120.8C543.282 1120.97 543.258 1121.13 543.247 1121.3L530.255 1128.8L527.097 1126.98L523.731 1131.39L529.008 1135.15C529.435 1135.46 529.948 1135.62 530.472 1135.6C530.995 1135.59 531.5 1135.41 531.911 1135.08L545.308 1124.51C545.912 1124.73 546.571 1124.77 547.195 1124.61C547.82 1124.45 548.381 1124.1 548.805 1123.61C549.228 1123.13 549.493 1122.52 549.565 1121.88C549.637 1121.24 549.512 1120.59 549.207 1120.02C548.902 1119.46 548.431 1118.99 547.857 1118.7C547.283 1118.41 546.633 1118.29 545.994 1118.38C545.355 1118.46 544.757 1118.74 544.279 1119.17C543.801 1119.61 543.466 1120.17 543.319 1120.8Z" fill="#FFB8B8"/>
<path d="M529.821 1129.15L525.622 1134.6C525.502 1134.76 525.351 1134.88 525.178 1134.97C525.005 1135.06 524.814 1135.12 524.619 1135.13C524.423 1135.14 524.228 1135.11 524.046 1135.04C523.864 1134.96 523.7 1134.85 523.564 1134.71L518.811 1129.77C518.022 1129.16 517.511 1128.25 517.387 1127.26C517.264 1126.27 517.539 1125.26 518.152 1124.47C518.766 1123.68 519.667 1123.17 520.66 1123.04C521.652 1122.91 522.654 1123.19 523.446 1123.8L529.408 1127.13C529.578 1127.23 529.727 1127.36 529.842 1127.52C529.957 1127.68 530.037 1127.86 530.077 1128.05C530.116 1128.24 530.113 1128.44 530.069 1128.63C530.025 1128.82 529.94 1129 529.821 1129.15H529.821Z" fill="#99FF12"/>
<path d="M513.546 1138.62L506.782 1137.39C506.59 1137.36 506.407 1137.28 506.247 1137.17C506.086 1137.06 505.952 1136.91 505.852 1136.75C505.753 1136.58 505.691 1136.39 505.671 1136.19C505.65 1136 505.672 1135.8 505.735 1135.62L507.927 1129.12C508.111 1128.14 508.677 1127.26 509.501 1126.7C510.326 1126.13 511.341 1125.91 512.326 1126.09C513.31 1126.27 514.182 1126.84 514.751 1127.66C515.321 1128.49 515.54 1129.5 515.362 1130.49L515.149 1137.32C515.142 1137.51 515.094 1137.71 515.007 1137.88C514.92 1138.06 514.796 1138.21 514.644 1138.33C514.492 1138.46 514.315 1138.55 514.126 1138.6C513.937 1138.64 513.739 1138.65 513.546 1138.62Z" fill="#99FF12"/>
<path d="M515.617 1110.46C517.526 1111.77 520.033 1113.11 521.983 1111.72C522.593 1111.25 523.036 1110.6 523.246 1109.86C523.456 1109.13 523.422 1108.34 523.148 1107.62C522.214 1104.95 519.649 1103.78 517.196 1102.87C514.079 1101.47 510.612 1101.02 507.242 1101.61C503.95 1102.45 501.041 1105.64 501.635 1108.99C502.113 1111.68 504.65 1113.92 504.29 1116.63C503.928 1119.35 500.862 1120.79 498.156 1121.28C495.45 1121.77 492.422 1121.92 490.477 1123.87C487.997 1126.35 488.616 1130.78 490.95 1133.4C493.501 1135.85 496.734 1137.46 500.221 1138.02C504.744 1139.09 509.636 1139.65 513.931 1137.87C518.227 1136.1 521.569 1131.32 520.325 1126.84C519.67 1124.98 518.665 1123.27 517.365 1121.79C516.064 1120.31 515.088 1118.58 514.5 1116.69C514.289 1115.9 514.266 1115.07 514.432 1114.26C514.598 1113.46 514.948 1112.7 515.456 1112.06C515.648 1111.85 515.769 1111.59 515.801 1111.3C515.833 1111.02 515.775 1110.74 515.636 1110.49L515.617 1110.46Z" fill="#2F2E41"/>
<circle cx="485" cy="1105.99" r="1" fill="black"/>
<circle cx="519" cy="1114.99" r="1" fill="black"/>
<circle cx="842" cy="1105.99" r="1" fill="black"/>
<circle cx="956" cy="1058.99" r="1" fill="black"/>
<circle cx="1092" cy="1059.99" r="1" fill="black"/>
<path d="M432.941 774.613C432.408 774.638 431.879 774.498 431.428 774.212C430.976 773.926 430.624 773.508 430.418 773.016C430.212 772.523 430.162 771.978 430.276 771.456C430.389 770.934 430.661 770.46 431.053 770.097L431.231 769.387C431.208 769.33 431.184 769.274 431.16 769.217C428.762 763.497 413.455 779.442 412.793 784.818C412.501 787.194 412.624 789.603 413.156 791.937C408.198 781.122 405.623 769.366 405.607 757.468C405.606 754.482 405.771 751.499 406.104 748.532C406.378 746.099 406.759 743.684 407.246 741.286C409.903 728.276 415.609 716.082 423.894 705.705C428.633 705.969 432.786 705.247 433.187 696.064C433.258 694.43 434.47 693.016 434.737 691.407C434.284 691.466 433.824 691.503 433.372 691.533C433.231 691.54 433.083 691.547 432.942 691.555L432.889 691.557C432.392 691.58 431.899 691.458 431.469 691.206C431.04 690.955 430.692 690.585 430.468 690.14C430.244 689.696 430.153 689.196 430.206 688.702C430.26 688.207 430.455 687.738 430.769 687.351C430.964 687.111 431.159 686.871 431.355 686.631C431.652 686.26 431.956 685.896 432.252 685.526C432.286 685.49 432.319 685.453 432.349 685.414C432.69 684.992 433.031 684.576 433.372 684.154C432.749 683.187 431.912 682.378 430.925 681.788C427.506 679.786 422.789 681.173 420.32 684.265C417.843 687.357 417.376 691.696 418.236 695.559C419.082 698.847 420.481 701.967 422.374 704.785C422.189 705.022 421.996 705.252 421.811 705.489C418.421 709.847 415.468 714.527 412.991 719.461C413.692 713.989 405.125 694.226 401.812 690.039C397.832 685.011 389.671 687.206 388.97 693.58C388.964 693.641 388.957 693.703 388.95 693.765C389.443 694.042 389.924 694.337 390.396 694.649C390.988 695.044 391.446 695.61 391.712 696.27C391.977 696.931 392.037 697.657 391.883 698.352C391.729 699.047 391.368 699.68 390.849 700.167C390.329 700.654 389.674 700.972 388.971 701.081L388.899 701.092C382.311 710.497 403.428 734.976 408.714 729.48C406.226 736.531 404.666 743.875 404.072 751.327C403.735 755.724 403.755 760.141 404.131 764.535L404.109 764.379C402.934 754.81 382.786 740.581 376.903 741.767C373.513 742.449 370.175 742.294 370.69 745.713C370.698 745.768 370.706 745.822 370.715 745.877C371.628 746.249 372.517 746.677 373.377 747.16C373.869 747.437 374.351 747.732 374.822 748.044C375.414 748.439 375.873 749.005 376.138 749.665C376.404 750.326 376.463 751.052 376.309 751.747C376.155 752.442 375.795 753.075 375.275 753.562C374.756 754.048 374.101 754.367 373.397 754.476L373.325 754.487C373.273 754.494 373.229 754.502 373.177 754.509C370.178 764.826 392.415 781.476 405.933 776.178H405.94C407.28 782 409.221 787.666 411.732 793.087H432.423C432.497 792.857 432.564 792.619 432.63 792.39C430.715 792.51 428.793 792.395 426.905 792.049C428.44 790.165 429.976 788.266 431.511 786.383C431.545 786.347 431.577 786.31 431.607 786.271C432.386 785.307 433.172 784.351 433.95 783.387L433.951 783.385C433.992 780.43 433.653 777.482 432.942 774.614L432.941 774.613ZM409.248 728.004L409.259 727.99L409.248 728.019V728.004ZM404.665 769.319L404.487 768.918C404.494 768.629 404.494 768.34 404.487 768.043C404.487 767.961 404.472 767.88 404.472 767.798C404.539 768.31 404.598 768.822 404.672 769.333L404.665 769.319Z" fill="#99FF12"/>
<path d="M755.087 317.715C755.102 327.47 751.419 336.869 744.778 344.016C744.275 344.565 743.744 345.096 743.204 345.608C723.196 330.208 702.211 316.12 680.383 303.431C680.653 302.747 680.941 302.072 681.255 301.407C684.97 293.41 691.302 286.921 699.206 283.012C707.109 279.104 716.11 278.01 724.72 279.911C733.33 281.813 741.032 286.596 746.554 293.471C752.076 300.345 755.086 308.898 755.087 317.715Z" fill="#FFB8B8"/>
<path d="M786.488 396.511L786.452 396.916C760.987 395.162 735.525 393.405 710.066 391.645C691.672 390.377 672.638 388.938 656.384 380.23C650.213 376.929 644.205 372.522 637.206 372.216C628.526 371.829 620.952 377.901 614.998 384.233C579.8 421.725 569.609 479.05 530.12 511.981C555.026 450.564 584.76 391.217 619.046 334.499C625.378 324.02 632.889 312.83 644.646 309.412C655.862 306.147 667.34 310.914 677.666 317.031C679.879 318.344 682.038 319.721 684.125 321.088C700.037 331.504 715.688 342.319 731.079 353.533C749.978 367.286 768.447 381.613 786.488 396.511Z" fill="#99FF12"/>
<path d="M868.847 476.028C841.629 437.608 810.006 402.508 774.624 371.442C764.451 362.501 753.977 353.89 743.204 345.608C723.196 330.208 702.212 316.12 680.383 303.431C673.223 299.275 665.979 295.284 658.651 291.458C652.957 288.499 646.894 285.791 640.328 286.214C635.734 286.607 631.346 288.294 627.672 291.08C619.603 296.972 614.26 306.174 609.862 314.944C606.012 322.635 602.423 330.479 598.762 338.277C597.206 341.597 595.649 344.907 594.039 348.199C588.426 359.731 582.682 371.199 576.805 382.605C569.231 397.303 561.438 411.89 553.427 426.366C536.597 456.796 518.838 486.678 500.149 516.011C472.678 559.124 443.288 600.93 411.979 641.429C408.139 646.385 406.555 647.536 402.661 652.457C401.761 653.608 400.16 651.989 401.051 650.847C433.532 609.793 461.812 571.007 490.326 527.093C511.825 493.982 532.141 460.136 551.277 425.556C557.42 414.466 563.435 403.306 569.321 392.077C578.847 373.898 588.043 355.548 596.909 337.027C599.247 332.152 601.562 327.258 603.853 322.347C611.13 306.759 621.726 283.578 642.19 283.893C648.208 283.983 653.794 286.421 659.065 289.119C664.435 291.881 669.706 294.813 674.968 297.791C677.073 298.978 679.169 300.183 681.255 301.407C689.522 306.21 697.665 311.214 705.686 316.419C719.071 325.1 732.101 334.299 744.778 344.016C750.796 348.631 756.724 353.35 762.562 358.174C799.192 388.48 832.127 422.992 860.689 460.997C864.134 465.575 867.507 470.205 870.808 474.885C871.654 476.082 869.684 477.215 868.847 476.028Z" fill="#E4E4E4"/>
<path d="M776.65 359.994C777.839 358.668 779.02 357.343 780.217 356.017C789.655 345.58 799.781 335.264 812.741 329.28C818.92 326.337 825.666 324.773 832.51 324.698C839.571 324.892 846.534 326.41 853.035 329.174C856.126 330.409 859.148 331.81 862.124 333.302C865.525 335.014 868.866 336.839 872.191 338.68C878.432 342.134 884.592 345.739 890.672 349.496C902.768 356.971 914.485 365.018 925.824 373.635C931.701 378.104 937.458 382.719 943.093 387.48C948.334 391.904 953.47 396.446 958.499 401.106C959.574 402.099 961.18 400.493 960.105 399.501C958.779 398.266 957.439 397.039 956.098 395.827C952.311 392.404 948.463 389.046 944.555 385.753C937.428 379.739 930.116 373.958 922.62 368.408C910.963 359.774 898.905 351.725 886.446 344.262C880.219 340.535 873.908 336.965 867.51 333.552C865.578 332.522 863.624 331.515 861.647 330.56C857.162 328.298 852.501 326.4 847.711 324.887C840.925 322.692 833.745 321.987 826.662 322.819C819.823 323.814 813.234 326.094 807.242 329.538C794.517 336.65 784.648 347.648 775.044 358.38C774.074 359.471 775.673 361.084 776.65 359.994Z" fill="#99FF12"/>
<path d="M515.928 468.151L485.437 456.999L470.298 451.462C465.407 449.493 460.418 447.774 455.352 446.314C450.922 445.049 446.219 445.109 441.823 446.487C437.903 447.937 434.315 450.162 431.272 453.027C428.163 455.89 425.27 458.98 422.617 462.27C419.321 466.231 416.074 470.234 412.812 474.223C399.349 490.687 385.975 507.223 372.688 523.83C359.402 540.437 346.205 557.114 333.096 573.863C319.955 590.652 306.905 607.511 293.945 624.44C292.358 626.514 290.771 628.589 289.187 630.665C288.311 631.812 286.336 630.681 287.224 629.518C300.28 612.418 313.426 595.389 326.664 578.429C339.934 561.429 353.296 544.501 366.749 527.645C380.202 510.789 393.746 494.007 407.381 477.297C410.778 473.134 414.181 468.976 417.589 464.823C420.464 461.319 423.306 457.777 426.459 454.516C432.247 448.53 439.479 443.24 448.135 443.096C453.224 443.012 458.149 444.627 462.878 446.338C467.975 448.182 473.061 450.06 478.152 451.922L508.856 463.153L516.532 465.96C517.894 466.458 517.306 468.655 515.928 468.151H515.928Z" fill="#E4E4E4"/>
<path d="M816.753 342.413C832.248 334.45 852.092 336.01 866.331 345.959C839.171 350.645 812.309 356.914 785.881 364.735C796.856 358.304 805.44 348.228 816.753 342.413Z" fill="#F2F2F2"/>
<path d="M866.483 345.931L869.466 348.356C868.457 347.507 867.408 346.712 866.331 345.959C866.382 345.95 866.432 345.94 866.483 345.931Z" fill="#F2F2F2"/>
<path d="M432.42 468.263C435.421 464.609 438.666 460.784 443.156 459.3L447.347 459.465C415.441 515.845 372.348 565.11 320.715 604.235C357.95 558.911 395.185 513.587 432.42 468.263Z" fill="#F2F2F2"/>
<path d="M957.99 794.209C957.99 794.365 957.96 794.52 957.9 794.665C957.84 794.809 957.753 794.941 957.642 795.051C957.532 795.162 957.4 795.249 957.256 795.309C957.111 795.369 956.956 795.399 956.8 795.399L893.77 795.429L878.05 795.439L867.68 795.449H856.21L849.95 795.459L832.57 795.469L559.11 795.609L557.03 795.619L434.71 795.659H432.69L328.57 795.699H326.55L294.05 795.709C293.734 795.709 293.432 795.583 293.208 795.36C292.985 795.137 292.86 794.834 292.86 794.519C292.86 794.203 292.985 793.9 293.208 793.677C293.432 793.454 293.734 793.329 294.05 793.329L326.89 793.319H328.91L433 793.279H435.02L556.39 793.239H558.46L661.88 793.199H663.24L830.67 793.099L848.02 793.089L855.96 793.079L868.51 793.069H879.23L896.12 793.059L956.8 793.019C956.956 793.018 957.111 793.049 957.256 793.108C957.4 793.168 957.532 793.256 957.642 793.366C957.753 793.477 957.84 793.608 957.9 793.753C957.96 793.897 957.99 794.052 957.99 794.209Z" fill="#CACACA"/>
</svg>
