<svg width="1500" height="1500" viewBox="0 0 1500 1500" fill="none" xmlns="http://www.w3.org/2000/svg">
<g clip-path="url(#clip0_2_2)">
<path d="M1071 513.79L1078.02 464" stroke="#263238" stroke-width="8" stroke-miterlimit="10"/>
<path opacity="0.1" d="M1165.03 1077.52C1167.74 1026.18 1023.28 976.826 842.373 967.282C661.464 957.737 512.613 991.62 509.904 1042.96C507.196 1094.3 651.656 1143.66 832.564 1153.2C1013.47 1162.75 1162.32 1128.86 1165.03 1077.52Z" fill="black"/>
<path d="M1287.68 984.486H987.615V986.593H1287.68V984.486Z" fill="#3F3D56"/>
<path d="M1314 1025.56H1067.63V1027.67H1314V1025.56Z" fill="#3F3D56"/>
<path d="M1129.74 609.833H1127.64V986.542H1129.74V609.833Z" fill="#3F3D56"/>
<path d="M1129.09 954.258C1151.77 954.258 1170.16 912.288 1170.16 860.516C1170.16 808.743 1151.77 766.773 1129.09 766.773C1106.42 766.773 1088.03 808.743 1088.03 860.516C1088.03 912.288 1106.42 954.258 1129.09 954.258Z" fill="#4EF125"/>
<path d="M1129.09 740.441C1151.77 740.441 1170.16 698.471 1170.16 646.698C1170.16 594.926 1151.77 552.956 1129.09 552.956C1106.42 552.956 1088.03 594.926 1088.03 646.698C1088.03 698.471 1106.42 740.441 1129.09 740.441Z" fill="#FFB8B8"/>
<path d="M1130.1 570.111L1128.09 569.506C1128.21 569.08 1140.59 526.64 1120.27 499.32C1108.79 483.89 1089.09 476.066 1061.71 476.066V473.959C1089.79 473.959 1110.06 482.071 1121.96 498.07C1142.92 526.247 1130.23 569.676 1130.1 570.111Z" fill="#3F3D56"/>
<path d="M1061.71 501.344C1076.25 501.344 1088.03 489.555 1088.03 475.012C1088.03 460.469 1076.25 448.68 1061.71 448.68C1047.17 448.68 1035.39 460.469 1035.39 475.012C1035.39 489.555 1047.17 501.344 1061.71 501.344Z" fill="#4558D6"/>
<path d="M1035.53 957.218H1008.16V929.832H1035.53V957.218ZM1010.27 955.111H1033.43V931.939H1010.27V955.111Z" fill="#3F3D56"/>
<path d="M377.959 904.564C377.993 975.391 335.916 1000.14 284.002 1000.16C282.796 1000.16 281.596 1000.15 280.402 1000.12C277.996 1000.07 275.615 999.965 273.259 999.799C226.403 996.503 189.985 970.524 189.953 904.655C189.92 836.489 276.963 750.422 283.491 744.059C283.497 744.059 283.497 744.059 283.503 744.053C283.751 743.81 283.878 743.689 283.878 743.689C283.878 743.689 377.924 833.743 377.959 904.564Z" fill="#FFB8B8"/>
<path d="M280.576 989.331L314.933 941.257L280.492 994.606L280.402 1000.12C277.996 1000.07 275.615 999.965 273.259 999.799L276.929 928.941L276.9 928.393L276.963 928.289L277.312 921.594L242.732 868.145L277.413 916.578L277.501 917.998L280.273 864.462L250.666 809.228L280.632 855.054L283.492 744.059L283.503 743.689L283.503 744.053L283.061 831.584L312.486 796.869L282.938 839.122L282.182 887.058L309.663 841.043L282.076 894.105L281.656 920.76L321.538 856.707L281.505 930.059L280.576 989.331Z" fill="#3F3D56"/>
<path d="M367.983 999.094H190.051V1001.2H367.983V999.094Z" fill="#3F3D56"/>
<path d="M887.743 367.906H403.429V370.013H887.743V367.906Z" fill="#3F3D56"/>
<path d="M548.103 390.025C559.151 390.025 568.107 381.065 568.107 370.012C568.107 358.96 559.151 350 548.103 350C537.055 350 528.099 358.96 528.099 370.012C528.099 381.065 537.055 390.025 548.103 390.025Z" fill="#4558D6"/>
<path d="M202.114 758.154C199.615 758.154 197.173 757.413 195.095 756.024C193.017 754.635 191.398 752.661 190.442 750.351C189.485 748.042 189.235 745.5 189.723 743.048C190.21 740.597 191.414 738.345 193.18 736.577C194.947 734.809 197.199 733.605 199.649 733.118C202.1 732.63 204.641 732.88 206.949 733.837C209.258 734.794 211.231 736.414 212.619 738.492C214.008 740.571 214.749 743.015 214.749 745.514C214.745 748.865 213.412 752.078 211.044 754.448C208.675 756.817 205.464 758.15 202.114 758.154ZM202.114 734.981C200.032 734.981 197.996 735.599 196.265 736.757C194.533 737.914 193.184 739.559 192.387 741.484C191.59 743.408 191.382 745.526 191.788 747.569C192.194 749.612 193.197 751.489 194.669 752.962C196.142 754.435 198.018 755.438 200.06 755.845C202.103 756.251 204.219 756.043 206.143 755.245C208.067 754.448 209.712 753.098 210.868 751.366C212.025 749.634 212.643 747.598 212.643 745.514C212.64 742.722 211.529 740.045 209.556 738.07C207.582 736.095 204.906 734.985 202.114 734.981Z" fill="#3F3D56"/>
<path d="M381.609 710.696H354.234V683.311H381.609V710.696ZM356.34 708.59H379.503V685.417H356.34V708.59Z" fill="#3F3D56"/>
<path d="M654.945 1086.01C913.937 1086.01 1123.89 1081.13 1123.89 1075.11C1123.89 1069.09 913.937 1064.22 654.945 1064.22C395.954 1064.22 186 1069.09 186 1075.11C186 1081.13 395.954 1086.01 654.945 1086.01Z" fill="#3F3D56"/>
<path d="M654.946 1118.7C834.247 1118.7 979.6 1115.32 979.6 1111.16C979.6 1106.99 834.247 1103.61 654.946 1103.61C475.644 1103.61 330.291 1106.99 330.291 1111.16C330.291 1115.32 475.644 1118.7 654.946 1118.7Z" fill="#3F3D56"/>
<path d="M655.094 1150C801.358 1150 919.929 1147.24 919.929 1143.85C919.929 1140.45 801.358 1137.69 655.094 1137.69C508.83 1137.69 390.259 1140.45 390.259 1143.85C390.259 1147.24 508.83 1150 655.094 1150Z" fill="#3F3D56"/>
<path d="M885.783 876.328L884.241 908.715L958.238 933.391C958.238 933.391 954.384 892.522 956.697 888.666L885.783 876.328Z" fill="#FFB8B8"/>
<path d="M765.538 1020.53L758.601 1047.52H790.975V1020.53H765.538Z" fill="#FFB8B8"/>
<path d="M933.573 1027.7L948.218 1032.87L955.925 1013.5L942.822 1003.18L933.573 1027.7Z" fill="#A0616A"/>
<path d="M959.524 994.095C959.524 994.095 981.362 991.225 981.362 1009.73C981.362 1028.24 984.446 1073.73 953.614 1068.34C953.614 1068.34 939.739 1069.88 945.135 1053.69C945.135 1053.69 950.627 1047.1 948.652 1043.07C946.676 1039.03 935.114 1035.95 936.656 1033.64C938.198 1031.32 955.155 1012.82 955.155 1012.82L959.524 994.095Z" fill="#2F2E41"/>
<path d="M959.78 929.535L884.241 903.317L879.616 921.824C879.616 921.824 766.309 856.279 759.371 901.004C759.371 901.004 753.205 937.247 762.455 985.056L763.226 1023.61C763.226 1023.61 782.495 1028.24 791.745 1024.38L792.516 982.743C792.516 982.743 800.224 955.753 796.37 934.933C796.37 934.933 854.18 980.429 880.387 985.827C880.387 985.827 788.662 1056.77 799.453 1079.13C810.244 1101.49 823.348 1105.35 840.306 1101.49C851.992 1098.84 904.309 1056.63 935.708 1030.65C946.47 1021.82 955.016 1010.6 960.66 997.882C966.303 985.16 968.888 971.292 968.207 957.39C967.645 947.161 965.285 937.247 959.78 929.535Z" fill="#4EF125"/>
<path d="M763.996 1037.49C763.996 1037.49 763.226 1028.24 758.601 1032.09C753.976 1035.95 737.789 1050.6 737.789 1050.6C737.789 1050.6 679.208 1057.03 714.665 1071.69C730.858 1074.12 747.41 1071.98 762.455 1065.52C762.455 1065.52 801.852 1075.63 801.038 1065.82C800.224 1056 790.974 1039.6 790.974 1039.6C790.974 1039.6 780.183 1047.52 767.85 1036.72L763.996 1037.49Z" fill="#2F2E41"/>
<path d="M916.615 787.65C932.366 787.65 945.135 774.876 945.135 759.118C945.135 743.361 932.366 730.587 916.615 730.587C900.864 730.587 888.095 743.361 888.095 759.118C888.095 774.876 900.864 787.65 916.615 787.65Z" fill="#FFB8B8"/>
<path d="M939.739 760.66C939.739 760.66 944.364 783.794 952.843 789.192L905.824 844.712L888.095 827.748L901.199 804.614C901.199 804.614 915.844 796.132 911.219 784.565L939.739 760.66Z" fill="#FFB8B8"/>
<path d="M956.697 791.505C956.697 791.505 990.612 798.445 994.466 820.808C998.32 843.17 990.612 884.039 990.612 884.039L974.425 1004.33C974.425 1004.33 973.654 1055.23 953.614 1046.75C933.573 1038.26 959.009 999.707 959.009 999.707L965.946 924.137C965.946 924.137 969.03 860.135 962.863 852.423L938.198 844.712C938.198 844.712 943.593 793.818 956.697 791.505Z" fill="#FFB8B8"/>
<path d="M901.199 804.614C901.199 804.614 878.075 803.843 863.43 822.35C848.784 840.857 813.328 854.737 813.328 854.737L724.685 889.437C724.685 889.437 708.499 860.906 698.478 870.93C688.458 880.955 716.977 906.402 730.081 903.317C743.185 900.233 822.577 876.328 822.577 876.328L885.783 847.797L901.199 804.614Z" fill="#FFB8B8"/>
<path d="M951.648 787.354C951.648 787.354 922.011 826.977 908.907 826.205C895.804 825.434 904.629 802.005 904.629 802.005L895.379 804.319C895.379 804.319 882.7 828.519 881.158 830.061C881.158 830.061 862.659 860.135 883.471 867.075L884.242 883.268C884.242 883.268 935.885 880.955 958.238 892.522L962.863 852.423C962.863 852.423 933.573 837.772 949.76 809.241C949.76 809.241 955.502 794.294 961.668 792.752L951.648 787.354Z" fill="#FFB8B8"/>
<path opacity="0.1" d="M959.394 999.322L841.462 1085.69C841.462 1085.69 960.165 1015.52 959.394 999.322Z" fill="black"/>
<path d="M946.291 761.817C947.521 761.817 948.518 759.573 948.518 756.805C948.518 754.037 947.521 751.792 946.291 751.792C945.061 751.792 944.064 754.037 944.064 756.805C944.064 759.573 945.061 761.817 946.291 761.817Z" fill="#FFB8B8"/>
<path d="M885.171 743.966C885.171 743.966 877.177 689.955 934.261 706.621C934.261 706.621 974.644 698.403 988.907 748.861L1003.38 801.761L996.758 798.316L993.828 805.061L983.253 807.958L978.531 799.015L976.542 810.023L889.664 820.376C889.664 820.376 928.207 796.562 928.031 755.212L920.756 763.205L885.171 743.966Z" fill="#2F2E41"/>
<path d="M689.596 522.094L689.376 645.203L689.156 768.311L679.048 739.732V739.659L665.937 1013.72C678.828 1050.07 685.714 1069.49 685.787 1069.56C685.86 1069.63 693.185 1070.07 702.048 1070.51C728.857 1071.83 762.112 1074.69 787.382 1077.84C793.242 1078.57 798.223 1078.94 798.589 1078.65C798.956 1078.35 799.029 953.046 798.956 800.113L798.736 522.094H689.596V522.094Z" fill="#B1060F"/>
<path d="M492.191 521.728V800.04C492.191 953.119 492.338 1078.5 492.557 1078.72C492.777 1078.94 502.226 1077.99 513.653 1076.74C525.08 1075.49 540.828 1073.88 548.666 1073.22C560.678 1072.2 596.717 1069.93 600.819 1069.85C602.064 1069.85 602.137 1063.62 602.284 951.947L602.503 834.041L611.22 858.663C612.538 862.473 612.978 863.646 614.296 867.383L627.408 593.395C624.624 585.554 626.089 589.657 622.94 580.717C612.245 550.453 603.162 524.879 602.796 523.707L602.064 521.655H492.191L492.191 521.728Z" fill="#B1060F"/>
<path d="M492.191 521.728L602.43 834.261V834.115L611.147 858.736C659.564 995.84 685.567 1069.41 685.713 1069.56C685.787 1069.63 693.112 1070.07 701.975 1070.51C728.784 1071.83 762.038 1074.69 787.309 1077.84C793.096 1078.57 798.15 1078.94 798.443 1078.65L689.156 768.237V768.311L679.048 739.732C669.159 711.813 662.567 693.127 622.793 580.717C612.099 550.453 603.016 524.879 602.65 523.707L601.917 521.655H547.054L492.191 521.728V521.728Z" fill="#E50914"/>
<ellipse cx="901.493" cy="765.763" rx="5.61611" ry="5.61842" fill="black"/>
<path d="M1323.93 639.661C1048.05 404.491 812 582.661 812 582.661L1323.93 639.661Z" fill="#99FF12"/>
<path d="M1340.65 644.842C1044.35 392.092 791 583.332 791 583.332L1340.65 644.842Z" fill="url(#paint0_linear_2_2)"/>
<path d="M1062.5 610L1014 930.329L1022.27 931.58L1070.77 611.252L1062.5 610Z" fill="#263238"/>
</g>
<defs>
<linearGradient id="paint0_linear_2_2" x1="1138.79" y1="756.006" x2="989.683" y2="476.826" gradientUnits="userSpaceOnUse">
<stop stop-color="#808080" stop-opacity="0.25"/>
<stop offset="0.54" stop-color="#808080" stop-opacity="0.12"/>
<stop offset="1" stop-color="#808080" stop-opacity="0.1"/>
</linearGradient>
<clipPath id="clip0_2_2">
<rect width="1128" height="800" fill="white" transform="translate(186 350)"/>
</clipPath>
</defs>
</svg>
