<svg xmlns="http://www.w3.org/2000/svg" xmlns:xlink="http://www.w3.org/1999/xlink" width="1500" height="1500" viewBox="0 0 1500 1500">
<defs>
<clipPath id="clip-undraw_making_art_re_ee8w">
<rect width="1500" height="1500" id="id_109"></rect>
</clipPath>
</defs>
<g id="undraw_making_art_re_ee8w" clip-path="url(#clip-undraw_making_art_re_ee8w)">
<rect width="1500" height="1500" fill="#fff" id="id_110"></rect>
<ellipse id="Ellipse_1113" data-name="Ellipse 1113" cx="91.723" cy="91.722" rx="91.723" ry="91.722" transform="translate(650.647 870.143)" fill="#ffe0bc"></ellipse>
<path id="Path_7077" data-name="Path 7077" d="M386.114,600.039l22.563,13.981V519.513l-25.29-15.671a9.81,9.81,0,0,1-4.281-5.7h0a9.81,9.81,0,0,1,7.008,1.3l22.562,13.981V476.774a86.713,86.713,0,0,1,2.589-21.03,86.706,86.706,0,0,1,2.589,21.03v59.815l33.286-20.626A16.312,16.312,0,0,1,456,513.519a16.313,16.313,0,0,1-6.132,6.846l-36.013,22.316v223.5h-5.178V620.112l-25.29-15.671a9.81,9.81,0,0,1-4.281-5.7h0a9.811,9.811,0,0,1,7.008,1.3Z" transform="translate(331.473 495.766)" fill="#dbcdca"></path>
<ellipse id="Ellipse_1114" data-name="Ellipse 1114" cx="91.723" cy="91.722" rx="91.723" ry="91.722" transform="translate(514.793 877.931)" fill="#f8eadf"></ellipse>
<path id="Path_7078" data-name="Path 7078" d="M290.915,608.292l-22.563,13.981V527.766l25.29-15.671a9.81,9.81,0,0,0,4.281-5.7h0a9.811,9.811,0,0,0-7.008,1.3l-22.563,13.981V485.027A86.709,86.709,0,0,0,265.764,464a86.709,86.709,0,0,0-2.589,21.03v59.815l-33.286-20.626a16.312,16.312,0,0,0-8.859-2.444,16.313,16.313,0,0,0,6.132,6.845l36.013,22.316V767.142h5.178V628.365l25.29-15.671a9.81,9.81,0,0,0,4.281-5.7h0A9.811,9.811,0,0,0,290.915,608.292Z" transform="translate(340.382 495.301)" fill="#af9c97"></path>
<ellipse id="Ellipse_1115" data-name="Ellipse 1115" cx="157.923" cy="157.923" rx="157.923" ry="157.923" transform="translate(515.222 620.272)" fill="#e18b25"></ellipse>
<path id="Path_7079" data-name="Path 7079" d="M377.465,501.623l-38.847,24.072V362.977L382.161,336a16.89,16.89,0,0,0,7.37-9.811h0a16.891,16.891,0,0,0-12.066,2.233l-38.847,24.072v-63.1a149.292,149.292,0,0,0-4.457-36.208,149.295,149.295,0,0,0-4.458,36.208V392.378l-57.31-35.513a28.086,28.086,0,0,0-15.254-4.208A28.086,28.086,0,0,0,267.7,364.443L329.7,402.866V755.607h8.915V536.183L382.161,509.2a16.89,16.89,0,0,0,7.37-9.811h0a16.89,16.89,0,0,0-12.066,2.233Z" transform="translate(338.347 507.181)" fill="#673528"></path>
<path id="Path_7028" data-name="Path 7028" d="M563.68,412.278c20.2-19.708,27.255-52.188,15.756-72.546s-37.2-20.884-57.4-1.176-48.592,73-37.093,93.362S543.479,431.986,563.68,412.278Zm-69.713,10.686c-4.3-2.068-5.474-8.565-2.617-14.512s8.663-9.093,12.966-7.025,5.474,8.565,2.617,14.512-8.663,9.093-12.965,7.025Z" transform="translate(92.361 238.025)" fill="#efd8c8"></path>
<path id="Path_7029" data-name="Path 7029" d="M524.676,388.7l-5.835-5.331a24.218,24.218,0,0,1-6.417-7.862,23.764,23.764,0,0,1-1.223-13.378,32.109,32.109,0,0,1,8.695-17.239l-.312,4.527a34.528,34.528,0,0,1,8.147-6.964c2.881-1.488,6.05-1.383,7.3,1.263,1.434,3.028.069,8.461,2.012,10.892,3.36,4.2,12.119-4.875,15.813-1.141,2.152,2.176,1.133,7.337.005,11.682a65.061,65.061,0,0,1-5.47,15.473c-4.5,8.1-12.708,13.448-18.263,11.264a15.158,15.158,0,0,1-4.454-3.185Z" transform="translate(106.402 246.602)" fill="#551f11"></path>
<path id="Path_7030" data-name="Path 7030" d="M508.628,378.708c-1.023-3.469,1.078-7.981,3.072-11.781l1.007-1.043a18.68,18.68,0,0,1,6.631-1.91,4.749,4.749,0,0,1,4.893,3.34c.589,2.036.114,4.946,1.524,6.136,2.727,2.3,8.2-4.826,10.8-2.342,1.461,1.394.4,4.987-1.474,6.753a11.169,11.169,0,0,1-6.274,2.549l-10.021,1.665a17.054,17.054,0,0,1-5.96.3A5.26,5.26,0,0,1,508.628,378.708Z" transform="translate(105.225 257.687)" fill="#93a7bc"></path>
<path id="Path_7031" data-name="Path 7031" d="M501.2,385.2c.7-5.13,4.628-13.387,8.129-20.444l1.364-2.149a34.908,34.908,0,0,1,6.692-6.145c1.9-1.042,3.225-.273,2.746,3.135-.424,3.017-2.183,7.935-1.5,9.205,1.328,2.457,9.413-11.579,10.548-8.769.636,1.577-1.947,7.867-4.408,11.586a26.2,26.2,0,0,1-6.674,7.013l-9.55,7.314a16.184,16.184,0,0,1-5.361,3.236C501.712,389.448,500.768,388.315,501.2,385.2Z" transform="translate(101.639 253.775)" fill="#e18b25"></path>
<path id="Path_7032" data-name="Path 7032" d="M524.069,406.189a16.071,16.071,0,0,0-21.688-11.7l-37.355-43.2-8.054,28.564L493.68,416.5a16.158,16.158,0,0,0,30.39-10.309Z" transform="translate(79.867 251.435)" fill="#e3b384"></path>
<path id="Path_7033" data-name="Path 7033" d="M455.779,290.57l-9.906,16.782s26.133,12.946,26.641,23.167,2.378,7.629,6.266,10.434,8.5,10.074,8.644,18.063,61.956,69.892,61.956,69.892l-16.834,23.327A90.13,90.13,0,0,0,514.4,439.142c-10.007-5.251-37.779-14.993-39.8-20.391s-10.145-9.323-17.921-14.934,8.889-10.375-4.071-19.727-83.277-82.978-95.876-90.1-12.679-28.858-12.679-28.858l9.352-12.96Z" transform="translate(24.152 202.528)" fill="#93a7bc"></path>
<path id="Path_7034" data-name="Path 7034" d="M858.786,803.041v-8.2a40.542,40.542,0,0,0,0-7.277V117.4a15.681,15.681,0,1,0-31.362,0V787.567a40.578,40.578,0,0,0,0,7.277v8.2l-158.747,324.8a40.323,40.323,0,0,0,57.025,0L827.424,869.752v254.216a15.681,15.681,0,0,0,31.362,0V869.752l101.722,258.087a40.322,40.322,0,0,0,57.025,0Z" transform="translate(184.33 128.286)" fill="#e18b25"></path>
<path id="Path_7035" data-name="Path 7035" d="M296.473,844.718a248.831,248.831,0,0,1-43.188-57.163,253.805,253.805,0,0,1-25.293-66.694,243.8,243.8,0,0,1-5.23-72.155A252.648,252.648,0,0,1,275.1,513.419q2.775-3.559,5.683-7.011c2.161-2.573,5.833,1.133,3.687,3.687A244.116,244.116,0,0,0,300.16,841.031C302.553,843.39,298.866,847.077,296.473,844.718Z" transform="translate(-36.051 327.546)" fill="#eedacc"></path>
<path id="Path_7036" data-name="Path 7036" d="M256.163,514.673a63.169,63.169,0,0,0,6.193-2.7c.1.157.2.317.3.473Z" transform="translate(-19.219 330.72)" fill="#eedacc"></path>
<path id="Path_7037" data-name="Path 7037" d="M299.6,493.272a50.3,50.3,0,0,1-4.574,13.745,65.9,65.9,0,0,1-27.468,28.5c-.657.35-1.335.722-2.014,1.051-.81-1.269-1.642-2.539-2.429-3.808-5.318-8.514-10.046-17.465-12.213-27.227-2.539-11.4-1.16-24.206,6.15-33.333,7.288-9.127,21.208-13.219,31.3-7.31a22.028,22.028,0,0,1,7.223,6.982c-1.007,1.247-2.014,2.473-3.02,3.721a3.8,3.8,0,0,1-.285.328c-.876,1.094-1.773,2.167-2.648,3.261-3.655,4.487-7.288,9-10.943,13.46A69.237,69.237,0,0,0,294.3,493.71l1.269-.066C296.906,493.557,298.263,493.447,299.6,493.272Z" transform="translate(-22.393 306.123)" fill="#eedacc"></path>
<path id="Path_7038" data-name="Path 7038" d="M253.994,587.178l-1.4,18.253-.372,4.946c-.394-.2-.81-.394-1.2-.591a106.812,106.812,0,0,1-55.745-68.264,103.767,103.767,0,0,1-2.736-15.518c7.091-1.094,14.2-2.211,21.3-3.3a69.9,69.9,0,0,0-21.142-18.319,105.648,105.648,0,0,1,19.151-50.667c1.839,30.6,33.88,50.054,45.612,78.354a63.65,63.65,0,0,1-3.458,55.11Z" transform="translate(-50.613 301.974)" fill="#eedacc"></path>
<path id="Path_7039" data-name="Path 7039" d="M266.056,689.812c-1.707.088-3.414.131-5.1.109a106.953,106.953,0,0,1-77.566-34.033,103.88,103.88,0,0,1-19.107-29.919c.153-.022.284-.044.438-.066,7.091-1.094,14.2-2.211,21.3-3.3a69.632,69.632,0,0,0-29-22.105,104.309,104.309,0,0,1-.35-29.875c16.021,26.11,53.469,28.212,77.128,47.647A63.793,63.793,0,0,1,255.573,655.1a60.008,60.008,0,0,1,1.116,10.812c.022.875.022,1.729,0,2.583l.525,1.182Z" transform="translate(-68.76 359.658)" fill="#eedacc"></path>
<path id="Path_7040" data-name="Path 7040" d="M295.148,701.171c-4.531,5.559-9.061,11.162-13.592,16.721a69.38,69.38,0,0,0,16.9,1.007A106.97,106.97,0,0,1,270.5,766.327c-1.247,1.226-2.539,2.429-3.852,3.568-.263.241-.547.481-.81.722l-1.182-3.349-.022-.022-6.7-18.538a63.34,63.34,0,0,1-16.962-31.1v-.044a61.094,61.094,0,0,1-1.072-21.011c3.743-30.4,29.437-57.737,23.046-87.7A106.088,106.088,0,0,1,294.688,651.9c-3.655,4.487-7.288,9-10.943,13.46a69.234,69.234,0,0,0,15.627,1.073,102.341,102.341,0,0,1,2.977,22.63c.022,1.094.022,2.167,0,3.261-2.3,2.845-4.618,5.669-6.916,8.514a3.77,3.77,0,0,1-.284.328Z" transform="translate(-27.465 378.525)" fill="#eedacc"></path>
<path id="Path_7041" data-name="Path 7041" d="M872.6,862.164a248.833,248.833,0,0,1,2.167-71.611,253.805,253.805,0,0,1,22.085-67.824A243.8,243.8,0,0,1,938,663.223a252.647,252.647,0,0,1,125.564-72.629q4.393-1.035,8.822-1.9c3.3-.651,3.836,4.538.563,5.184A244.116,244.116,0,0,0,877.786,861.6c.386,3.339-4.8,3.9-5.184.563Z" transform="translate(284.152 368.548)" fill="#eedacc"></path>
<path id="Path_7042" data-name="Path 7042" d="M996.977,591.375a63.164,63.164,0,0,0,6.519,1.776c-.019.186-.042.373-.06.559Z" transform="translate(346.322 369.9)" fill="#e6e6e6"></path>
<path id="Path_7043" data-name="Path 7043" d="M1055.017,598.7a50.293,50.293,0,0,1-12.178,7.845,65.9,65.9,0,0,1-39.263,4.994c-.731-.138-1.493-.274-2.228-.443.165-1.5.312-3.007.493-4.49,1.191-9.968,3.116-19.906,7.545-28.871,5.167-10.477,14.266-19.591,25.682-22.122,11.4-2.545,24.811,2.989,28.971,13.917a22.026,22.026,0,0,1,1.253,9.967c-1.566.341-3.119.665-4.685,1.006a3.826,3.826,0,0,1-.428.078c-1.368.3-2.739.578-4.107.882-5.66,1.206-11.317,2.443-16.963,3.632a69.238,69.238,0,0,0,11.506,10.629l1.03.744C1052.741,597.24,1053.867,598,1055.017,598.7Z" transform="translate(348.48 351.954)" fill="#eedacc"></path>
<path id="Path_7044" data-name="Path 7044" d="M969.8,643.216l-12.53,13.347-3.39,3.621c-.184-.4-.384-.814-.568-1.215a106.812,106.812,0,0,1-.662-88.131,103.781,103.781,0,0,1,7.593-13.807c6.212,3.591,12.454,7.179,18.666,10.77a69.9,69.9,0,0,0-5-27.525,105.649,105.649,0,0,1,46.676-27.483c-17.742,25-4.965,60.238-13.557,89.643A63.65,63.65,0,0,1,969.8,643.216Z" transform="translate(319.92 331.126)" fill="#eedacc"></path>
<path id="Path_7045" data-name="Path 7045" d="M904.981,734.566c-1.385-1-2.743-2.037-4.042-3.11a106.953,106.953,0,0,1-39.118-75.13,103.878,103.878,0,0,1,3.859-35.289c.133.079.249.144.382.223,6.212,3.591,12.455,7.179,18.667,10.77a69.633,69.633,0,0,0-8.746-35.4,104.308,104.308,0,0,1,18.449-23.5c-3.878,30.387,23.988,55.492,30.246,85.464a63.794,63.794,0,0,1-6.113,42.352,60.015,60.015,0,0,1-5.906,9.125c-.531.7-1.066,1.361-1.618,2.013l-.331,1.25Z" transform="translate(279.531 360.897)" fill="#eedacc"></path>
<path id="Path_7046" data-name="Path 7046" d="M936.623,756.97c-7.014,1.493-14.056,3.02-21.07,4.513a69.38,69.38,0,0,0,12.536,11.373,106.969,106.969,0,0,1-51.5,19.445c-1.74.173-3.5.3-5.238.366-.355.023-.728.032-1.084.055l1.177-3.35,0-.031,6.4-18.643a63.339,63.339,0,0,1,6.272-34.866l.027-.034a61.093,61.093,0,0,1,12.331-17.046c21.968-21.345,59.122-26.546,72.918-53.9a106.086,106.086,0,0,1-2.248,53.436c-5.66,1.206-11.317,2.443-16.963,3.632a69.232,69.232,0,0,0,11.506,10.629,102.333,102.333,0,0,1-11.862,19.5c-.669.866-1.341,1.7-2.044,2.541-3.574.777-7.151,1.523-10.725,2.3a3.819,3.819,0,0,1-.428.077Z" transform="translate(283.801 406.157)" fill="#eedacc"></path>
<path id="Path_7047" data-name="Path 7047" d="M1180.231,648.2H599.439a25.493,25.493,0,0,1-25.465-25.464V216.679a25.493,25.493,0,0,1,25.465-25.465h580.792a25.493,25.493,0,0,1,25.464,25.465V622.74A25.494,25.494,0,0,1,1180.231,648.2Z" transform="translate(137.6 172.448)" fill="#efd8c8"></path>
<path id="Path_7048" data-name="Path 7048" d="M913.288,222.03H741.544a41.116,41.116,0,0,1-41.069-41.069v-.747H954.358v.747A41.116,41.116,0,0,1,913.288,222.03Z" transform="translate(200.02 167.021)" fill="#e18b25"></path>
<path id="Path_7049" data-name="Path 7049" d="M913.788,528.03H742.043a41.116,41.116,0,0,1-41.069-41.069v-.747H954.858v.747A41.116,41.116,0,0,1,913.788,528.03Z" transform="translate(200.266 318.011)" fill="#e18b25"></path>
<path id="Path_7050" data-name="Path 7050" d="M844.587,475.307c0,24.744-18.566-2.987-43.31-2.987a44.8,44.8,0,0,1,0-89.606C826.021,382.714,844.587,450.563,844.587,475.307Z" transform="translate(227.652 266.94)" fill="#e18b25"></path>
<path id="Path_7051" data-name="Path 7051" d="M727.613,309.517a44.8,44.8,0,0,1-44.8,44.8c-24.744,0-37.336,50.132-37.336,25.388s12.592-114.994,37.336-114.994a44.8,44.8,0,0,1,44.8,44.8Z" transform="translate(172.881 208.715)" fill="#e18b25"></path>
<path id="Path_7052" data-name="Path 7052" d="M661.186,263.859c6.467-3.772,14.385-2.475,20.527,1.347,6.986,4.346,10.853,11.832,12.556,19.69a63.458,63.458,0,0,1-.085,25.58c-1.666,8.132-5.933,16.771-14.589,19.105-5.77,1.556-12.217-.449-14.32-6.4a14.689,14.689,0,0,1,2.666-14.16c4.857-5.465,13.322-5.747,19.68-3.02,7.478,3.207,12.036,10.447,13.957,18.108,2.284,9.109.845,18.557-1.558,27.486-2.612,9.7-6.07,19.192-9.18,28.744-6.065,18.628-11.646,37.608-13.1,57.24-2.216,29.989,7.657,64.592,35.066,80.678,14.8,8.683,32.6,10.068,49.165,6.639,17.468-3.616,33.069-12.639,46.616-24.024a205.378,205.378,0,0,0,19.828-19.417,14.666,14.666,0,0,1,15.662-4.633c14.25,4.528,11.625,27.342-2.474,30.14-6.407,1.271-13.351-1.81-18.094-5.972a34.773,34.773,0,0,1-10.417-17.78c-3.586-14.386.6-30.222,9.11-42.107,9.612-13.427,25.17-21.787,40.566-26.76,17.529-5.661,35.886-7.33,54.115-9.176,18.655-1.889,37.506-4.094,55.12-10.88a137.906,137.906,0,0,0,38.961-23.121,144.048,144.048,0,0,0,47.391-75.771,131.948,131.948,0,0,0,3.325-21.812c.2-2.878-4.284-2.866-4.48,0-2.194,32.044-17.042,62.525-39.5,85.28a136.611,136.611,0,0,1-38.744,27.612c-17.385,8.215-36.286,11.443-55.263,13.5-19.382,2.1-39.008,3.341-57.838,8.742-16.646,4.775-33.245,12.873-44.584,26.337-10,11.872-15.478,28.159-13.527,43.673,1.816,14.436,11.019,29.3,26.143,32.436,7.1,1.472,14.441-.4,19.175-6.1a22.6,22.6,0,0,0,3.052-23.451,18.744,18.744,0,0,0-23.679-8.569,22.813,22.813,0,0,0-8.125,6.277c-12.926,14.173-27.6,27.4-45.261,35.347-16.474,7.41-35.877,10.2-53.3,4.527-32.983-10.732-45.618-48.442-43.63-80.13,1.3-20.738,7.531-40.768,13.972-60.391,3.289-10.02,7.035-20.014,9.344-30.319,2.068-9.227,2.7-19-.312-28.1-2.629-7.942-7.927-15.014-15.77-18.342-7.124-3.023-15.856-2.952-22.225,1.816-9.208,6.893-10.052,23.985,1.321,29.291,7.547,3.521,16.638.78,22.2-5.066,6.241-6.554,8.271-15.792,8.974-24.534,1.328-16.519-2.315-36.445-19.117-43.9-6.922-3.071-14.913-3.417-21.588.477a2.242,2.242,0,0,0,2.261,3.869Z" transform="translate(179.002 204.979)" fill="#551f11"></path>
<path id="Path_7053" data-name="Path 7053" d="M995.595,302.853c0,26.24,41.189,93.145,27.33,113.232q-2.576,3.763-5.451,7.318A123.355,123.355,0,0,1,996.3,444.176c-1.329,1.045-2.673,2.046-4.032,3.017a125.723,125.723,0,0,1-15.158,9.215c-.956.478-1.927.956-2.9,1.434A124.71,124.71,0,0,1,832.661,256.6c1.1-1.105,2.24-2.18,3.4-3.241a124.2,124.2,0,0,1,39.651-24.477c.015,0,.015-.015.03-.015a125.2,125.2,0,0,1,68.862-5.75h.03c.508.1,1.016.209,1.523.329C1002.569,235.38,995.595,242.891,995.595,302.853Z" transform="translate(246.895 187.004)" fill="#e18b25"></path>
<path id="Path_7054" data-name="Path 7054" d="M965.4,445.054a2.355,2.355,0,0,1-.015.568c-.956.478-1.927.956-2.9,1.434a2.24,2.24,0,0,1-1.568-2,30.609,30.609,0,0,0-1.3-6.646c-5.824-18.758-26.254-28.345-44.086-31.735-21.819-4.167-44.773-2.434-65.532-11.44a56.584,56.584,0,0,1-21.969-15.98,40.207,40.207,0,0,1-8.736-27.4c1.225-23.283,17.637-41.5,23.253-63.471,2.315-9.05,2.315-18.489-1.807-27.031-3.495-7.258-9.767-13.635-18.13-14.531a2.17,2.17,0,0,1-1.673-1c1.105-1.105,2.24-2.18,3.405-3.241a21.77,21.77,0,0,1,4.435,1.15c8.184,3.136,13.874,10.23,17.07,18.19,3.689,9.214,3.345,19.131.777,28.584-5.989,22.043-23.581,41.174-22.894,64.934.6,20.594,18.578,33.438,36.708,38.874,22.431,6.72,46.729,3.539,68.922,11.32C946.82,411.75,963.77,425.445,965.4,445.054Z" transform="translate(258.617 197.791)" fill="#551f11"></path>
<path id="Path_7055" data-name="Path 7055" d="M969.838,440.258c-1.329,1.045-2.673,2.046-4.032,3.017a1.863,1.863,0,0,1-.493-1.464,75.815,75.815,0,0,0-18.623-52.763,74.906,74.906,0,0,0-19.355-16.039c-7.646-4.376-16.039-6.721-24.358-9.439-8.184-2.673-16.5-5.914-22.76-12.022-6.377-6.228-9.513-14.666-10.469-23.387-2.255-20.669,8.094-39.666,8.931-60.021.373-9.08-1.628-17.906-7.258-25.209-4.869-6.3-12.052-10.6-20.191-9.648-2.688.329-2.823-3.614-.493-4.376a2.394,2.394,0,0,1,.493-.1c9.468-1.105,18.056,4.092,23.686,11.38,6.556,8.468,8.826,18.787,8.169,29.346-1.284,20.43-12.037,40.069-8.542,60.828A31.472,31.472,0,0,0,888.028,352.1c7.5,4.943,16.353,7.168,24.806,9.916a83.037,83.037,0,0,1,23.611,11.559,81.976,81.976,0,0,1,18.31,18.533,79.421,79.421,0,0,1,15.084,48.148Z" transform="translate(273.354 190.923)" fill="#551f11"></path>
<path id="Path_7056" data-name="Path 7056" d="M975.1,414.244q-2.576,3.763-5.451,7.318a84.747,84.747,0,0,0-1.3-34.916,87.967,87.967,0,0,0-20.52-38.575,77.068,77.068,0,0,0-17.085-13.934c-7.243-4.331-15.158-7.99-20.281-14.979-11.111-15.173-3.614-34.976-.03-51.284,1.882-8.513,2.9-17.578-.583-25.821-2.7-6.392-8.05-12.381-15.308-13.112-2.852-.284-2.867-4.779,0-4.48q.806.09,1.613.224c7.93,1.434,14.038,7.348,17.354,14.636,4.3,9.513,3.45,19.788,1.255,29.749-3.614,16.383-11.992,38.083,2.987,51.464,6.317,5.645,14.516,8.766,21.326,13.769a83.272,83.272,0,0,1,16.249,15.666A93.468,93.468,0,0,1,975.1,414.244Z" transform="translate(294.721 188.845)" fill="#551f11"></path>
<path id="Path_7057" data-name="Path 7057" d="M255.165,698.19h26.5l12.611-102.221H255.165Z" transform="translate(212.906 524.07)" fill="#e3b384"></path>
<path id="Path_7058" data-name="Path 7058" d="M401.559,818.88h19.005l3.392-17.943,8.688,17.943h50.407a11.331,11.331,0,0,0,6.439-20.655l-40.253-27.8v-18.14l-42.34,2.527Z" transform="translate(52.525 449.298)" fill="#551f11"></path>
<path id="Path_7059" data-name="Path 7059" d="M117.583,658.258l22.8,13.517,62.988-81.489-33.641-19.951Z" transform="translate(145.02 511.422)" fill="#e3b384"></path>
<path id="Path_7060" data-name="Path 7060" d="M249.6,769.9l16.347,9.694,12.071-13.7-1.68,19.865L319.7,811.466a11.331,11.331,0,0,0,16.074-14.482L315.329,752.54l9.253-15.6-37.706-19.424Z" transform="translate(-22.455 432.141)" fill="#551f11"></path>
<path id="Path_7061" data-name="Path 7061" d="M290.292,226.77l21.84,82.1-122.346,1.61,16.1-78.882Z" transform="translate(180.646 341.896)" fill="#e3b384"></path>
<path id="Path_7062" data-name="Path 7062" d="M495.43,388.462l25.984,84.749L532.92,699.849,503.1,916.242h-33L456.578,703.377,423.321,557.726l19.471,152.336L340.807,859.169H290.692l92.135-164.311L329.2,524.29s5.378-84.35,39.392-129.156l8.279-23.919Z" transform="translate(-2.18 261.266)" fill="#534711"></path>
<path id="Path_7063" data-name="Path 7063" d="M473.589,297.67c-.07-.738-.176-1.511-.316-2.249a67.719,67.719,0,0,0-76.694-57.02,69.138,69.138,0,0,0-42.651,23.855v.035c-.562.668-1.089,1.37-1.616,2.073-.949,1.195-1.827,2.459-2.67,3.724A67.774,67.774,0,0,0,338.4,306.945s6.394,34.043,7.729,43.072c.913,5.832,1.616,11.559,2.143,17.145.316,2.811.562,5.586.773,8.291v.035c1.054,13.385,1.405,25.4,1.721,34.711.14,5.059,3.654,19.428,3.865,19.6s.452.322.7.474a12.549,12.549,0,0,0,11.812.435l15.8-7.374h0a61.107,61.107,0,0,1,33.636-5.2c18.784,2.435,46.142,5.779,47.383,4.768,1.476-1.265,8.6-65.059,10.466-85.119.246-2.881.457-5.867.562-9.064v-.035A207.152,207.152,0,0,0,473.589,297.67Z" transform="translate(21.354 195.382)" fill="#93a7bc"></path>
<path id="Path_7064" data-name="Path 7064" d="M511.621,292.235a15.227,15.227,0,0,1-21.745,8.5l-40.108,36.323-4.284-27.791,38.744-30.233a15.309,15.309,0,0,1,27.393,13.2Z" transform="translate(74.199 212.286)" fill="#e3b384"></path>
<path id="Path_7065" data-name="Path 7065" d="M403.549,238.367s39.472,7.371,17.007,83.993l8.674,37.979,40.7-23.409,2.465-9.9,35.632-25.012,16.847,30.372-20.485,19.574-5.917,12.219-10.509,3.476-32.553,31.106-13.65,8.342s-17.356,10.754-32.794,4.928a42.021,42.021,0,0,1-11.421-6.463c-6.738-5.373-12.718-13.586-16.462-26-13.89-46.065-19.1-78.277-19.1-78.277Z" transform="translate(32.994 195.715)" fill="#93a7bc"></path>
<path id="Path_7066" data-name="Path 7066" d="M495.939,341.051l-23.9-89.9a1.981,1.981,0,0,1,3.764-1.217l32.163,84.017Z" transform="translate(87.271 200.797)" fill="#3f3d56"></path>
<path id="Path_7067" data-name="Path 7067" d="M510.433,334.985a45.178,45.178,0,0,1-10.086-3.382c-1.634-.78-3.213-1.66-4.758-2.568-.55-.307-1.1-.634-1.636-.95-1.286-.751-2.572-1.5-3.867-2.265-1.1-.634-2.2-1.28-3.29-1.923-1.605-.936-3.331-2.024-3.8-3.83a5.852,5.852,0,0,1,1.373-4.818,19.7,19.7,0,0,1,4.039-3.582q5.059-3.716,10.127-7.421l.9-1.981a25.553,25.553,0,0,1,7.448,4.816,9.116,9.116,0,0,1,2.616,6.661,7.679,7.679,0,0,1-.267,1.607c-.653,2.3-2.361,4.25-3.375,6.452a12.446,12.446,0,0,0-.532,1.417,10.121,10.121,0,0,0,1.118,8.543A9.349,9.349,0,0,0,510.433,334.985Z" transform="translate(92.672 227.244)" fill="#ccc"></path>
<path id="Path_7068" data-name="Path 7068" d="M506.34,325a10.733,10.733,0,0,1-5-.83A50.384,50.384,0,0,0,506.34,325Z" transform="translate(101.762 238.055)" fill="#e6e6e6"></path>
<path id="Path_7069" data-name="Path 7069" d="M508.066,331.192a45.18,45.18,0,0,1-10.086-3.382c-1.634-.78-3.213-1.66-4.758-2.568-.55-.307-1.1-.634-1.636-.95-1.286-.751-2.572-1.5-3.867-2.265a21.81,21.81,0,0,1,1.452-1.749c4.786-5.208,11.325-8.147,17.969-10.329a7.675,7.675,0,0,1-.266,1.607c-.653,2.3-2.361,4.25-3.375,6.452a12.446,12.446,0,0,0-.532,1.417,10.121,10.121,0,0,0,1.118,8.543A9.35,9.35,0,0,0,508.066,331.192Z" transform="translate(95.039 231.036)" fill="#6c63ff"></path>
<path id="Path_7070" data-name="Path 7070" d="M1461.078,797.683a1.772,1.772,0,0,1-1.777,1.777H171.529a1.777,1.777,0,0,1,0-3.554H1459.3a1.772,1.772,0,0,1,1.778,1.777Z" transform="translate(-61.855 470.823)" fill="#ccc"></path>
<circle id="Ellipse_1112" data-name="Ellipse 1112" cx="51.73" cy="51.73" r="51.73" transform="translate(348.572 391.524) rotate(-61.337)" fill="#e3b384"></circle>
<path id="Path_7071" data-name="Path 7071" d="M374.2,179.483v.036a26,26,0,0,1-.854,6.669c-.091.382-.2.781-.327,1.163v.018a26.38,26.38,0,0,1-16.264,16.936c-.563.218-1.145.4-1.727.563a23.565,23.565,0,0,1-3.743.763,23.886,23.886,0,0,1-3.435.236,26.146,26.146,0,0,1-2.689-.127,25.448,25.448,0,0,1-6.124-1.4,7.7,7.7,0,0,1-.909-.327,4.434,4.434,0,0,1-.436-.182,26.375,26.375,0,0,1-13.611-35.708l.018-.018a25.848,25.848,0,0,1,5.179-7.269c4.761-4.743,6.859-16.629,14.091-16.629a9.894,9.894,0,0,1,1.036.036c4.852.164,13.821,10.633,17.637,13.1a25.722,25.722,0,0,1,7.232,6.851,26.047,26.047,0,0,1,4.252,9.377,26.387,26.387,0,0,1,.672,5.906Z" transform="translate(13.023 149.254)" fill="#e18b25"></path>
<path id="Path_7072" data-name="Path 7072" d="M383.689,174.5c-4.092,4.764-10.5,6.616-16.278,9.095a68.481,68.481,0,0,0-39.785,50.03c-1.6,8.916-1.389,18.145-3.913,26.837s-8.722,17.219-17.637,18.728c-6.033,1.03-12.082-1.3-17.757-3.6q-4.682-1.882-9.364-3.778,4.884-12.254,9.752-24.507a124.2,124.2,0,0,1-18.085,21.162q-16.779-6.765-33.587-13.531c27.569.1,22.864-26.658,29.032-53.51,3.39-14.755,32.258-24.746,37.918-38.784a42.946,42.946,0,0,1,77.9-3.913C387.542,160.987,387.706,169.8,383.689,174.5Z" transform="translate(-28.656 145.059)" fill="#551f11"></path>
<path id="Path_7073" data-name="Path 7073" d="M446.5,167.394c-5.047-6.647-17.763-6.905-20.314,1.041l-5.362-7.272c-6.957-15.2-25.312-12.108-41.908-10.1s-31.221,13.7-38.645,28.678-8.1,32.765-3.822,48.926c2.877,10.873,8.16,21.483,16.924,28.531s49.968,23.719,53.4,9.365c-4.288,18.727,4.338,15.8,17.107,30.149,6.614-19.867,9.714-57.3,16.328-77.168l2.987-8.972c2.1-6.3,4.2-12.618,5.716-19.087C450.818,183.359,451.551,174.041,446.5,167.394Z" transform="translate(19.098 151.8)" fill="#551f11"></path>
<path id="Path_7074" data-name="Path 7074" d="M387.232,220.528l-2.211-14.077c1.5-17.508-.95-45.357,10.54-49.185l7.026,7.026C398.142,165.775,389.688,191.956,387.232,220.528Z" transform="translate(44.365 155.697)" fill="#e18b25"></path>
<path id="Path_7075" data-name="Path 7075" d="M402.9,156.129c0,10.722-3.677,19.415-8.214,19.415s-8.214-8.692-8.214-19.415,8.214-19.415,8.214-19.415S402.9,145.406,402.9,156.129Z" transform="translate(45.082 145.556)" fill="#e18b25"></path>
<path id="Path_7076" data-name="Path 7076" d="M408.076,159.888c-4.309,9.819-11.169,16.3-15.323,14.478s-4.029-11.26.28-21.079,15.323-14.478,15.323-14.478S412.385,150.07,408.076,159.888Z" transform="translate(46.682 146.59)" fill="#e18b25"></path>
</g>
</svg>