<svg width="1500" height="1500" viewBox="0 0 1500 1500" fill="none" xmlns="http://www.w3.org/2000/svg">
<g clip-path="url(#clip0_2_3)">
<path opacity="0.1" d="M1137.7 393.432V911.768C1137.7 928.635 1134.38 945.338 1127.93 960.922C1121.48 976.507 1112.01 990.667 1100.08 1002.59C1088.15 1014.52 1073.99 1023.98 1058.4 1030.43C1042.81 1036.89 1026.11 1040.2 1009.23 1040.2H490.766C461.738 1040.24 433.558 1030.41 410.849 1012.34C401.45 1004.85 393.137 996.098 386.148 986.326C370.634 964.559 362.297 938.496 362.301 911.768V393.432C362.301 389.995 362.435 386.594 362.704 383.23C363.215 376.66 364.238 370.14 365.764 363.728C372.456 335.614 388.433 310.577 411.116 292.662C433.798 274.748 461.86 265.002 490.766 265H1009.23C1038.14 265.002 1066.2 274.748 1088.88 292.662C1111.57 310.577 1127.54 335.614 1134.24 363.728C1135.76 370.14 1136.78 376.66 1137.3 383.23C1137.56 386.594 1137.7 389.995 1137.7 393.432Z" fill="#99FF12"/>
<path opacity="0.1" d="M759.753 673.321H1137.7V692.823H759.753V828.117H1137.7V847.619H759.753V1040.2H740.246V847.619H362.301V828.117H740.246V692.823H362.301V673.321H740.246V538.026H362.301V518.525H740.246V383.23H362.704C363.215 376.66 364.238 370.14 365.764 363.728H740.246V265H759.753V363.728H1134.24C1135.76 370.14 1136.78 376.66 1137.3 383.23H759.753V518.525H1137.7V538.026H759.753V673.321Z" fill="#99FF12"/>
<path opacity="0.1" d="M750 1234C1094.07 1234 1373 1190.25 1373 1136.28C1373 1082.32 1094.07 1038.57 750 1038.57C405.927 1038.57 127 1082.32 127 1136.28C127 1190.25 405.927 1234 750 1234Z" fill="#99FF12"/>
<path d="M1227.55 1101.16C1244.59 1101.16 1258.4 1098.5 1258.4 1095.22C1258.4 1091.94 1244.59 1089.28 1227.55 1089.28C1210.52 1089.28 1196.71 1091.94 1196.71 1095.22C1196.71 1098.5 1210.52 1101.16 1227.55 1101.16Z" fill="#99FF12"/>
<path d="M1227.04 1097.41C1229.03 1097.41 1230.64 1095.31 1230.64 1092.71C1230.64 1090.11 1229.03 1088 1227.04 1088C1225.05 1088 1223.44 1090.11 1223.44 1092.71C1223.44 1095.31 1225.05 1097.41 1227.04 1097.41Z" fill="#3F3D56"/>
<path d="M1227.04 1091.66C1229.03 1091.66 1230.64 1089.55 1230.64 1086.96C1230.64 1084.36 1229.03 1082.25 1227.04 1082.25C1225.05 1082.25 1223.44 1084.36 1223.44 1086.96C1223.44 1089.55 1225.05 1091.66 1227.04 1091.66Z" fill="#3F3D56"/>
<path d="M1227.04 1085.92C1229.03 1085.92 1230.64 1083.81 1230.64 1081.21C1230.64 1078.62 1229.03 1076.51 1227.04 1076.51C1225.05 1076.51 1223.44 1078.62 1223.44 1081.21C1223.44 1083.81 1225.05 1085.92 1227.04 1085.92Z" fill="#3F3D56"/>
<path d="M1227.04 1080.18C1229.03 1080.18 1230.64 1078.07 1230.64 1075.47C1230.64 1072.88 1229.03 1070.77 1227.04 1070.77C1225.05 1070.77 1223.44 1072.88 1223.44 1075.47C1223.44 1078.07 1225.05 1080.18 1227.04 1080.18Z" fill="#3F3D56"/>
<path d="M1227.04 1074.43C1229.03 1074.43 1230.64 1072.32 1230.64 1069.72C1230.64 1067.12 1229.03 1065.02 1227.04 1065.02C1225.05 1065.02 1223.44 1067.12 1223.44 1069.72C1223.44 1072.32 1225.05 1074.43 1227.04 1074.43Z" fill="#3F3D56"/>
<path d="M1227.04 1068.69C1229.03 1068.69 1230.64 1066.58 1230.64 1063.98C1230.64 1061.38 1229.03 1059.28 1227.04 1059.28C1225.05 1059.28 1223.44 1061.38 1223.44 1063.98C1223.44 1066.58 1225.05 1068.69 1227.04 1068.69Z" fill="#3F3D56"/>
<path d="M1227.04 1062.94C1229.03 1062.94 1230.64 1060.84 1230.64 1058.24C1230.64 1055.64 1229.03 1053.53 1227.04 1053.53C1225.05 1053.53 1223.44 1055.64 1223.44 1058.24C1223.44 1060.84 1225.05 1062.94 1227.04 1062.94Z" fill="#3F3D56"/>
<path d="M1240.48 1018.93C1240.97 1018.31 1241.42 1017.65 1241.82 1016.96L1232.38 1015.41L1242.58 1015.48C1243.56 1013.35 1244.1 1011.04 1244.15 1008.7C1244.21 1006.36 1243.79 1004.03 1242.91 1001.85L1229.22 1008.96L1241.85 999.673C1240.67 997.617 1239.08 995.827 1237.18 994.415C1235.28 993.002 1233.11 991.998 1230.8 991.464C1228.49 990.93 1226.09 990.878 1223.76 991.312C1221.44 991.746 1219.22 992.656 1217.26 993.985C1215.3 995.314 1213.63 997.034 1212.37 999.037C1211.1 1001.04 1210.26 1003.28 1209.9 1005.62C1209.54 1007.97 1209.67 1010.36 1210.28 1012.65C1210.89 1014.94 1211.96 1017.08 1213.43 1018.93C1212.67 1019.9 1212.01 1020.95 1211.47 1022.06L1223.66 1028.43L1210.61 1024.04C1209.68 1026.75 1209.46 1029.64 1209.94 1032.46C1210.42 1035.28 1211.6 1037.94 1213.37 1040.19C1211.38 1042.72 1210.14 1045.77 1209.79 1048.98C1209.44 1052.19 1210.01 1055.43 1211.42 1058.33C1212.83 1061.24 1215.03 1063.69 1217.77 1065.4C1220.5 1067.11 1223.67 1068.02 1226.89 1068.02C1230.12 1068.02 1233.29 1067.11 1236.02 1065.4C1238.76 1063.69 1240.96 1061.24 1242.37 1058.33C1243.78 1055.43 1244.34 1052.19 1244 1048.98C1243.65 1045.77 1242.41 1042.72 1240.41 1040.19C1242.8 1037.16 1244.1 1033.41 1244.1 1029.56C1244.1 1025.7 1242.8 1021.96 1240.41 1018.93H1240.48Z" fill="#99FF12"/>
<path opacity="0.1" d="M1209.75 1029.56C1209.74 1033.41 1211.03 1037.16 1213.41 1040.19C1211.41 1042.72 1210.17 1045.77 1209.83 1048.98C1209.48 1052.19 1210.05 1055.43 1211.46 1058.33C1212.87 1061.24 1215.07 1063.69 1217.8 1065.4C1220.54 1067.11 1223.7 1068.02 1226.93 1068.02C1230.16 1068.02 1233.32 1067.11 1236.06 1065.4C1238.79 1063.69 1240.99 1061.24 1242.4 1058.33C1243.81 1055.43 1244.38 1052.19 1244.03 1048.98C1243.69 1045.77 1242.45 1042.72 1240.45 1040.19C1242.78 1037.26 1209.75 1027.63 1209.75 1029.56Z" fill="black"/>
<path d="M1113.92 943.909H378.76V1112.72H1113.92V943.909Z" fill="#46455B"/>
<path d="M383.637 769.002L314.144 821.413L367.788 870.168L398.267 821.413L439.719 769.002H383.637Z" fill="#46455B"/>
<path d="M1101.73 832.383L1091.98 821.413L1029.8 786.066L1087.1 784.847L1176.1 821.413L1139.53 844.572L1101.73 832.383Z" fill="#46455B"/>
<path d="M378.76 834.821L439.719 769.002V920.142L398.267 954.27L372.664 918.923L378.76 834.821Z" fill="#46455B"/>
<path d="M1102.95 861.636L1091.98 821.413L1071.25 794.598L1029.8 786.066V954.27H1113.92L1102.95 861.636Z" fill="#46455B"/>
<path d="M453.191 723.904H1022.43C1027.45 723.904 1032.28 725.901 1035.83 729.455C1039.39 733.01 1041.38 737.83 1041.38 742.857V916.485H434.233V742.857C434.233 737.83 436.23 733.01 439.786 729.455C443.341 725.901 448.163 723.904 453.191 723.904V723.904Z" fill="#46455B"/>
<path d="M398.267 954.27L439.719 903.077H1029.8L1091.98 954.27H398.267Z" fill="#46455B"/>
<path opacity="0.05" d="M398.267 954.27L439.719 903.077H1029.8L1091.98 954.27H398.267Z" fill="black"/>
<path d="M398.267 821.413H314.144V1112.72H398.267V821.413Z" fill="#46455B"/>
<path opacity="0.05" d="M398.267 821.413H314.144V1112.72H398.267V821.413Z" fill="white"/>
<path d="M1176.1 821.413H1091.98V1112.72H1176.1V821.413Z" fill="#46455B"/>
<path opacity="0.05" d="M1176.1 821.413H1091.98V1112.72H1176.1V821.413Z" fill="white"/>
<path d="M663.438 767.174C717.305 767.174 760.973 709.602 760.973 638.583C760.973 567.564 717.305 509.992 663.438 509.992C609.572 509.992 565.904 567.564 565.904 638.583C565.904 709.602 609.572 767.174 663.438 767.174Z" fill="#2F2E41"/>
<path d="M706.11 583.125H597.603V734.264H706.11V583.125Z" fill="#2F2E41"/>
<path opacity="0.1" d="M706.11 583.125H597.603V734.264H706.11V583.125Z" fill="black"/>
<path d="M605.479 671.761C602.084 675.894 597.701 679.104 592.735 681.094C587.77 683.084 582.382 683.789 577.072 683.145C576.584 690.726 581.729 697.381 586.594 703.219L624.669 748.89C624.818 749.252 625.065 749.566 625.381 749.797C625.697 750.028 626.071 750.168 626.462 750.2C626.852 750.233 627.244 750.158 627.594 749.983C627.945 749.807 628.24 749.539 628.448 749.207L686.603 694.054C680.8 696.491 673.936 692.628 670.753 687.191C667.571 681.755 667.254 675.222 666.962 668.908C666.539 659.482 666.133 650.065 665.743 640.655C665.645 638.559 665.438 636.243 663.889 634.829C662.685 633.922 661.247 633.377 659.744 633.256C650.564 631.684 621.95 623.506 616.646 633.159C614.208 637.559 615.305 646.14 614.208 651.113C612.562 658.487 610.233 665.837 605.479 671.761Z" fill="#FFB8B8"/>
<path opacity="0.1" d="M605.479 671.761C602.084 675.894 597.701 679.104 592.735 681.094C587.77 683.084 582.382 683.789 577.072 683.145C576.584 690.726 581.729 697.381 586.594 703.219L624.669 748.89C624.818 749.252 625.065 749.566 625.381 749.797C625.697 750.028 626.071 750.168 626.462 750.2C626.852 750.233 627.244 750.158 627.594 749.983C627.945 749.807 628.24 749.539 628.448 749.207L686.603 694.054C680.8 696.491 673.936 692.628 670.753 687.191C667.571 681.755 667.254 675.222 666.962 668.908C666.539 659.482 666.133 650.065 665.743 640.655C665.645 638.559 665.438 636.243 663.889 634.829C662.685 633.922 661.247 633.377 659.744 633.256C650.564 631.684 621.95 623.506 616.646 633.159C614.208 637.559 615.305 646.14 614.208 651.113C612.562 658.487 610.233 665.837 605.479 671.761Z" fill="black"/>
<path d="M647.589 662.351C679.236 662.351 704.89 636.703 704.89 605.064C704.89 573.426 679.236 547.777 647.589 547.777C615.942 547.777 590.288 573.426 590.288 605.064C590.288 636.703 615.942 662.351 647.589 662.351Z" fill="#FFB8B8"/>
<path d="M626.863 720.418L617.67 691.445C614.013 679.842 608.819 666.69 597.237 662.948C589.922 660.608 582.034 662.753 574.414 662.107C559.589 660.827 545.154 649.041 531.292 654.441C514.223 661.071 514.369 687.277 499.215 697.564C499.215 722.051 507.127 744.795 511.407 768.892C515.686 792.989 516.918 819 505.75 840.805C501.019 850.044 494.253 858.089 489.206 867.157C480.931 882.111 477.546 899.279 479.525 916.253C544.239 917.066 608.961 917.261 673.692 916.838C673.094 908.453 669.351 900.189 668.742 891.803C668.376 889.272 668.576 886.691 669.327 884.246C670.753 880.589 674.387 878.407 677.495 876.031C681.661 872.822 685.188 868.861 687.895 864.354C692.211 857.175 694.259 848.899 696.259 840.757L720.496 742.028C723.385 730.266 726.189 717.432 721.166 706.413C715.656 694.31 702.44 688.02 690.236 682.718C682.921 679.513 674.508 676.27 667.071 679.22C660.976 681.658 657.147 687.496 653.295 692.786C645.841 703.205 636.941 712.509 626.863 720.418V720.418Z" fill="#FFB8B8"/>
<path opacity="0.1" d="M498.569 706.255C496.667 713.373 497.728 720.978 496.326 728.194C493.973 740.273 485.158 749.878 479.257 760.653C470.112 777.384 467.797 797.004 472.796 815.404C474.283 820.779 476.929 826.532 482.147 828.507C485.877 829.933 490.047 829.043 494.034 829.397C499.3 829.86 504.775 832.468 509.639 830.396C515.65 827.837 516.844 820.024 517.503 813.527C519.02 798.461 522.264 783.62 527.171 769.294C532.048 754.96 538.741 740.736 538.643 725.586C538.57 714.908 524.891 724.733 515.967 718.407C505.896 711.313 501.873 693.956 498.569 706.255Z" fill="black"/>
<path d="M496.13 705.036C494.229 712.154 495.289 719.76 493.887 726.975C491.534 739.054 482.72 748.659 476.819 759.434C467.674 776.165 465.358 795.785 470.357 814.185C471.844 819.561 474.49 825.314 479.708 827.288C483.439 828.714 487.608 827.824 491.595 828.178C496.862 828.641 502.336 831.249 507.201 829.177C513.211 826.618 514.406 818.805 515.064 812.308C516.581 797.242 519.825 782.401 524.732 768.076C529.609 753.742 536.302 739.517 536.205 724.367C536.132 713.69 531.438 701.891 522.514 695.565C512.443 688.471 499.434 692.737 496.13 705.036Z" fill="#FFB8B8"/>
<path d="M579.559 638.01C586.874 633.915 594.079 629.478 601.614 625.675C613.391 619.788 626.631 615.193 635.897 606.173C636.374 605.718 636.96 605.393 637.599 605.228C638.237 605.064 638.907 605.065 639.545 605.232C640.183 605.4 640.768 605.727 641.243 606.184C641.718 606.641 642.069 607.212 642.261 607.843C646.248 620.824 650.965 633.57 656.391 646.018C661.073 656.744 666.291 667.275 669.802 678.44C672.241 686.204 673.765 694.285 676.801 701.757C680.763 711.508 687.09 720.186 693.369 728.694C695.673 731.839 698.051 735.032 701.282 737.226C705.817 740.31 712.583 742.284 713.059 747.745C707.17 751.999 699.16 750.597 691.906 750.536C684.652 750.475 677.276 751.974 670.107 753.742C661.733 755.652 653.566 758.379 645.724 761.884C638.092 765.479 631.094 770.209 624.022 774.913L559.199 818.39C554.432 812.942 554.614 804.983 553.59 797.767C552.717 792.575 551.461 787.454 549.835 782.446L543.374 760.689C540.301 750.353 537.278 740.029 533.815 729.803C530.962 721.271 527.793 712.654 522.209 705.609C515.479 697.076 505.799 691.543 497.398 684.681C494.424 682.243 491.485 679.464 490.376 675.783C490.008 674.581 489.904 673.314 490.073 672.068C490.241 670.823 490.677 669.628 491.351 668.567C493.131 665.995 495.679 666.373 498.508 665.922C505.408 664.825 512.252 663.44 519.039 661.766C532.502 658.426 545.662 653.965 558.382 648.431C565.607 645.311 572.666 641.837 579.559 638.01Z" fill="#BBBDC8"/>
<path opacity="0.1" d="M582.217 647.03C588.642 643.471 594.884 639.57 601.455 636.279C611.745 631.136 623.279 627.138 631.362 619.3C631.777 618.9 632.288 618.613 632.846 618.466C633.404 618.32 633.99 618.32 634.549 618.465C635.107 618.611 635.618 618.898 636.034 619.298C636.449 619.698 636.755 620.199 636.921 620.751C640.397 632.075 644.512 643.192 649.247 654.05C653.331 663.411 657.879 672.602 660.915 682.34C663.012 689.105 664.365 696.114 667.011 702.683C670.461 711.215 675.996 718.76 681.458 726.183C683.322 729.033 685.655 731.546 688.358 733.618C692.333 736.312 698.234 738.03 698.636 742.808C693.503 746.465 686.517 745.246 680.19 745.246C673.761 745.375 667.375 746.317 661.183 748.049C653.883 749.712 646.764 752.093 639.933 755.155C633.341 758.473 627.012 762.287 620.999 766.564L564.441 804.434C560.284 799.681 560.454 792.697 559.564 786.432C558.807 781.888 557.714 777.407 556.297 773.024L550.652 754.046C547.97 745.027 545.288 736.019 542.313 727.097C539.875 719.65 537.071 712.142 532.194 705.986C526.317 698.563 517.881 693.725 510.541 687.703C507.957 685.595 505.384 683.157 504.445 679.951C504.124 678.904 504.033 677.799 504.181 676.713C504.328 675.627 504.71 674.586 505.299 673.662C506.847 671.407 509.078 671.736 511.541 671.346C517.564 670.395 523.534 669.177 529.451 667.69C541.197 664.784 552.678 660.894 563.771 656.062C570.07 653.347 576.218 650.337 582.217 647.03Z" fill="black"/>
<path d="M558.552 696.65C561.246 696.65 563.429 694.467 563.429 691.774C563.429 689.082 561.246 686.899 558.552 686.899C555.859 686.899 553.676 689.082 553.676 691.774C553.676 694.467 555.859 696.65 558.552 696.65Z" fill="#BBBDC8"/>
<path d="M610.55 672.577C613.244 672.577 615.427 670.394 615.427 667.702C615.427 665.009 613.244 662.826 610.55 662.826C607.857 662.826 605.674 665.009 605.674 667.702C605.674 670.394 607.857 672.577 610.55 672.577Z" fill="#BBBDC8"/>
<path d="M583.143 749.744C585.837 749.744 588.02 747.561 588.02 744.868C588.02 742.176 585.837 739.993 583.143 739.993C580.45 739.993 578.267 742.176 578.267 744.868C578.267 747.561 580.45 749.744 583.143 749.744Z" fill="#BBBDC8"/>
<path d="M635.141 725.671C637.835 725.671 640.018 723.488 640.018 720.796C640.018 718.103 637.835 715.92 635.141 715.92C632.448 715.92 630.265 718.103 630.265 720.796C630.265 723.488 632.448 725.671 635.141 725.671Z" fill="#BBBDC8"/>
<path d="M507.737 775.511C512.614 774.109 517.747 772.573 521.331 768.978C524.111 766.174 525.659 762.408 527.61 758.971C531.499 752.108 537.656 746.026 545.398 744.515C553.139 743.003 562.234 747.477 563.893 755.192C564.965 760.214 562.868 765.321 560.784 770.026C557.663 777.071 554.139 784.457 547.702 788.711C542.069 792.429 534.888 793.245 529.353 797.109C524.477 800.522 521.404 805.921 517.161 810.126C511.615 815.587 504.279 818.856 496.509 819.329C495.329 819.468 494.133 819.305 493.034 818.854C491.957 818.216 491.053 817.325 490.401 816.257C486.816 811.382 483.183 806.36 481.281 800.595C474.661 780.496 493.4 779.618 507.737 775.511Z" fill="#FFB8B8"/>
<path d="M637.628 778.192C635.982 768.368 635.763 757.654 629.692 749.756C624.608 743.162 616.159 739.822 607.844 739.262C605.406 739.091 602.54 739.335 601.126 741.334C600.321 742.744 600 744.379 600.212 745.99C600.726 758.473 605.385 770.43 613.452 779.972C616.488 783.531 620.011 786.773 622.133 790.942C623.986 794.537 624.669 798.645 626.388 802.301C628.631 807.067 632.483 810.833 635.434 815.221C639.617 821.507 641.786 828.918 641.652 836.466C644.87 831.213 644.48 824.643 644.785 818.488C645.187 809.822 651.259 805.08 647.321 798.011C643.383 790.942 639.055 786.785 637.628 778.192Z" fill="#FFB8B8"/>
<path opacity="0.1" d="M682.628 768.405C679.544 776.449 677.959 785.054 674.326 792.867C673.368 795.311 671.725 797.427 669.595 798.962C665.694 801.399 660.537 799.888 656.66 797.462C652.783 795.037 649.345 791.697 645.114 790.088C643.212 808.603 627.826 824.899 609.441 827.873C620.414 837.953 631.971 849.155 634.446 863.83C634.91 866.523 635.068 869.388 636.507 871.716C638.823 875.433 643.712 876.652 648.101 876.591C659.257 876.506 669.485 870.619 678.8 864.403C681.945 862.331 685.128 860.112 687.225 856.992C689.321 853.872 690.224 849.91 691.016 846.132C696.405 820.528 701.79 794.911 707.17 769.282C708.633 762.322 708.389 748.647 697.588 750.024C690.26 751.097 684.896 762.517 682.628 768.405Z" fill="black"/>
<path d="M685.067 768.405C681.982 776.449 680.397 785.054 676.764 792.867C675.806 795.311 674.164 797.427 672.034 798.962C668.132 801.399 662.975 799.888 659.098 797.462C655.221 795.037 651.783 791.697 647.552 790.088C645.65 808.603 630.264 824.899 611.879 827.873C622.852 837.953 634.41 849.155 636.885 863.83C637.348 866.523 637.506 869.388 638.945 871.716C641.261 875.433 646.15 876.652 650.539 876.591C661.695 876.506 671.924 870.619 681.238 864.403C684.384 862.331 687.566 860.112 689.663 856.992C691.76 853.872 692.662 849.91 693.454 846.132C698.843 820.528 704.228 794.911 709.609 769.282C711.072 762.322 710.828 748.647 700.026 750.024C692.699 751.097 687.334 762.517 685.067 768.405Z" fill="#FFB8B8"/>
<path d="M507.213 815.94C506.774 818.171 504.567 819.524 502.568 820.597C498.703 822.681 494.497 824.838 490.144 824.253C485.792 823.668 482.147 820.45 479.294 817.037C477.872 815.414 476.645 813.63 475.636 811.723C471.235 803.033 470.759 766.052 488.95 778.119C496.46 783.116 492.229 791.648 493.168 798.998C493.579 803.357 495.319 807.484 498.154 810.821C498.703 811.455 506.932 817.379 507.213 815.94Z" fill="#FFB8B8"/>
<path d="M662.829 591.657C692.792 591.657 717.082 580.197 717.082 566.06C717.082 551.924 692.792 540.464 662.829 540.464C632.865 540.464 608.575 551.924 608.575 566.06C608.575 580.197 632.865 591.657 662.829 591.657Z" fill="#2F2E41"/>
<path opacity="0.1" d="M665.267 583.125C635.909 583.125 612.026 572.155 611.063 558.382C609.505 560.642 608.656 563.316 608.624 566.06C608.624 580.199 632.91 591.657 662.878 591.657C692.845 591.657 717.131 580.199 717.131 566.06C717.131 565.768 717.131 565.488 717.131 565.207C710.121 575.592 689.565 583.125 665.267 583.125Z" fill="black"/>
<path d="M901.178 764.736C975.245 764.736 1035.29 710.165 1035.29 642.849C1035.29 575.533 975.245 520.962 901.178 520.962C827.111 520.962 767.068 575.533 767.068 642.849C767.068 710.165 827.111 764.736 901.178 764.736Z" fill="#2F2E41"/>
<path opacity="0.1" d="M901.178 733.045C833.258 733.045 777.127 687.143 768.288 627.613C767.481 633.061 767.073 638.561 767.068 644.068C767.068 711.386 827.113 765.955 901.178 765.955C975.243 765.955 1035.29 711.386 1035.29 644.068C1035.28 638.561 1034.88 633.061 1034.07 627.613C1025.23 687.143 969.098 733.045 901.178 733.045Z" fill="black"/>
<path d="M898.74 734.264C934.426 734.264 963.356 695.246 963.356 647.115C963.356 598.984 934.426 559.966 898.74 559.966C863.053 559.966 834.123 598.984 834.123 647.115C834.123 695.246 863.053 734.264 898.74 734.264Z" fill="#2F2E41"/>
<path opacity="0.1" d="M898.74 734.264C934.426 734.264 963.356 695.246 963.356 647.115C963.356 598.984 934.426 559.966 898.74 559.966C863.053 559.966 834.123 598.984 834.123 647.115C834.123 695.246 863.053 734.264 898.74 734.264Z" fill="black"/>
<path d="M869.028 691.287C866.59 697.308 861.713 703.707 854.398 704.17C864.152 712.178 874.027 720.272 885.682 726.11C897.338 731.948 911.139 735.373 924.403 733.277C933.767 731.802 942.277 727.695 950.226 723.197C963.758 715.542 977.047 705.487 980.473 691.86C970.312 692.37 960.128 692.179 949.994 691.287C944.739 690.836 939.363 690.141 934.803 687.85C932.004 686.373 929.529 684.349 927.525 681.9C925.521 679.451 924.029 676.625 923.135 673.589C921.319 667.836 921.355 661.778 921.685 655.818C921.868 652.344 922.002 648.505 919.332 645.848C916.662 643.19 912.248 642.837 908.237 642.752C900.169 642.588 892.102 643.065 884.11 644.178C879.917 644.612 875.764 645.366 871.686 646.433C866.395 648.041 866.895 647.42 868.175 651.844C872.149 665.398 874.576 677.587 869.028 691.287Z" fill="#FFB8B8"/>
<path opacity="0.1" d="M869.028 691.287C866.59 697.308 861.713 703.707 854.398 704.17C864.152 712.178 874.027 720.272 885.682 726.11C897.338 731.948 911.139 735.373 924.403 733.277C933.767 731.802 942.277 727.695 950.226 723.197C963.758 715.542 977.047 705.487 980.473 691.86C970.312 692.37 960.128 692.179 949.994 691.287C944.739 690.836 939.363 690.141 934.803 687.85C932.004 686.373 929.529 684.349 927.525 681.9C925.521 679.451 924.029 676.625 923.135 673.589C921.319 667.836 921.355 661.778 921.685 655.818C921.868 652.344 922.002 648.505 919.332 645.848C916.662 643.19 912.248 642.837 908.237 642.752C900.169 642.588 892.102 643.065 884.11 644.178C879.917 644.612 875.764 645.366 871.686 646.433C866.395 648.041 866.895 647.42 868.175 651.844C872.149 665.398 874.576 677.587 869.028 691.287Z" fill="black"/>
<path d="M896.911 678.806C928.558 678.806 954.212 653.158 954.212 621.519C954.212 589.88 928.558 564.232 896.911 564.232C865.264 564.232 839.61 589.88 839.61 621.519C839.61 653.158 865.264 678.806 896.911 678.806Z" fill="#FFB8B8"/>
<path d="M877.16 696.333C873.417 691.848 869.565 687.265 864.578 684.217C856.41 679.208 846.291 678.891 836.72 678.733C826.345 678.55 815.067 678.647 806.862 684.997C803.205 687.862 800.401 691.787 797.731 695.638L762.972 745.612C761.619 747.562 760.192 749.768 760.534 752.121C760.922 753.813 761.765 755.368 762.972 756.618L801.205 804.349C803.388 807.067 805.643 809.931 806.375 813.344C807.106 816.757 806.204 820.341 805.034 823.656C800.413 836.807 791.623 849.252 792.427 863.111C793 872.155 797.731 880.467 803.522 887.488C816.811 903.492 835.94 913.901 855.947 919.581C875.953 925.261 896.96 926.504 917.771 926.638C957.004 926.894 998.237 922.616 1030.64 900.493L1005.17 876.506C1000.14 871.752 994.86 866.633 993.116 859.929C991.897 855.42 992.482 850.666 993.031 846.047C994.055 837.6 995.079 829.092 997.81 821.048C1005.41 798.633 1024.92 782.678 1037.95 762.92C1039.58 760.482 1041.16 757.679 1040.98 754.717C1040.83 752.218 1039.44 749.988 1038.09 747.891C1032.14 738.664 1025.97 729.486 1021.66 719.394C1018.44 711.886 1016.26 703.902 1012.27 696.772C1008.28 689.641 1001.96 683.23 993.982 681.731C983.716 679.805 973.707 686.229 963.283 686.667C955.651 686.996 947.69 684.132 940.557 686.85C932.096 690.08 928.366 699.612 923.623 707.352C920.124 713.117 909.688 728.889 901.507 725.013C897.057 722.892 892.973 715.262 889.779 711.52L877.16 696.333Z" fill="#FFB8B8"/>
<path d="M922.806 735.081C920.875 733.992 918.632 733.588 916.442 733.935C915.36 734.143 914.378 734.702 913.648 735.527C912.918 736.352 912.481 737.395 912.407 738.494L908.883 738.286C908.476 738.243 908.065 738.264 907.664 738.347C907.155 738.457 906.71 738.765 906.428 739.203C906.145 739.64 906.048 740.172 906.158 740.682C906.268 741.191 906.576 741.635 907.014 741.918C907.452 742.2 907.984 742.297 908.493 742.187C906.764 742.872 905.222 743.958 903.994 745.356C903.074 746.739 902.738 748.429 903.057 750.058C903.377 751.688 904.327 753.126 905.701 754.059C907.143 754.887 908.838 755.161 910.468 754.829C912.098 754.497 913.55 753.582 914.552 752.255C914.346 752.983 914.405 753.76 914.717 754.45C915.03 755.139 915.576 755.696 916.259 756.021C922.867 759.592 926.232 754.741 927.134 749.122C928.158 742.955 929.475 738.372 922.806 735.081Z" fill="#FFE9B3"/>
<path opacity="0.15" d="M922.806 735.081C920.875 733.992 918.632 733.588 916.442 733.935C915.36 734.143 914.378 734.702 913.648 735.527C912.918 736.352 912.481 737.395 912.407 738.494L908.883 738.286C908.476 738.243 908.065 738.264 907.664 738.347C907.155 738.457 906.71 738.765 906.428 739.203C906.145 739.64 906.048 740.172 906.158 740.682C906.268 741.191 906.576 741.635 907.014 741.918C907.452 742.2 907.984 742.297 908.493 742.187C906.764 742.872 905.222 743.958 903.994 745.356C903.074 746.739 902.738 748.429 903.057 750.058C903.377 751.688 904.327 753.126 905.701 754.059C907.143 754.887 908.838 755.161 910.468 754.829C912.098 754.497 913.55 753.582 914.552 752.255C914.346 752.983 914.405 753.76 914.717 754.45C915.03 755.139 915.576 755.696 916.259 756.021C922.867 759.592 926.232 754.741 927.134 749.122C928.158 742.955 929.475 738.372 922.806 735.081Z" fill="black"/>
<path d="M940.801 730.937C938.871 729.847 936.626 729.447 934.437 729.803C933.357 730.007 932.375 730.564 931.646 731.387C930.918 732.21 930.484 733.253 930.414 734.35L926.891 734.142C926.483 734.1 926.072 734.121 925.671 734.203C925.195 734.353 924.791 734.673 924.536 735.103C924.282 735.533 924.196 736.042 924.294 736.531C924.423 737.014 924.729 737.431 925.151 737.7C925.573 737.968 926.081 738.069 926.574 737.982C924.846 738.67 923.305 739.756 922.075 741.151C921.158 742.534 920.823 744.223 921.143 745.852C921.462 747.481 922.41 748.918 923.782 749.854C925.224 750.684 926.92 750.961 928.552 750.631C930.183 750.301 931.639 749.388 932.645 748.062C932.439 748.787 932.496 749.561 932.806 750.248C933.116 750.936 933.66 751.491 934.34 751.816C940.96 755.399 944.313 750.597 945.227 744.929C946.166 738.811 947.507 734.228 940.801 730.937Z" fill="#FFE9B3"/>
<path d="M955.48 733.033C953.553 731.946 951.313 731.546 949.128 731.899C948.046 732.101 947.061 732.657 946.33 733.48C945.599 734.304 945.164 735.347 945.093 736.446L941.569 736.239C941.162 736.195 940.751 736.216 940.35 736.3C939.874 736.449 939.469 736.77 939.215 737.2C938.961 737.629 938.874 738.138 938.973 738.628C939.102 739.111 939.408 739.528 939.83 739.796C940.252 740.065 940.76 740.165 941.252 740.078C939.521 740.76 937.979 741.847 936.754 743.247C935.834 744.63 935.497 746.32 935.817 747.949C936.136 749.579 937.086 751.017 938.46 751.95C939.9 752.783 941.595 753.06 943.226 752.73C944.856 752.4 946.309 751.485 947.312 750.158C947.107 750.885 947.165 751.66 947.478 752.348C947.79 753.035 948.336 753.589 949.019 753.912C955.626 757.496 958.979 752.632 959.894 747.026C960.845 740.968 962.137 736.324 955.48 733.033Z" fill="#FFE9B3"/>
<path opacity="0.15" d="M955.48 733.033C953.553 731.946 951.313 731.546 949.128 731.899C948.046 732.101 947.061 732.657 946.33 733.48C945.599 734.304 945.164 735.347 945.093 736.446L941.569 736.239C941.162 736.195 940.751 736.216 940.35 736.3C939.874 736.449 939.469 736.77 939.215 737.2C938.961 737.629 938.874 738.138 938.973 738.628C939.102 739.111 939.408 739.528 939.83 739.796C940.252 740.065 940.76 740.165 941.252 740.078C939.521 740.76 937.979 741.847 936.754 743.247C935.834 744.63 935.497 746.32 935.817 747.949C936.136 749.579 937.086 751.017 938.46 751.95C939.9 752.783 941.595 753.06 943.226 752.73C944.856 752.4 946.309 751.485 947.312 750.158C947.107 750.885 947.165 751.66 947.478 752.348C947.79 753.035 948.336 753.589 949.019 753.912C955.626 757.496 958.979 752.632 959.894 747.026C960.845 740.968 962.137 736.324 955.48 733.033Z" fill="black"/>
<path d="M991.397 741.577V872.508C991.394 873.341 991.062 874.139 990.472 874.728C989.883 875.317 989.085 875.65 988.252 875.653H886.036C885.203 875.65 884.404 875.317 883.815 874.728C883.226 874.139 882.894 873.341 882.89 872.508V741.577C882.889 741.055 883.019 740.541 883.267 740.081C883.514 739.621 883.873 739.23 884.31 738.943C884.746 738.656 885.248 738.483 885.768 738.439C886.289 738.394 886.813 738.48 887.292 738.689C889.893 739.81 892.489 740.846 895.082 741.797C898.74 743.138 902.397 744.304 906.055 745.295C909.712 746.282 913.37 747.099 917.027 747.733C920.685 748.367 924.342 748.854 928 749.147C931.658 749.439 935.315 749.561 938.973 749.488C942.63 749.415 946.288 749.208 949.945 748.805C953.603 748.403 957.26 747.806 960.918 747.038C964.575 746.27 968.233 745.368 971.89 744.259C974.731 743.394 977.584 742.431 980.425 741.358C982.619 740.541 984.802 739.652 986.996 738.701C987.474 738.493 987.997 738.407 988.516 738.451C989.036 738.494 989.536 738.667 989.973 738.952C990.409 739.237 990.768 739.627 991.017 740.085C991.265 740.543 991.396 741.056 991.397 741.577V741.577Z" fill="#BBBDC8"/>
<path d="M906.055 745.295V875.714H895.082V741.797C898.74 743.138 902.397 744.304 906.055 745.295Z" fill="white"/>
<path d="M928 749.134V875.653H917.027V747.672C920.685 748.379 924.342 748.842 928 749.134Z" fill="white"/>
<path d="M949.945 748.793V875.653H938.973V749.5C942.63 749.435 946.288 749.199 949.945 748.793Z" fill="white"/>
<path d="M971.89 744.247V875.653H960.918V747.062C964.575 746.298 968.233 745.36 971.89 744.247Z" fill="white"/>
<path opacity="0.1" d="M991.397 741.577V872.508C991.394 873.341 991.062 874.139 990.472 874.728C989.883 875.317 989.085 875.65 988.252 875.653H980.425V741.346C982.619 740.529 984.802 739.639 986.996 738.689C987.475 738.48 987.999 738.394 988.519 738.439C989.04 738.483 989.541 738.656 989.978 738.943C990.415 739.23 990.773 739.621 991.021 740.081C991.269 740.541 991.398 741.055 991.397 741.577Z" fill="black"/>
<path d="M911.431 728.84C909.504 727.753 907.264 727.353 905.079 727.707C903.997 727.908 903.012 728.464 902.281 729.287C901.55 730.111 901.115 731.154 901.044 732.253L897.521 732.046C897.113 732.002 896.702 732.023 896.301 732.107C895.825 732.256 895.421 732.577 895.166 733.007C894.912 733.437 894.826 733.945 894.924 734.435C895.053 734.918 895.359 735.335 895.781 735.603C896.204 735.872 896.711 735.972 897.204 735.885C895.472 736.567 893.93 737.654 892.705 739.054C891.785 740.437 891.448 742.127 891.768 743.757C892.087 745.386 893.038 746.824 894.412 747.757C895.852 748.587 897.546 748.863 899.176 748.533C900.806 748.203 902.259 747.29 903.263 745.965C903.058 746.692 903.116 747.467 903.429 748.155C903.741 748.842 904.287 749.396 904.97 749.719C911.578 753.291 914.93 748.44 915.845 742.833C916.796 736.714 918.112 732.131 911.431 728.84Z" fill="#FFE9B3"/>
<path d="M929.719 708.119C927.792 707.032 925.552 706.632 923.367 706.986C922.284 707.187 921.3 707.743 920.569 708.567C919.838 709.39 919.403 710.434 919.332 711.532L915.808 711.325C915.401 711.282 914.99 711.302 914.589 711.386C914.112 711.536 913.708 711.856 913.454 712.286C913.199 712.716 913.113 713.224 913.211 713.714C913.341 714.197 913.647 714.614 914.069 714.883C914.491 715.151 914.999 715.252 915.491 715.164C913.76 715.847 912.217 716.933 910.992 718.334C910.072 719.716 909.736 721.406 910.055 723.036C910.375 724.666 911.325 726.103 912.699 727.036C914.14 727.866 915.834 728.142 917.464 727.812C919.093 727.483 920.546 726.57 921.551 725.245C921.345 725.971 921.404 726.747 921.717 727.434C922.029 728.121 922.575 728.676 923.257 728.999C929.865 732.57 933.218 727.719 934.132 722.112C935.083 715.993 936.4 711.41 929.719 708.119Z" fill="#FFE9B3"/>
<path d="M942.142 736.263C943.589 734.582 944.419 732.458 944.496 730.242C944.517 729.138 944.169 728.058 943.507 727.174C942.844 726.291 941.904 725.655 940.838 725.366L941.728 721.954C941.857 721.561 941.919 721.148 941.911 720.735C941.891 720.221 941.669 719.735 941.291 719.386C940.914 719.036 940.413 718.85 939.899 718.87C939.385 718.889 938.9 719.112 938.55 719.489C938.2 719.866 938.014 720.367 938.034 720.881C937.701 719.053 936.936 717.332 935.803 715.859C934.621 714.692 933.026 714.038 931.365 714.038C929.704 714.038 928.109 714.692 926.927 715.859C925.827 717.106 925.219 718.712 925.219 720.375C925.219 722.038 925.827 723.644 926.927 724.891C926.252 724.55 925.478 724.458 924.742 724.632C924.006 724.806 923.355 725.234 922.904 725.842C918.112 731.619 922.221 735.861 927.549 737.848C933.377 739.993 937.619 742.187 942.142 736.263Z" fill="#FFE9B3"/>
<path d="M957.992 736.263C959.438 734.582 960.268 732.458 960.345 730.242C960.367 729.138 960.019 728.058 959.356 727.174C958.693 726.291 957.754 725.655 956.687 725.366L957.577 721.954C957.707 721.561 957.769 721.148 957.76 720.735C957.741 720.221 957.518 719.735 957.141 719.386C956.763 719.036 956.263 718.85 955.749 718.87C955.234 718.889 954.749 719.112 954.399 719.489C954.049 719.866 953.864 720.367 953.883 720.881C953.55 719.053 952.785 717.332 951.652 715.859C950.47 714.692 948.876 714.038 947.214 714.038C945.553 714.038 943.959 714.692 942.776 715.859C941.676 717.106 941.069 718.712 941.069 720.375C941.069 722.038 941.676 723.644 942.776 724.891C942.101 724.55 941.327 724.458 940.591 724.632C939.855 724.806 939.204 725.234 938.753 725.842C933.962 731.619 938.07 735.861 943.398 737.848C949.226 739.993 953.469 742.187 957.992 736.263Z" fill="#FFE9B3"/>
<path d="M967.916 746.684C969.033 744.768 969.463 742.528 969.135 740.334C968.943 739.249 968.396 738.259 967.579 737.52C966.762 736.781 965.723 736.334 964.624 736.251L964.88 732.741C964.942 732.337 964.942 731.926 964.88 731.522C964.765 731.021 964.456 730.586 964.021 730.313C963.585 730.039 963.059 729.95 962.558 730.065C962.056 730.18 961.621 730.489 961.348 730.924C961.075 731.36 960.986 731.886 961.101 732.387C960.43 730.652 959.361 729.099 957.98 727.853C956.605 726.919 954.919 726.564 953.284 726.866C951.65 727.167 950.201 728.1 949.25 729.462C948.404 730.895 948.11 732.587 948.425 734.221C948.739 735.855 949.64 737.318 950.957 738.335C950.231 738.123 949.454 738.175 948.763 738.48C948.071 738.786 947.51 739.326 947.178 740.005C943.52 746.575 948.397 749.988 953.956 750.975C959.991 751.938 964.575 753.315 967.916 746.684Z" fill="#FFE9B3"/>
<path d="M919.149 727.183C920.266 725.266 920.696 723.026 920.368 720.832C920.176 719.748 919.629 718.758 918.812 718.018C917.995 717.279 916.956 716.832 915.857 716.749L916.113 713.239C916.175 712.835 916.175 712.424 916.113 712.02C915.998 711.519 915.689 711.084 915.254 710.811C914.818 710.538 914.292 710.449 913.79 710.563C913.289 710.678 912.854 710.987 912.581 711.423C912.308 711.858 912.219 712.384 912.334 712.885C911.663 711.15 910.594 709.597 909.213 708.351C907.838 707.417 906.151 707.063 904.517 707.364C902.883 707.665 901.434 708.598 900.483 709.96C899.637 711.393 899.343 713.085 899.658 714.719C899.972 716.353 900.873 717.816 902.19 718.833C901.464 718.621 900.687 718.673 899.995 718.978C899.304 719.284 898.743 719.824 898.411 720.503C894.753 727.073 899.63 730.486 905.189 731.473C911.224 732.436 915.808 733.813 919.149 727.183Z" fill="#FFE9B3"/>
<path d="M924.025 720.454C922.094 719.366 919.851 718.962 917.661 719.309C916.58 719.516 915.597 720.076 914.867 720.901C914.137 721.725 913.7 722.768 913.626 723.867L910.102 723.66C909.695 723.617 909.284 723.637 908.883 723.721C908.374 723.831 907.929 724.138 907.647 724.576C907.365 725.014 907.268 725.546 907.378 726.055C907.488 726.564 907.795 727.009 908.233 727.291C908.671 727.573 909.203 727.67 909.712 727.56C907.983 728.246 906.441 729.332 905.214 730.729C904.294 732.112 903.957 733.802 904.276 735.432C904.596 737.061 905.546 738.499 906.92 739.432C908.362 740.261 910.057 740.535 911.687 740.203C913.317 739.871 914.769 738.955 915.772 737.628C915.566 738.356 915.624 739.134 915.937 739.823C916.249 740.513 916.795 741.069 917.479 741.395C924.086 744.966 927.451 740.115 928.354 734.496C929.378 728.328 930.694 723.745 924.025 720.454Z" fill="#FFE9B3"/>
<path opacity="0.15" d="M924.025 720.454C922.094 719.366 919.851 718.962 917.661 719.309C916.58 719.516 915.597 720.076 914.867 720.901C914.137 721.725 913.7 722.768 913.626 723.867L910.102 723.66C909.695 723.617 909.284 723.637 908.883 723.721C908.374 723.831 907.929 724.138 907.647 724.576C907.365 725.014 907.268 725.546 907.378 726.055C907.488 726.564 907.795 727.009 908.233 727.291C908.671 727.573 909.203 727.67 909.712 727.56C907.983 728.246 906.441 729.332 905.214 730.729C904.294 732.112 903.957 733.802 904.276 735.432C904.596 737.061 905.546 738.499 906.92 739.432C908.362 740.261 910.057 740.535 911.687 740.203C913.317 739.871 914.769 738.955 915.772 737.628C915.566 738.356 915.624 739.134 915.937 739.823C916.249 740.513 916.795 741.069 917.479 741.395C924.086 744.966 927.451 740.115 928.354 734.496C929.378 728.328 930.694 723.745 924.025 720.454Z" fill="black"/>
<path d="M976.462 724.647C974.532 723.557 972.287 723.157 970.098 723.514C969.017 723.717 968.033 724.274 967.302 725.097C966.572 725.92 966.136 726.962 966.063 728.06L962.552 727.853C962.144 727.811 961.733 727.831 961.332 727.914C960.856 728.064 960.452 728.384 960.197 728.814C959.943 729.244 959.857 729.752 959.955 730.242C960.084 730.725 960.39 731.142 960.812 731.41C961.234 731.679 961.742 731.78 962.235 731.692C960.507 732.381 958.966 733.466 957.736 734.861C956.819 736.245 956.484 737.934 956.804 739.563C957.123 741.191 958.071 742.629 959.443 743.564C960.883 744.394 962.577 744.67 964.207 744.34C965.837 744.01 967.29 743.097 968.294 741.772C968.089 742.499 968.147 743.275 968.46 743.962C968.772 744.649 969.318 745.203 970.001 745.526C976.609 749.098 979.974 744.247 980.876 738.628C981.815 732.521 983.131 727.938 976.462 724.647Z" fill="#FFE9B3"/>
<path opacity="0.15" d="M976.462 724.647C974.532 723.557 972.287 723.157 970.098 723.514C969.017 723.717 968.033 724.274 967.302 725.097C966.572 725.92 966.136 726.962 966.063 728.06L962.552 727.853C962.144 727.811 961.733 727.831 961.332 727.914C960.856 728.064 960.452 728.384 960.197 728.814C959.943 729.244 959.857 729.752 959.955 730.242C960.084 730.725 960.39 731.142 960.812 731.41C961.234 731.679 961.742 731.78 962.235 731.692C960.507 732.381 958.966 733.466 957.736 734.861C956.819 736.245 956.484 737.934 956.804 739.563C957.123 741.191 958.071 742.629 959.443 743.564C960.883 744.394 962.577 744.67 964.207 744.34C965.837 744.01 967.29 743.097 968.294 741.772C968.089 742.499 968.147 743.275 968.46 743.962C968.772 744.649 969.318 745.203 970.001 745.526C976.609 749.098 979.974 744.247 980.876 738.628C981.815 732.521 983.131 727.938 976.462 724.647Z" fill="black"/>
<path d="M944.764 703.927C942.833 702.836 940.588 702.437 938.4 702.793C937.318 702.996 936.334 703.553 935.604 704.376C934.873 705.199 934.437 706.241 934.364 707.339L930.853 707.132C930.446 707.09 930.035 707.111 929.634 707.193C929.157 707.343 928.753 707.663 928.499 708.093C928.244 708.523 928.158 709.032 928.256 709.521C928.386 710.004 928.692 710.421 929.114 710.69C929.536 710.958 930.043 711.059 930.536 710.972C928.808 711.66 927.267 712.746 926.037 714.141C925.12 715.524 924.785 717.213 925.105 718.842C925.424 720.471 926.372 721.908 927.744 722.843C929.184 723.673 930.879 723.949 932.508 723.62C934.138 723.29 935.591 722.377 936.595 721.052C936.39 721.778 936.449 722.554 936.761 723.241C937.074 723.928 937.62 724.483 938.302 724.806C944.91 728.377 948.275 723.526 949.177 717.907C950.116 711.8 951.433 707.217 944.764 703.927Z" fill="#FFE9B3"/>
<path opacity="0.15" d="M944.764 703.927C942.833 702.836 940.588 702.437 938.4 702.793C937.318 702.996 936.334 703.553 935.604 704.376C934.873 705.199 934.437 706.241 934.364 707.339L930.853 707.132C930.446 707.09 930.035 707.111 929.634 707.193C929.157 707.343 928.753 707.663 928.499 708.093C928.244 708.523 928.158 709.032 928.256 709.521C928.386 710.004 928.692 710.421 929.114 710.69C929.536 710.958 930.043 711.059 930.536 710.972C928.808 711.66 927.267 712.746 926.037 714.141C925.12 715.524 924.785 717.213 925.105 718.842C925.424 720.471 926.372 721.908 927.744 722.843C929.184 723.673 930.879 723.949 932.508 723.62C934.138 723.29 935.591 722.377 936.595 721.052C936.39 721.778 936.449 722.554 936.761 723.241C937.074 723.928 937.62 724.483 938.302 724.806C944.91 728.377 948.275 723.526 949.177 717.907C950.116 711.8 951.433 707.217 944.764 703.927Z" fill="black"/>
<path d="M920.38 696.613C918.449 695.523 916.205 695.123 914.016 695.48C912.934 695.683 911.951 696.24 911.22 697.063C910.49 697.886 910.054 698.928 909.98 700.026L906.469 699.819C906.062 699.777 905.651 699.797 905.25 699.88C904.774 700.03 904.369 700.35 904.115 700.78C903.861 701.21 903.774 701.718 903.872 702.208C904.002 702.691 904.308 703.108 904.73 703.376C905.152 703.645 905.66 703.746 906.152 703.658C904.425 704.347 902.883 705.432 901.654 706.827C900.737 708.211 900.402 709.9 900.721 711.529C901.041 713.158 901.989 714.595 903.36 715.53C904.801 716.36 906.495 716.636 908.125 716.306C909.754 715.976 911.207 715.063 912.212 713.738C912.006 714.465 912.065 715.241 912.378 715.928C912.69 716.615 913.236 717.169 913.918 717.493C920.526 721.064 923.891 716.213 924.794 710.594C925.732 704.487 927.049 699.904 920.38 696.613Z" fill="#FFE9B3"/>
<path opacity="0.15" d="M920.38 696.613C918.449 695.523 916.205 695.123 914.016 695.48C912.934 695.683 911.951 696.24 911.22 697.063C910.49 697.886 910.054 698.928 909.98 700.026L906.469 699.819C906.062 699.777 905.651 699.797 905.25 699.88C904.774 700.03 904.369 700.35 904.115 700.78C903.861 701.21 903.774 701.718 903.872 702.208C904.002 702.691 904.308 703.108 904.73 703.376C905.152 703.645 905.66 703.746 906.152 703.658C904.425 704.347 902.883 705.432 901.654 706.827C900.737 708.211 900.402 709.9 900.721 711.529C901.041 713.158 901.989 714.595 903.36 715.53C904.801 716.36 906.495 716.636 908.125 716.306C909.754 715.976 911.207 715.063 912.212 713.738C912.006 714.465 912.065 715.241 912.378 715.928C912.69 716.615 913.236 717.169 913.918 717.493C920.526 721.064 923.891 716.213 924.794 710.594C925.732 704.487 927.049 699.904 920.38 696.613Z" fill="black"/>
<path d="M947.202 691.738C945.271 690.648 943.027 690.248 940.838 690.604C939.756 690.807 938.773 691.364 938.042 692.187C937.312 693.01 936.876 694.053 936.802 695.151L933.291 694.943C932.884 694.901 932.473 694.922 932.072 695.004C931.596 695.154 931.191 695.475 930.937 695.904C930.683 696.334 930.596 696.843 930.694 697.332C930.824 697.816 931.13 698.232 931.552 698.501C931.974 698.77 932.482 698.87 932.974 698.783C931.247 699.471 929.705 700.557 928.476 701.952C927.559 703.336 927.224 705.025 927.543 706.653C927.863 708.282 928.811 709.72 930.182 710.655C931.623 711.485 933.317 711.761 934.947 711.431C936.576 711.101 938.03 710.188 939.034 708.863C938.828 709.589 938.887 710.365 939.2 711.052C939.512 711.74 940.058 712.294 940.74 712.617C947.348 716.188 950.713 711.337 951.616 705.718C952.554 699.612 953.871 695.029 947.202 691.738Z" fill="#FFE9B3"/>
<path opacity="0.15" d="M947.202 691.738C945.271 690.648 943.027 690.248 940.838 690.604C939.756 690.807 938.773 691.364 938.042 692.187C937.312 693.01 936.876 694.053 936.802 695.151L933.291 694.943C932.884 694.901 932.473 694.922 932.072 695.004C931.596 695.154 931.191 695.475 930.937 695.904C930.683 696.334 930.596 696.843 930.694 697.332C930.824 697.816 931.13 698.232 931.552 698.501C931.974 698.77 932.482 698.87 932.974 698.783C931.247 699.471 929.705 700.557 928.476 701.952C927.559 703.336 927.224 705.025 927.543 706.653C927.863 708.282 928.811 709.72 930.182 710.655C931.623 711.485 933.317 711.761 934.947 711.431C936.576 711.101 938.03 710.188 939.034 708.863C938.828 709.589 938.887 710.365 939.2 711.052C939.512 711.74 940.058 712.294 940.74 712.617C947.348 716.188 950.713 711.337 951.616 705.718C952.554 699.612 953.871 695.029 947.202 691.738Z" fill="black"/>
<path d="M956.956 699.051C955.025 697.961 952.78 697.561 950.591 697.917C949.51 698.121 948.526 698.677 947.796 699.5C947.065 700.323 946.629 701.366 946.556 702.464L943.045 702.257C942.638 702.214 942.226 702.235 941.826 702.318C941.349 702.467 940.945 702.788 940.69 703.218C940.436 703.647 940.35 704.156 940.448 704.646C940.578 705.129 940.884 705.546 941.306 705.814C941.728 706.083 942.235 706.183 942.728 706.096C941 706.784 939.459 707.87 938.229 709.265C937.312 710.649 936.977 712.338 937.297 713.967C937.616 715.595 938.564 717.033 939.936 717.968C941.376 718.798 943.07 719.074 944.7 718.744C946.33 718.414 947.783 717.501 948.787 716.176C948.582 716.903 948.641 717.678 948.953 718.366C949.266 719.053 949.811 719.607 950.494 719.93C957.102 723.502 960.467 718.65 961.369 713.031C962.308 706.925 963.624 702.342 956.956 699.051Z" fill="#FFE9B3"/>
<path opacity="0.15" d="M956.956 699.051C955.025 697.961 952.78 697.561 950.591 697.917C949.51 698.121 948.526 698.677 947.796 699.5C947.065 700.323 946.629 701.366 946.556 702.464L943.045 702.257C942.638 702.214 942.226 702.235 941.826 702.318C941.349 702.467 940.945 702.788 940.69 703.218C940.436 703.647 940.35 704.156 940.448 704.646C940.578 705.129 940.884 705.546 941.306 705.814C941.728 706.083 942.235 706.183 942.728 706.096C941 706.784 939.459 707.87 938.229 709.265C937.312 710.649 936.977 712.338 937.297 713.967C937.616 715.595 938.564 717.033 939.936 717.968C941.376 718.798 943.07 719.074 944.7 718.744C946.33 718.414 947.783 717.501 948.787 716.176C948.582 716.903 948.641 717.678 948.953 718.366C949.266 719.053 949.811 719.607 950.494 719.93C957.102 723.502 960.467 718.65 961.369 713.031C962.308 706.925 963.624 702.342 956.956 699.051Z" fill="black"/>
<path d="M897.216 724.647C895.285 723.557 893.04 723.157 890.852 723.514C889.77 723.717 888.786 724.274 888.056 725.097C887.325 725.92 886.889 726.962 886.816 728.06L883.305 727.853C882.898 727.811 882.487 727.831 882.086 727.914C881.609 728.064 881.205 728.384 880.951 728.814C880.696 729.244 880.61 729.752 880.708 730.242C880.838 730.725 881.144 731.142 881.566 731.41C881.988 731.679 882.495 731.78 882.988 731.692C881.26 732.381 879.719 733.466 878.489 734.861C877.572 736.245 877.238 737.934 877.557 739.563C877.876 741.191 878.824 742.629 880.196 743.564C881.637 744.394 883.331 744.67 884.96 744.34C886.59 744.01 888.043 743.097 889.047 741.772C888.842 742.499 888.901 743.275 889.213 743.962C889.526 744.649 890.072 745.203 890.754 745.526C897.362 749.098 900.727 744.247 901.629 738.628C902.568 732.521 903.885 727.938 897.216 724.647Z" fill="#FFE9B3"/>
<path opacity="0.15" d="M897.216 724.647C895.285 723.557 893.04 723.157 890.852 723.514C889.77 723.717 888.786 724.274 888.056 725.097C887.325 725.92 886.889 726.962 886.816 728.06L883.305 727.853C882.898 727.811 882.487 727.831 882.086 727.914C881.609 728.064 881.205 728.384 880.951 728.814C880.696 729.244 880.61 729.752 880.708 730.242C880.838 730.725 881.144 731.142 881.566 731.41C881.988 731.679 882.495 731.78 882.988 731.692C881.26 732.381 879.719 733.466 878.489 734.861C877.572 736.245 877.238 737.934 877.557 739.563C877.876 741.191 878.824 742.629 880.196 743.564C881.637 744.394 883.331 744.67 884.96 744.34C886.59 744.01 888.043 743.097 889.047 741.772C888.842 742.499 888.901 743.275 889.213 743.962C889.526 744.649 890.072 745.203 890.754 745.526C897.362 749.098 900.727 744.247 901.629 738.628C902.568 732.521 903.885 727.938 897.216 724.647Z" fill="black"/>
<path d="M967.928 707.583C965.997 706.493 963.753 706.093 961.564 706.45C960.482 706.653 959.499 707.209 958.768 708.033C958.038 708.856 957.601 709.898 957.528 710.996L954.017 710.789C953.61 710.747 953.199 710.767 952.798 710.85C952.322 710.999 951.917 711.32 951.663 711.75C951.409 712.18 951.322 712.688 951.42 713.178C951.55 713.661 951.856 714.078 952.278 714.346C952.7 714.615 953.208 714.715 953.7 714.628C951.973 715.317 950.431 716.402 949.202 717.797C948.285 719.181 947.95 720.87 948.269 722.499C948.589 724.127 949.537 725.565 950.908 726.5C952.349 727.33 954.043 727.606 955.673 727.276C957.302 726.946 958.755 726.033 959.76 724.708C959.554 725.435 959.613 726.21 959.926 726.898C960.238 727.585 960.784 728.139 961.466 728.462C968.074 732.034 971.439 727.183 972.341 721.564C973.28 715.457 974.597 710.874 967.928 707.583Z" fill="#FFE9B3"/>
<path opacity="0.15" d="M967.928 707.583C965.997 706.493 963.753 706.093 961.564 706.45C960.482 706.653 959.499 707.209 958.768 708.033C958.038 708.856 957.601 709.898 957.528 710.996L954.017 710.789C953.61 710.747 953.199 710.767 952.798 710.85C952.322 710.999 951.917 711.32 951.663 711.75C951.409 712.18 951.322 712.688 951.42 713.178C951.55 713.661 951.856 714.078 952.278 714.346C952.7 714.615 953.208 714.715 953.7 714.628C951.973 715.317 950.431 716.402 949.202 717.797C948.285 719.181 947.95 720.87 948.269 722.499C948.589 724.127 949.537 725.565 950.908 726.5C952.349 727.33 954.043 727.606 955.673 727.276C957.302 726.946 958.755 726.033 959.76 724.708C959.554 725.435 959.613 726.21 959.926 726.898C960.238 727.585 960.784 728.139 961.466 728.462C968.074 732.034 971.439 727.183 972.341 721.564C973.28 715.457 974.597 710.874 967.928 707.583Z" fill="black"/>
<path d="M991.093 719.772C989.162 718.682 986.917 718.282 984.728 718.638C983.647 718.841 982.663 719.398 981.933 720.221C981.202 721.044 980.766 722.087 980.693 723.185L977.182 722.977C976.775 722.935 976.363 722.956 975.963 723.038C975.486 723.188 975.082 723.509 974.827 723.938C974.573 724.368 974.487 724.877 974.585 725.366C974.714 725.85 975.02 726.267 975.443 726.535C975.865 726.804 976.372 726.904 976.865 726.817C975.137 727.505 973.596 728.591 972.366 729.986C971.449 731.37 971.114 733.059 971.434 734.687C971.753 736.316 972.701 737.754 974.073 738.689C975.513 739.519 977.207 739.795 978.837 739.465C980.467 739.135 981.92 738.222 982.924 736.897C982.719 737.623 982.778 738.399 983.09 739.086C983.403 739.774 983.948 740.328 984.631 740.651C991.239 744.222 994.604 739.371 995.506 733.752C996.445 727.646 997.761 723.063 991.093 719.772Z" fill="#FFE9B3"/>
<path opacity="0.15" d="M991.093 719.772C989.162 718.682 986.917 718.282 984.728 718.638C983.647 718.841 982.663 719.398 981.933 720.221C981.202 721.044 980.766 722.087 980.693 723.185L977.182 722.977C976.775 722.935 976.363 722.956 975.963 723.038C975.486 723.188 975.082 723.509 974.827 723.938C974.573 724.368 974.487 724.877 974.585 725.366C974.714 725.85 975.02 726.267 975.443 726.535C975.865 726.804 976.372 726.904 976.865 726.817C975.137 727.505 973.596 728.591 972.366 729.986C971.449 731.37 971.114 733.059 971.434 734.687C971.753 736.316 972.701 737.754 974.073 738.689C975.513 739.519 977.207 739.795 978.837 739.465C980.467 739.135 981.92 738.222 982.924 736.897C982.719 737.623 982.778 738.399 983.09 739.086C983.403 739.774 983.948 740.328 984.631 740.651C991.239 744.222 994.604 739.371 995.506 733.752C996.445 727.646 997.761 723.063 991.093 719.772Z" fill="black"/>
<path d="M971.586 692.957C969.655 691.867 967.41 691.467 965.222 691.823C964.14 692.026 963.156 692.583 962.426 693.406C961.695 694.229 961.259 695.272 961.186 696.37L957.675 696.162C957.268 696.12 956.857 696.141 956.456 696.223C955.979 696.373 955.575 696.694 955.321 697.123C955.066 697.553 954.98 698.062 955.078 698.551C955.208 699.034 955.514 699.451 955.936 699.72C956.358 699.988 956.865 700.089 957.358 700.002C955.63 700.69 954.089 701.776 952.859 703.171C951.942 704.555 951.607 706.243 951.927 707.872C952.246 709.501 953.194 710.938 954.566 711.874C956.006 712.704 957.701 712.98 959.33 712.65C960.96 712.32 962.413 711.407 963.417 710.082C963.212 710.808 963.271 711.584 963.583 712.271C963.896 712.958 964.442 713.513 965.124 713.836C971.732 717.407 975.097 712.556 975.999 706.937C976.938 700.831 978.255 696.248 971.586 692.957Z" fill="#FFE9B3"/>
<path opacity="0.15" d="M971.586 692.957C969.655 691.867 967.41 691.467 965.222 691.823C964.14 692.026 963.156 692.583 962.426 693.406C961.695 694.229 961.259 695.272 961.186 696.37L957.675 696.162C957.268 696.12 956.857 696.141 956.456 696.223C955.979 696.373 955.575 696.694 955.321 697.123C955.066 697.553 954.98 698.062 955.078 698.551C955.208 699.034 955.514 699.451 955.936 699.72C956.358 699.988 956.865 700.089 957.358 700.002C955.63 700.69 954.089 701.776 952.859 703.171C951.942 704.555 951.607 706.243 951.927 707.872C952.246 709.501 953.194 710.938 954.566 711.874C956.006 712.704 957.701 712.98 959.33 712.65C960.96 712.32 962.413 711.407 963.417 710.082C963.212 710.808 963.271 711.584 963.583 712.271C963.896 712.958 964.442 713.513 965.124 713.836C971.732 717.407 975.097 712.556 975.999 706.937C976.938 700.831 978.255 696.248 971.586 692.957Z" fill="black"/>
<path d="M988.642 722.307C989.759 720.391 990.189 718.151 989.861 715.957C989.669 714.872 989.122 713.882 988.305 713.143C987.488 712.403 986.449 711.957 985.35 711.874L985.606 708.363C985.668 707.959 985.668 707.548 985.606 707.144C985.549 706.896 985.444 706.662 985.297 706.454C985.149 706.247 984.962 706.07 984.747 705.935C984.531 705.8 984.291 705.708 984.04 705.666C983.789 705.624 983.532 705.631 983.284 705.688C983.035 705.745 982.801 705.85 982.593 705.997C982.386 706.145 982.21 706.332 982.074 706.547C981.939 706.763 981.847 707.003 981.805 707.254C981.763 707.505 981.77 707.762 981.827 708.01C981.157 706.275 980.087 704.721 978.706 703.476C977.332 702.542 975.645 702.187 974.011 702.488C972.377 702.789 970.927 703.722 969.976 705.084C969.13 706.517 968.837 708.21 969.151 709.844C969.465 711.478 970.366 712.941 971.683 713.958C970.957 713.746 970.18 713.797 969.489 714.103C968.797 714.409 968.236 714.949 967.904 715.628C964.246 722.197 969.123 725.61 974.682 726.597C980.717 727.56 985.301 728.938 988.642 722.307Z" fill="#FFE9B3"/>
<path d="M988.642 702.805C989.759 700.889 990.189 698.649 989.861 696.455C989.669 695.37 989.122 694.38 988.305 693.641C987.488 692.901 986.449 692.455 985.35 692.372L985.606 688.861C985.668 688.457 985.668 688.046 985.606 687.642C985.491 687.141 985.182 686.706 984.747 686.433C984.311 686.16 983.785 686.071 983.284 686.186C982.782 686.301 982.347 686.61 982.074 687.045C981.801 687.481 981.712 688.007 981.827 688.508C981.157 686.773 980.087 685.219 978.706 683.974C977.332 683.04 975.645 682.685 974.011 682.986C972.377 683.287 970.927 684.22 969.976 685.583C969.13 687.015 968.837 688.708 969.151 690.342C969.465 691.976 970.366 693.439 971.683 694.456C970.957 694.244 970.18 694.295 969.489 694.601C968.797 694.907 968.236 695.447 967.904 696.126C964.246 702.695 969.123 706.108 974.682 707.096C980.717 708.058 985.301 709.436 988.642 702.805Z" fill="#FFE9B3"/>
<path d="M967.916 728.401C969.033 726.485 969.463 724.245 969.135 722.051C968.943 720.966 968.396 719.976 967.579 719.237C966.762 718.498 965.723 718.051 964.624 717.968L964.88 714.457C964.942 714.054 964.942 713.643 964.88 713.239C964.765 712.738 964.456 712.303 964.021 712.029C963.585 711.756 963.059 711.667 962.558 711.782C962.056 711.897 961.621 712.206 961.348 712.641C961.075 713.077 960.986 713.603 961.101 714.104C960.43 712.369 959.361 710.816 957.98 709.57C956.605 708.636 954.919 708.281 953.284 708.582C951.65 708.884 950.201 709.816 949.25 711.179C948.404 712.612 948.11 714.304 948.425 715.938C948.739 717.572 949.64 719.035 950.957 720.052C950.231 719.84 949.454 719.892 948.763 720.197C948.071 720.503 947.51 721.043 947.178 721.722C943.52 728.292 948.397 731.704 953.956 732.692C959.991 733.655 964.575 735.032 967.916 728.401Z" fill="#FFE9B3"/>
<path d="M991.08 750.341C992.197 748.425 992.627 746.185 992.299 743.991C992.108 742.906 991.56 741.916 990.743 741.177C989.927 740.437 988.887 739.991 987.788 739.908L988.044 736.397C988.106 735.993 988.106 735.582 988.044 735.178C987.93 734.677 987.62 734.242 987.185 733.969C986.749 733.696 986.223 733.607 985.722 733.722C985.221 733.837 984.786 734.146 984.512 734.581C984.239 735.017 984.15 735.543 984.265 736.044C983.595 734.309 982.526 732.755 981.144 731.509C979.77 730.576 978.083 730.221 976.449 730.522C974.815 730.823 973.365 731.756 972.415 733.118C971.568 734.551 971.275 736.244 971.589 737.878C971.903 739.512 972.804 740.975 974.121 741.992C973.396 741.78 972.618 741.831 971.927 742.137C971.235 742.442 970.674 742.982 970.342 743.662C966.684 750.231 971.561 753.644 977.121 754.631C983.156 755.594 987.74 756.972 991.08 750.341Z" fill="#FFE9B3"/>
<path d="M947.19 758.873C948.307 756.957 948.737 754.717 948.409 752.523C948.217 751.438 947.67 750.448 946.853 749.709C946.036 748.969 944.997 748.523 943.898 748.44L944.154 744.929C944.216 744.525 944.216 744.114 944.154 743.71C944.039 743.209 943.73 742.774 943.295 742.501C942.859 742.228 942.333 742.139 941.832 742.254C941.33 742.369 940.895 742.678 940.622 743.113C940.349 743.549 940.26 744.075 940.375 744.576C939.704 742.841 938.635 741.287 937.254 740.042C935.879 739.108 934.192 738.753 932.558 739.054C930.924 739.355 929.475 740.288 928.524 741.651C927.678 743.083 927.384 744.776 927.699 746.41C928.013 748.044 928.914 749.507 930.231 750.524C929.505 750.312 928.728 750.363 928.036 750.669C927.345 750.975 926.784 751.515 926.452 752.194C922.794 758.763 927.671 762.176 933.23 763.164C939.265 764.126 943.849 765.504 947.19 758.873Z" fill="#FFE9B3"/>
<path d="M937.436 708.899C938.553 706.983 938.983 704.743 938.656 702.549C938.464 701.464 937.916 700.474 937.1 699.735C936.283 698.996 935.243 698.549 934.145 698.466L934.401 694.956C934.463 694.552 934.463 694.141 934.401 693.737C934.286 693.236 933.977 692.801 933.541 692.528C933.106 692.254 932.579 692.165 932.078 692.28C931.577 692.395 931.142 692.704 930.869 693.14C930.595 693.575 930.506 694.101 930.621 694.602C929.951 692.867 928.882 691.314 927.5 690.068C926.126 689.134 924.439 688.779 922.805 689.081C921.171 689.382 919.722 690.315 918.771 691.677C917.925 693.11 917.631 694.802 917.945 696.436C918.26 698.07 919.16 699.533 920.478 700.55C919.752 700.338 918.975 700.39 918.283 700.695C917.591 701.001 917.03 701.541 916.698 702.22C913.041 708.79 917.917 712.203 923.477 713.19C929.512 714.153 934.096 715.53 937.436 708.899Z" fill="#FFE9B3"/>
<path d="M963.039 702.805C964.156 700.889 964.586 698.649 964.258 696.455C964.067 695.37 963.519 694.38 962.702 693.641C961.886 692.901 960.846 692.455 959.747 692.372L960.003 688.861C960.065 688.457 960.065 688.046 960.003 687.642C959.889 687.141 959.579 686.706 959.144 686.433C958.708 686.16 958.182 686.071 957.681 686.186C957.18 686.301 956.745 686.61 956.471 687.045C956.198 687.481 956.109 688.007 956.224 688.508C955.554 686.773 954.485 685.219 953.103 683.974C951.729 683.04 950.042 682.685 948.408 682.986C946.774 683.287 945.324 684.22 944.374 685.583C943.527 687.015 943.234 688.708 943.548 690.342C943.862 691.976 944.763 693.439 946.08 694.456C945.355 694.244 944.577 694.295 943.886 694.601C943.194 694.907 942.633 695.447 942.301 696.126C938.643 702.695 943.52 706.108 949.08 707.096C955.115 708.058 959.699 709.436 963.039 702.805Z" fill="#FFE9B3"/>
<path d="M911.834 725.964C912.951 724.047 913.381 721.807 913.053 719.613C912.861 718.529 912.314 717.539 911.497 716.799C910.68 716.06 909.64 715.613 908.542 715.53L908.798 712.02C908.86 711.616 908.86 711.205 908.798 710.801C908.683 710.3 908.374 709.865 907.938 709.592C907.503 709.319 906.976 709.23 906.475 709.344C905.974 709.459 905.539 709.768 905.266 710.204C904.993 710.639 904.904 711.165 905.018 711.666C904.348 709.931 903.279 708.378 901.897 707.132C900.523 706.198 898.836 705.844 897.202 706.145C895.568 706.446 894.119 707.379 893.168 708.741C892.322 710.174 892.028 711.866 892.342 713.5C892.657 715.134 893.557 716.597 894.875 717.614C894.149 717.403 893.372 717.454 892.68 717.759C891.989 718.065 891.427 718.605 891.095 719.284C887.438 725.854 892.315 729.267 897.874 730.254C903.909 731.217 908.493 732.594 911.834 725.964Z" fill="#FFE9B3"/>
<path d="M892.412 781.873C898.752 781.361 905.006 779.74 911.37 779.825C919.697 779.935 927.707 782.946 935.291 786.383C937.518 787.242 939.561 788.516 941.313 790.137C942.563 791.578 943.473 793.281 943.976 795.121C944.478 796.961 944.56 798.89 944.215 800.766C943.501 804.516 942.015 808.078 939.85 811.223C937.631 814.746 934.888 818.22 931.023 819.755C928.861 820.501 926.593 820.892 924.306 820.913C914.76 821.438 905.031 820.913 895.972 817.854C891.327 816.269 886.926 814.051 882.378 812.174C867.882 806.177 852.204 803.813 836.805 800.79C836.023 800.697 835.276 800.407 834.635 799.949C831.429 797.182 838.39 787.212 840.024 784.42C842.779 779.679 845.279 779.167 850.863 779.033C864.81 778.68 878.428 782.738 892.412 781.873Z" fill="#FFB8B8"/>
<path d="M1000.88 815.599C996.469 813.43 992.507 810.431 988.13 808.176C982.618 805.342 976.558 803.733 970.366 803.459C966.355 803.276 961.991 803.813 959.077 806.58C954.919 810.529 955.419 817.245 956.785 822.815C958.857 831.164 963.027 840.001 971.037 843.158C974.183 844.21 977.473 844.773 980.79 844.828C995.628 845.852 1011.07 846.778 1024.83 841.171C1025.83 840.857 1026.7 840.197 1027.27 839.306C1027.86 838.087 1027.27 836.625 1026.66 835.394C1024.46 830.981 1020.99 821.73 1016.74 818.975C1012.79 816.331 1005.81 818.013 1000.88 815.599Z" fill="#FFB8B8"/>
<path opacity="0.1" d="M1035.75 749.22C1043.88 762.11 1050.56 775.856 1055.67 790.21C1057.1 793.74 1057.93 797.486 1058.11 801.29C1058.11 805.519 1056.64 809.615 1055.09 813.612C1050.15 826.405 1044.43 838.878 1037.95 850.959C1035.99 854.615 1033.76 858.43 1029.9 860.441C1025.84 862.562 1020.84 862.233 1016.2 861.66C1004.56 860.387 993.013 858.343 981.644 855.541C988.8 855.773 995.262 850.41 998.566 844.572C1001.87 838.733 1002.6 832.054 1003.15 825.533C1003.65 822.021 1003.5 818.447 1002.71 814.99C1002.25 813.205 1001.36 811.559 1000.13 810.19C998.891 808.822 997.344 807.771 995.616 807.128C995.286 803.947 998.322 801.277 1001.46 799.815C1004.59 798.352 1008.15 797.536 1010.7 795.342C1014.45 792.124 1014.99 786.749 1013.76 782.19C1012.53 777.631 1009.84 773.512 1007.94 769.136C1005.27 763.042 1019.05 756.63 1019.6 750.048C1019.72 748.561 1018.67 751.267 1019.6 750.048C1020.52 748.83 1026.28 753.059 1027.58 752.486C1036.15 748.781 1031.01 741.687 1035.75 749.22Z" fill="black"/>
<path d="M1038.41 749.22C1046.53 762.112 1053.22 775.858 1058.34 790.21C1059.78 793.738 1060.6 797.485 1060.78 801.29C1060.78 805.519 1059.31 809.615 1057.77 813.612C1052.83 826.403 1047.11 838.875 1040.63 850.959C1038.68 854.615 1036.45 858.43 1032.58 860.441C1028.52 862.562 1023.51 862.233 1018.88 861.66C1007.23 860.389 995.687 858.345 984.314 855.541C991.458 855.773 997.932 850.41 1001.22 844.572C1004.52 838.733 1005.27 832.054 1005.82 825.533C1006.32 822.021 1006.17 818.448 1005.38 814.99C1004.91 813.207 1004.03 811.562 1002.79 810.194C1001.56 808.826 1000.01 807.775 998.286 807.128C997.944 803.947 1000.99 801.277 1004.13 799.815C1007.26 798.352 1010.82 797.536 1013.37 795.342C1017.11 792.124 1017.65 786.749 1016.41 782.19C1015.18 777.631 1012.5 773.512 1010.6 769.136C1007.94 763.033 1006.82 756.368 1007.36 749.732C1007.38 748.213 1007.83 746.732 1008.65 745.453C1009.56 744.366 1010.73 743.527 1012.05 743.016C1020.66 739.359 1033.67 741.687 1038.41 749.22Z" fill="#FFB8B8"/>
<path opacity="0.1" d="M777.797 737.128C769.885 744.442 761.716 752.169 757.864 762.249C755.767 767.746 755.072 773.67 754.389 779.521C753.243 789.491 752.207 800.168 756.827 809.066C761.948 818.817 772.677 824.046 782.747 828.47C786.23 830.106 789.838 831.459 793.537 832.517C798.383 833.6 803.324 834.204 808.289 834.321L859.116 837.149C852.484 830.469 848.241 820.012 849.144 810.638C849.96 802.265 854.02 794.586 858.105 787.261C860.226 783.482 862.628 779.509 866.541 777.644C849.982 773.985 832.955 772.916 816.067 774.475C814.933 774.572 813.629 774.609 812.885 773.707C812.515 773.141 812.343 772.467 812.398 771.793C812.398 764.224 818.055 757.935 820.395 750.743C824.138 739.213 811.398 745.539 799.938 741.577C788.477 737.616 780.138 725.232 777.797 737.128Z" fill="black"/>
<path d="M774.14 737.128C766.227 744.442 758.059 752.169 754.206 762.249C752.109 767.746 751.414 773.67 750.732 779.521C749.586 789.491 748.549 800.168 753.17 809.066C758.29 818.817 769.019 824.046 779.09 828.47C782.572 830.106 786.18 831.459 789.879 832.517C794.726 833.6 799.667 834.204 804.631 834.321L855.459 837.149C848.827 830.469 844.584 820.012 845.486 810.638C846.303 802.265 850.363 794.586 854.447 787.261C856.568 783.482 858.97 779.509 862.884 777.644C846.324 773.985 829.297 772.916 812.41 774.475C811.276 774.572 809.971 774.609 809.228 773.707C808.857 773.141 808.686 772.467 808.74 771.793C808.74 764.224 814.397 757.935 816.738 750.743C820.481 739.213 813.97 725.147 802.498 721.161C791.025 717.176 776.481 725.232 774.14 737.128Z" fill="#FFB8B8"/>
<path d="M901.788 606.283C935.791 606.283 963.356 594.823 963.356 580.687C963.356 566.55 935.791 555.091 901.788 555.091C867.784 555.091 840.219 566.55 840.219 580.687C840.219 594.823 867.784 606.283 901.788 606.283Z" fill="#2F2E41"/>
<path opacity="0.1" d="M900.568 595.313C871.101 595.313 846.474 586.696 840.426 575.202C839.509 576.886 839.019 578.769 839 580.687C839 594.826 866.566 606.283 900.568 606.283C934.571 606.283 962.137 594.826 962.137 580.687C962.118 578.769 961.628 576.886 960.711 575.202C954.663 586.696 930.036 595.313 900.568 595.313Z" fill="black"/>
<path d="M983.777 597.885C981.847 596.795 979.602 596.395 977.413 596.751C976.332 596.954 975.348 597.511 974.617 598.334C973.887 599.157 973.451 600.2 973.378 601.298L969.867 601.091C969.459 601.048 969.048 601.069 968.647 601.151C968.171 601.301 967.767 601.622 967.512 602.052C967.258 602.481 967.171 602.99 967.27 603.48C967.399 603.963 967.705 604.38 968.127 604.648C968.549 604.917 969.057 605.017 969.55 604.93C967.822 605.618 966.281 606.704 965.051 608.099C964.134 609.483 963.799 611.172 964.119 612.8C964.438 614.429 965.386 615.867 966.758 616.802C968.198 617.632 969.892 617.908 971.522 617.578C973.151 617.248 974.605 616.335 975.609 615.01C975.404 615.736 975.462 616.512 975.775 617.199C976.087 617.887 976.633 618.441 977.316 618.764C983.924 622.335 987.289 617.484 988.191 611.865C989.13 605.759 990.446 601.176 983.777 597.885Z" fill="#FFE9B3"/>
<path opacity="0.15" d="M983.777 597.885C981.847 596.795 979.602 596.395 977.413 596.751C976.332 596.954 975.348 597.511 974.617 598.334C973.887 599.157 973.451 600.2 973.378 601.298L969.867 601.091C969.459 601.048 969.048 601.069 968.647 601.151C968.171 601.301 967.767 601.622 967.512 602.052C967.258 602.481 967.171 602.99 967.27 603.48C967.399 603.963 967.705 604.38 968.127 604.648C968.549 604.917 969.057 605.017 969.55 604.93C967.822 605.618 966.281 606.704 965.051 608.099C964.134 609.483 963.799 611.172 964.119 612.8C964.438 614.429 965.386 615.867 966.758 616.802C968.198 617.632 969.892 617.908 971.522 617.578C973.151 617.248 974.605 616.335 975.609 615.01C975.404 615.736 975.462 616.512 975.775 617.199C976.087 617.887 976.633 618.441 977.316 618.764C983.924 622.335 987.289 617.484 988.191 611.865C989.13 605.759 990.446 601.176 983.777 597.885Z" fill="black"/>
<path d="M1042.3 690.519C1040.37 689.429 1038.12 689.029 1035.93 689.385C1034.85 689.588 1033.87 690.145 1033.14 690.968C1032.41 691.791 1031.97 692.834 1031.9 693.932L1028.39 693.725C1027.98 693.682 1027.57 693.703 1027.17 693.786C1026.69 693.935 1026.29 694.256 1026.03 694.686C1025.78 695.115 1025.69 695.624 1025.79 696.114C1025.92 696.597 1026.23 697.014 1026.65 697.282C1027.07 697.551 1027.58 697.651 1028.07 697.564C1026.34 698.252 1024.8 699.338 1023.57 700.733C1022.65 702.117 1022.32 703.806 1022.64 705.434C1022.96 707.063 1023.91 708.501 1025.28 709.436C1026.72 710.266 1028.41 710.542 1030.04 710.212C1031.67 709.882 1033.13 708.969 1034.13 707.644C1033.92 708.371 1033.98 709.146 1034.3 709.833C1034.61 710.521 1035.15 711.075 1035.84 711.398C1042.44 714.969 1045.81 710.118 1046.71 704.499C1047.65 698.393 1048.97 693.81 1042.3 690.519Z" fill="#FFE9B3"/>
<path opacity="0.15" d="M1042.3 690.519C1040.37 689.429 1038.12 689.029 1035.93 689.385C1034.85 689.588 1033.87 690.145 1033.14 690.968C1032.41 691.791 1031.97 692.834 1031.9 693.932L1028.39 693.725C1027.98 693.682 1027.57 693.703 1027.17 693.786C1026.69 693.935 1026.29 694.256 1026.03 694.686C1025.78 695.115 1025.69 695.624 1025.79 696.114C1025.92 696.597 1026.23 697.014 1026.65 697.282C1027.07 697.551 1027.58 697.651 1028.07 697.564C1026.34 698.252 1024.8 699.338 1023.57 700.733C1022.65 702.117 1022.32 703.806 1022.64 705.434C1022.96 707.063 1023.91 708.501 1025.28 709.436C1026.72 710.266 1028.41 710.542 1030.04 710.212C1031.67 709.882 1033.13 708.969 1034.13 707.644C1033.92 708.371 1033.98 709.146 1034.3 709.833C1034.61 710.521 1035.15 711.075 1035.84 711.398C1042.44 714.969 1045.81 710.118 1046.71 704.499C1047.65 698.393 1048.97 693.81 1042.3 690.519Z" fill="black"/>
<path d="M1110.57 789.247C1108.64 788.157 1106.4 787.757 1104.21 788.114C1103.13 788.317 1102.14 788.874 1101.41 789.697C1100.68 790.52 1100.25 791.562 1100.17 792.66L1096.66 792.453C1096.25 792.411 1095.84 792.431 1095.44 792.514C1094.97 792.663 1094.56 792.984 1094.31 793.414C1094.05 793.844 1093.97 794.352 1094.06 794.842C1094.19 795.325 1094.5 795.742 1094.92 796.01C1095.34 796.279 1095.85 796.38 1096.34 796.292C1094.62 796.981 1093.08 798.066 1091.85 799.461C1090.93 800.845 1090.59 802.534 1090.91 804.163C1091.23 805.791 1092.18 807.229 1093.55 808.164C1094.99 808.994 1096.69 809.27 1098.32 808.94C1099.95 808.61 1101.4 807.697 1102.4 806.372C1102.2 807.099 1102.26 807.874 1102.57 808.562C1102.88 809.249 1103.43 809.803 1104.11 810.126C1110.72 813.698 1114.08 808.847 1114.99 803.228C1115.92 797.121 1117.24 792.538 1110.57 789.247Z" fill="#FFE9B3"/>
<path opacity="0.15" d="M1110.57 789.247C1108.64 788.157 1106.4 787.757 1104.21 788.114C1103.13 788.317 1102.14 788.874 1101.41 789.697C1100.68 790.52 1100.25 791.562 1100.17 792.66L1096.66 792.453C1096.25 792.411 1095.84 792.431 1095.44 792.514C1094.97 792.663 1094.56 792.984 1094.31 793.414C1094.05 793.844 1093.97 794.352 1094.06 794.842C1094.19 795.325 1094.5 795.742 1094.92 796.01C1095.34 796.279 1095.85 796.38 1096.34 796.292C1094.62 796.981 1093.08 798.066 1091.85 799.461C1090.93 800.845 1090.59 802.534 1090.91 804.163C1091.23 805.791 1092.18 807.229 1093.55 808.164C1094.99 808.994 1096.69 809.27 1098.32 808.94C1099.95 808.61 1101.4 807.697 1102.4 806.372C1102.2 807.099 1102.26 807.874 1102.57 808.562C1102.88 809.249 1103.43 809.803 1104.11 810.126C1110.72 813.698 1114.08 808.847 1114.99 803.228C1115.92 797.121 1117.24 792.538 1110.57 789.247Z" fill="black"/>
<path d="M1005.71 571.167C1006.83 569.251 1007.26 567.011 1006.93 564.817C1006.74 563.732 1006.19 562.742 1005.37 562.003C1004.56 561.264 1003.52 560.817 1002.42 560.734L1002.67 557.224C1002.74 556.82 1002.74 556.409 1002.67 556.005C1002.56 555.504 1002.25 555.069 1001.82 554.796C1001.38 554.522 1000.85 554.433 1000.35 554.548C999.851 554.663 999.416 554.972 999.143 555.407C998.869 555.843 998.78 556.369 998.895 556.87C998.225 555.135 997.156 553.582 995.774 552.336C994.4 551.402 992.713 551.047 991.079 551.349C989.445 551.65 987.995 552.583 987.045 553.945C986.198 555.378 985.905 557.07 986.219 558.704C986.534 560.338 987.434 561.801 988.752 562.818C988.026 562.606 987.248 562.658 986.557 562.963C985.865 563.269 985.304 563.809 984.972 564.488C981.315 571.058 986.191 574.471 991.751 575.458C997.786 576.421 1002.37 577.798 1005.71 571.167Z" fill="#FFE9B3"/>
<path d="M998.395 528.507C999.512 526.591 999.942 524.351 999.615 522.157C999.423 521.072 998.875 520.082 998.059 519.343C997.242 518.603 996.202 518.157 995.104 518.074L995.36 514.563C995.422 514.159 995.422 513.748 995.36 513.344C995.245 512.843 994.936 512.408 994.5 512.135C994.065 511.862 993.538 511.773 993.037 511.888C992.536 512.003 992.101 512.312 991.828 512.747C991.554 513.183 991.465 513.709 991.58 514.21C990.91 512.475 989.841 510.921 988.459 509.676C987.085 508.742 985.398 508.387 983.764 508.688C982.13 508.989 980.681 509.922 979.73 511.284C978.884 512.717 978.59 514.41 978.904 516.044C979.219 517.678 980.119 519.141 981.437 520.158C980.711 519.946 979.934 519.997 979.242 520.303C978.55 520.608 977.989 521.148 977.657 521.828C974 528.397 978.876 531.81 984.436 532.797C990.471 533.76 995.055 535.138 998.395 528.507Z" fill="#FFE9B3"/>
<path d="M815.531 879.443C813.6 878.353 811.355 877.954 809.167 878.31C808.085 878.513 807.101 879.07 806.371 879.893C805.64 880.716 805.204 881.758 805.131 882.856L801.62 882.649C801.216 882.587 800.805 882.587 800.401 882.649C799.924 882.799 799.52 883.119 799.266 883.549C799.011 883.979 798.925 884.488 799.023 884.977C799.153 885.46 799.459 885.877 799.881 886.146C800.303 886.414 800.81 886.515 801.303 886.428C799.575 887.116 798.034 888.202 796.804 889.597C795.888 890.98 795.553 892.669 795.872 894.298C796.191 895.927 797.14 897.364 798.511 898.299C799.952 899.13 801.646 899.405 803.275 899.076C804.905 898.746 806.358 897.833 807.362 896.508C807.157 897.234 807.216 898.01 807.528 898.697C807.841 899.384 808.387 899.939 809.069 900.262C815.677 903.833 819.042 899.043 819.944 893.363C820.883 887.317 822.2 882.734 815.531 879.443Z" fill="#FFE9B3"/>
<path opacity="0.15" d="M815.531 879.443C813.6 878.353 811.355 877.954 809.167 878.31C808.085 878.513 807.101 879.07 806.371 879.893C805.64 880.716 805.204 881.758 805.131 882.856L801.62 882.649C801.216 882.587 800.805 882.587 800.401 882.649C799.924 882.799 799.52 883.119 799.266 883.549C799.011 883.979 798.925 884.488 799.023 884.977C799.153 885.46 799.459 885.877 799.881 886.146C800.303 886.414 800.81 886.515 801.303 886.428C799.575 887.116 798.034 888.202 796.804 889.597C795.888 890.98 795.553 892.669 795.872 894.298C796.191 895.927 797.14 897.364 798.511 898.299C799.952 899.13 801.646 899.405 803.275 899.076C804.905 898.746 806.358 897.833 807.362 896.508C807.157 897.234 807.216 898.01 807.528 898.697C807.841 899.384 808.387 899.939 809.069 900.262C815.677 903.833 819.042 899.043 819.944 893.363C820.883 887.317 822.2 882.734 815.531 879.443Z" fill="black"/>
<path d="M771.628 877.103C772.745 875.187 773.175 872.947 772.847 870.753C772.656 869.668 772.108 868.678 771.292 867.939C770.475 867.2 769.435 866.753 768.337 866.67L768.593 863.159C768.654 862.755 768.654 862.344 768.593 861.941C768.478 861.439 768.169 861.004 767.733 860.731C767.297 860.458 766.771 860.369 766.27 860.484C765.769 860.599 765.334 860.908 765.061 861.343C764.787 861.779 764.698 862.305 764.813 862.806C764.143 861.071 763.074 859.517 761.692 858.272C760.318 857.338 758.631 856.983 756.997 857.284C755.363 857.586 753.913 858.518 752.963 859.881C752.116 861.313 751.823 863.006 752.137 864.64C752.451 866.274 753.352 867.737 754.67 868.754C753.944 868.542 753.166 868.594 752.475 868.899C751.783 869.205 751.222 869.745 750.89 870.424C747.233 876.994 752.109 880.406 757.669 881.394C763.704 882.357 768.288 883.734 771.628 877.103Z" fill="#FFE9B3"/>
<path d="M830.149 810.066C831.266 808.149 831.696 805.909 831.368 803.715C831.176 802.631 830.629 801.641 829.812 800.901C828.995 800.162 827.956 799.715 826.857 799.632L827.113 796.122C827.175 795.718 827.175 795.307 827.113 794.903C826.998 794.402 826.689 793.967 826.254 793.694C825.818 793.421 825.292 793.332 824.79 793.446C824.289 793.561 823.854 793.87 823.581 794.306C823.308 794.741 823.219 795.267 823.334 795.768C822.663 794.033 821.594 792.48 820.213 791.234C818.838 790.3 817.151 789.946 815.517 790.247C813.883 790.548 812.434 791.481 811.483 792.843C810.637 794.276 810.343 795.968 810.658 797.602C810.972 799.237 811.873 800.7 813.19 801.716C812.464 801.505 811.687 801.556 810.995 801.862C810.304 802.167 809.743 802.707 809.411 803.386C805.753 809.956 810.63 813.369 816.189 814.356C822.224 815.319 826.808 816.696 830.149 810.066Z" fill="#FFE9B3"/>
<path d="M736.479 832.2C724.605 829.165 712.242 826.106 700.245 828.544C694.905 829.628 689.858 831.774 684.664 833.419C671.875 837.381 658.357 838.412 645.115 836.435C631.873 834.458 619.246 829.523 608.173 821.998C595.738 813.405 582.814 800.875 568.087 804.276C564.124 805.202 560.454 807.274 556.407 807.725C548.811 808.591 541.777 803.666 534.242 802.509C521.27 800.522 509.481 809.615 499.508 818.147L446.925 863.135C442.938 866.548 438.549 871.058 439.61 876.177C441.231 883.697 452.752 884.709 455.715 891.839C457.861 896.946 454.313 902.895 449.619 905.808C444.925 908.721 439.244 909.464 433.977 911.232C426.019 913.897 418.886 918.575 413.272 924.812C407.658 931.048 403.753 938.631 401.937 946.823C401.01 951.186 400.718 955.72 398.999 959.84C397.146 964.325 393.793 968.006 391.318 972.175C380.492 990.336 387.599 1014.43 379.382 1033.91C375.03 1044.25 366.313 1054.24 369.068 1065.1C371.579 1074.95 382.394 1079.98 392.232 1082.59C393.39 1089.3 391.013 1094.03 386.136 1098.84C427.04 1115.65 470.942 1132.81 514.333 1124.22C529.219 1121.28 543.715 1115.32 558.882 1115.56C569.647 1115.73 580.29 1119.05 591.031 1118.29C613.696 1116.7 634.507 1097.33 656.465 1103.14C649.845 1103.59 647.394 1113.27 651.295 1118.65C655.197 1124.02 662.378 1125.74 668.986 1126.37C675.594 1127.01 682.592 1127.06 688.322 1130.42C683.982 1139.45 668.437 1142.61 669.937 1152.54C670.485 1156.13 673.387 1158.84 676.264 1161.08C705.829 1183.71 746.55 1181.54 783.552 1185.45C810.837 1188.3 837.586 1194.97 864.786 1198.53C908.237 1204.2 952.286 1201.88 996.03 1199.54C1003.97 1199.12 1012.87 1198.24 1017.98 1192.14C1024.75 1184.03 1020.99 1172 1020.13 1161.47C1016.82 1120.26 1061.9 1091.89 1074.53 1052.52C1079.41 1037.15 1079.2 1020.64 1078.32 1004.51C1076.36 968.14 1070.67 929.771 1047.48 901.688C1028.39 878.529 999.846 865.487 971.427 855.932C953.335 849.837 934.376 844.828 915.345 846.619C883.403 849.63 851.131 871.436 821.639 858.808C813.836 855.468 807.192 849.947 799.779 845.827C780.297 834.821 758.193 837.746 736.479 832.2Z" fill="#99FF12"/>
<g opacity="0.1">
<path d="M901.434 1166.79C874.234 1163.23 847.534 1156.6 820.2 1153.71C783.162 1149.84 742.441 1152.01 712.913 1129.34C710.035 1127.13 707.134 1124.46 706.585 1120.8C705.085 1110.89 720.63 1107.71 724.97 1098.68C719.24 1095.32 712.254 1095.28 705.634 1094.63C699.014 1093.99 691.845 1092.28 687.944 1086.91C684.042 1081.53 686.493 1071.85 693.113 1071.4C671.168 1065.59 650.344 1084.96 627.68 1086.55C616.939 1087.31 606.295 1083.99 595.53 1083.82C580.363 1083.58 565.867 1089.54 550.981 1092.48C507.591 1101.01 463.7 1083.95 422.785 1067.1C427.6 1062.22 430.002 1057.56 428.881 1050.85C419.066 1048.24 408.252 1043.21 405.716 1033.36C402.961 1022.5 411.678 1012.51 416.031 1002.17C424.248 982.669 417.14 958.597 427.966 940.436C430.405 936.267 433.794 932.586 435.647 928.101C437.342 923.981 437.659 919.447 438.585 915.083C438.985 913.172 439.514 911.291 440.17 909.452C438.122 910.013 436.049 910.525 434.074 911.183C426.117 913.848 418.984 918.526 413.369 924.763C407.755 931 403.85 938.582 402.034 946.774C401.108 951.137 400.815 955.672 399.096 959.791C397.243 964.277 393.89 967.958 391.415 972.126C380.589 990.287 387.697 1014.38 379.48 1033.86C375.127 1044.2 366.41 1054.19 369.165 1065.05C371.677 1074.9 382.491 1079.94 392.33 1082.54C393.488 1089.25 391.111 1093.98 386.234 1098.79C427.149 1115.6 471.04 1132.76 514.43 1124.17C529.317 1121.23 543.813 1115.27 558.979 1115.51C569.744 1115.68 580.388 1119 591.129 1118.24C613.793 1116.65 634.605 1097.28 656.562 1103.09C649.942 1103.54 647.491 1113.22 651.393 1118.6C655.294 1123.97 662.475 1125.69 669.083 1126.33C675.691 1126.96 682.689 1127.01 688.419 1130.37C684.079 1139.4 668.534 1142.56 670.034 1152.49C670.583 1156.08 673.484 1158.8 676.362 1161.03C705.927 1183.66 746.647 1181.49 783.649 1185.4C810.934 1188.26 837.683 1194.92 864.883 1198.48C908.335 1204.15 952.384 1201.83 996.128 1199.49C1004.06 1199.07 1012.96 1198.19 1018.07 1192.1C1023.38 1185.73 1022.22 1176.98 1021.06 1168.41C981.12 1170.48 941.021 1171.96 901.434 1166.79Z" fill="black"/>
<path d="M453.959 889.109C458.783 884.817 464.44 881.564 470.577 879.553C475.843 877.847 481.549 877.03 486.219 874.129C490.888 871.228 494.472 865.268 492.315 860.161C489.352 853.079 477.831 852.019 476.209 844.499C475.465 841.037 477.233 837.856 479.696 835.101L446.912 863.135C442.926 866.548 438.537 871.058 439.597 876.177C441.024 882.613 449.631 884.331 453.959 889.109Z" fill="black"/>
</g>
<path d="M564.368 864.915C565.485 862.998 565.915 860.758 565.587 858.564C565.395 857.479 564.848 856.489 564.031 855.75C563.214 855.011 562.175 854.564 561.076 854.481L561.332 850.971C561.374 850.564 561.353 850.153 561.271 849.752C561.156 849.251 560.847 848.816 560.412 848.543C559.976 848.269 559.45 848.18 558.949 848.295C558.448 848.41 558.012 848.719 557.739 849.155C557.466 849.59 557.377 850.116 557.492 850.617C556.822 848.882 555.752 847.329 554.371 846.083C552.997 845.149 551.31 844.794 549.676 845.096C548.042 845.397 546.592 846.33 545.641 847.692C544.795 849.125 544.502 850.817 544.816 852.451C545.13 854.085 546.031 855.548 547.348 856.565C546.622 856.353 545.845 856.405 545.154 856.71C544.462 857.016 543.901 857.556 543.569 858.235C539.911 864.805 544.788 868.218 550.347 869.205C556.443 870.168 561.027 871.545 564.368 864.915Z" fill="#FFE9B3"/>
<path d="M742.368 1101.37C743.485 1099.46 743.915 1097.22 743.587 1095.02C743.395 1093.94 742.848 1092.95 742.031 1092.21C741.214 1091.47 740.175 1091.02 739.076 1090.94L739.332 1087.43C739.394 1087.03 739.394 1086.62 739.332 1086.21C739.217 1085.71 738.908 1085.28 738.473 1085C738.037 1084.73 737.511 1084.64 737.01 1084.76C736.508 1084.87 736.073 1085.18 735.8 1085.62C735.527 1086.05 735.438 1086.58 735.553 1087.08C734.882 1085.34 733.813 1083.79 732.432 1082.54C731.057 1081.61 729.371 1081.25 727.737 1081.56C726.103 1081.86 724.653 1082.79 723.702 1084.15C722.856 1085.59 722.562 1087.28 722.877 1088.91C723.191 1090.55 724.092 1092.01 725.409 1093.03C724.683 1092.81 723.906 1092.87 723.215 1093.17C722.523 1093.48 721.962 1094.02 721.63 1094.7C717.972 1101.27 722.849 1104.68 728.408 1105.67C734.443 1106.63 739.027 1108.01 742.368 1101.37Z" fill="#FFE9B3"/>
<path d="M864.286 868.571C865.403 866.655 865.833 864.415 865.505 862.221C865.313 861.136 864.766 860.146 863.949 859.407C863.132 858.668 862.093 858.221 860.994 858.138L861.25 854.627C861.312 854.223 861.312 853.812 861.25 853.409C861.135 852.907 860.826 852.472 860.39 852.199C859.955 851.926 859.429 851.837 858.927 851.952C858.426 852.067 857.991 852.376 857.718 852.811C857.445 853.247 857.356 853.773 857.471 854.274C856.8 852.539 855.731 850.986 854.35 849.74C852.975 848.806 851.288 848.451 849.654 848.752C848.02 849.054 846.571 849.986 845.62 851.349C844.774 852.781 844.48 854.474 844.795 856.108C845.109 857.742 846.01 859.205 847.327 860.222C846.601 860.01 845.824 860.062 845.132 860.367C844.441 860.673 843.879 861.213 843.548 861.892C839.89 868.462 844.767 871.874 850.326 872.862C856.361 873.825 860.945 875.202 864.286 868.571Z" fill="#FFE9B3"/>
<path d="M887.218 865.89C889.244 864.992 890.904 863.432 891.924 861.465C892.411 860.479 892.555 859.359 892.335 858.282C892.114 857.205 891.541 856.232 890.705 855.517L892.961 852.811C893.251 852.502 893.49 852.148 893.668 851.763C893.87 851.289 893.876 850.755 893.684 850.277C893.492 849.8 893.118 849.418 892.644 849.216C892.17 849.014 891.636 849.008 891.158 849.2C890.68 849.392 890.298 849.766 890.096 850.239C890.571 848.443 890.617 846.56 890.23 844.742C889.665 843.178 888.505 841.901 887.003 841.186C885.501 840.472 883.778 840.379 882.208 840.927C880.683 841.591 879.454 842.788 878.751 844.294C878.048 845.801 877.92 847.512 878.392 849.106C877.929 848.51 877.271 848.095 876.533 847.935C875.796 847.774 875.025 847.878 874.356 848.228C867.553 851.41 869.479 856.992 873.43 861.063C877.697 865.512 880.598 869.303 887.218 865.89Z" fill="#FFE9B3"/>
<path d="M622.901 872.13C620.97 871.04 618.725 870.64 616.537 870.997C615.455 871.2 614.471 871.757 613.741 872.58C613.01 873.403 612.574 874.445 612.501 875.543L608.99 875.336C608.586 875.274 608.175 875.274 607.771 875.336C607.294 875.486 606.89 875.806 606.636 876.236C606.381 876.666 606.295 877.174 606.393 877.664C606.523 878.147 606.829 878.564 607.251 878.832C607.673 879.101 608.18 879.202 608.673 879.114C606.945 879.803 605.404 880.888 604.174 882.283C603.257 883.667 602.922 885.356 603.242 886.985C603.561 888.614 604.509 890.051 605.881 890.986C607.322 891.816 609.016 892.092 610.645 891.762C612.275 891.432 613.728 890.519 614.732 889.194C614.527 889.921 614.586 890.697 614.898 891.384C615.211 892.071 615.757 892.625 616.439 892.949C623.047 896.52 626.412 891.73 627.314 886.05C628.253 880.004 629.57 875.421 622.901 872.13Z" fill="#FFE9B3"/>
<path opacity="0.15" d="M622.901 872.13C620.97 871.04 618.725 870.64 616.537 870.997C615.455 871.2 614.471 871.757 613.741 872.58C613.01 873.403 612.574 874.445 612.501 875.543L608.99 875.336C608.586 875.274 608.175 875.274 607.771 875.336C607.294 875.486 606.89 875.806 606.636 876.236C606.381 876.666 606.295 877.174 606.393 877.664C606.523 878.147 606.829 878.564 607.251 878.832C607.673 879.101 608.18 879.202 608.673 879.114C606.945 879.803 605.404 880.888 604.174 882.283C603.257 883.667 602.922 885.356 603.242 886.985C603.561 888.614 604.509 890.051 605.881 890.986C607.322 891.816 609.016 892.092 610.645 891.762C612.275 891.432 613.728 890.519 614.732 889.194C614.527 889.921 614.586 890.697 614.898 891.384C615.211 892.071 615.757 892.625 616.439 892.949C623.047 896.52 626.412 891.73 627.314 886.05C628.253 880.004 629.57 875.421 622.901 872.13Z" fill="black"/>
<path d="M731.456 962.802C731.831 960.62 731.462 958.375 730.408 956.427C729.855 955.473 729 954.73 727.977 954.317C726.955 953.904 725.823 953.845 724.763 954.148L723.788 950.759C723.692 950.33 723.527 949.918 723.3 949.541C723.019 949.109 722.577 948.807 722.073 948.701C721.569 948.594 721.043 948.693 720.612 948.974C720.18 949.255 719.878 949.696 719.771 950.2C719.665 950.704 719.763 951.23 720.045 951.661C718.823 950.257 717.285 949.163 715.558 948.468C713.945 948.067 712.239 948.317 710.809 949.163C709.379 950.009 708.339 951.384 707.914 952.99C707.614 954.626 707.921 956.315 708.779 957.74C709.636 959.165 710.985 960.228 712.571 960.73C711.817 960.78 711.105 961.095 710.561 961.619C710.017 962.143 709.675 962.843 709.596 963.594C708.377 971.017 714.132 972.565 719.728 971.541C725.824 970.432 730.578 970.115 731.456 962.802Z" fill="#FFE9B3"/>
<path opacity="0.15" d="M731.456 962.802C731.831 960.62 731.462 958.375 730.408 956.427C729.855 955.473 729 954.73 727.977 954.317C726.955 953.904 725.823 953.845 724.763 954.148L723.788 950.759C723.692 950.33 723.527 949.918 723.3 949.541C723.019 949.109 722.577 948.807 722.073 948.701C721.569 948.594 721.043 948.693 720.612 948.974C720.18 949.255 719.878 949.696 719.771 950.2C719.665 950.704 719.763 951.23 720.045 951.661C718.823 950.257 717.285 949.163 715.558 948.468C713.945 948.067 712.239 948.317 710.809 949.163C709.379 950.009 708.339 951.384 707.914 952.99C707.614 954.626 707.921 956.315 708.779 957.74C709.636 959.165 710.985 960.228 712.571 960.73C711.817 960.78 711.105 961.095 710.561 961.619C710.017 962.143 709.675 962.843 709.596 963.594C708.377 971.017 714.132 972.565 719.728 971.541C725.824 970.432 730.578 970.115 731.456 962.802Z" fill="black"/>
<path d="M877.758 851.885C878.132 849.703 877.763 847.458 876.709 845.51C876.157 844.556 875.301 843.813 874.279 843.4C873.256 842.987 872.125 842.928 871.064 843.231L870.089 839.842C869.993 839.413 869.828 839.001 869.601 838.624C869.462 838.41 869.282 838.226 869.072 838.082C868.861 837.937 868.624 837.836 868.375 837.784C868.125 837.731 867.867 837.728 867.617 837.775C867.366 837.822 867.127 837.918 866.913 838.057C866.699 838.196 866.515 838.376 866.371 838.586C866.227 838.797 866.126 839.034 866.073 839.283C866.02 839.533 866.017 839.79 866.064 840.041C866.111 840.292 866.207 840.531 866.346 840.744C865.124 839.34 863.587 838.246 861.86 837.551C860.247 837.15 858.541 837.4 857.11 838.246C855.68 839.092 854.64 840.467 854.215 842.073C853.915 843.709 854.223 845.398 855.08 846.823C855.938 848.248 857.286 849.311 858.873 849.813C858.119 849.863 857.407 850.178 856.863 850.702C856.318 851.226 855.977 851.926 855.898 852.677C854.679 860.1 860.433 861.648 866.029 860.624C872.125 859.515 876.88 859.198 877.758 851.885Z" fill="#FFE9B3"/>
<path opacity="0.15" d="M877.758 851.885C878.132 849.703 877.763 847.458 876.709 845.51C876.157 844.556 875.301 843.813 874.279 843.4C873.256 842.987 872.125 842.928 871.064 843.231L870.089 839.842C869.993 839.413 869.828 839.001 869.601 838.624C869.462 838.41 869.282 838.226 869.072 838.082C868.861 837.937 868.624 837.836 868.375 837.784C868.125 837.731 867.867 837.728 867.617 837.775C867.366 837.822 867.127 837.918 866.913 838.057C866.699 838.196 866.515 838.376 866.371 838.586C866.227 838.797 866.126 839.034 866.073 839.283C866.02 839.533 866.017 839.79 866.064 840.041C866.111 840.292 866.207 840.531 866.346 840.744C865.124 839.34 863.587 838.246 861.86 837.551C860.247 837.15 858.541 837.4 857.11 838.246C855.68 839.092 854.64 840.467 854.215 842.073C853.915 843.709 854.223 845.398 855.08 846.823C855.938 848.248 857.286 849.311 858.873 849.813C858.119 849.863 857.407 850.178 856.863 850.702C856.318 851.226 855.977 851.926 855.898 852.677C854.679 860.1 860.433 861.648 866.029 860.624C872.125 859.515 876.88 859.198 877.758 851.885Z" fill="black"/>
<ellipse cx="610.404" cy="603.236" rx="6.70548" ry="6.70377" fill="black"/>
<ellipse cx="665.267" cy="612.987" rx="6.70548" ry="6.70377" fill="black"/>
<ellipse cx="863.993" cy="627.613" rx="6.70548" ry="6.70377" fill="black"/>
<ellipse cx="916.418" cy="627.613" rx="6.70548" ry="6.70377" fill="black"/>
</g>
<defs>
<clipPath id="clip0_2_3">
<rect width="1246" height="969" fill="white" transform="translate(127 265)"/>
</clipPath>
</defs>
</svg>
